<?xml version="1.0" encoding="UTF-8" standalone="no"?>
<svg
   version="1.1"
   width="64.550797mm"
   height="124.47667mm"
   viewBox="0 0 64.550797 124.47667"
   id="svg56822"
   xmlns="http://www.w3.org/2000/svg"
   xmlns:svg="http://www.w3.org/2000/svg">
  <defs
     id="defs56826" />
  <title
     id="title55520">SVG Image created as mouse-joystick-pcb-User_Drawings.svg date 2024/10/24 13:33:50 </title>
  <desc
     id="desc55522">Image generated by PCBNEW </desc>
  <g
     style="fill:#000000;fill-opacity:1;stroke:#000000;stroke-linecap:round;stroke-linejoin:round;stroke-opacity:1"
     id="g55524"
     transform="translate(-68.0492,-40.4)" />
  <g
     style="fill:#000000;fill-opacity:0;stroke:#000000;stroke-width:0;stroke-linecap:round;stroke-linejoin:round;stroke-opacity:1"
     id="g55526"
     transform="translate(-68.0492,-40.4)" />
  <g
     style="fill:#c2c2c2;fill-opacity:0;stroke:#c2c2c2;stroke-width:0;stroke-linecap:round;stroke-linejoin:round;stroke-opacity:1"
     id="g55528"
     transform="translate(-68.0492,-40.4)" />
  <g
     style="fill:#c2c2c2;fill-opacity:0;stroke:#c2c2c2;stroke-width:0.4;stroke-linecap:round;stroke-linejoin:round;stroke-opacity:1"
     id="g55554"
     transform="translate(-68.0492,-40.4)">
    <path
       d="m 77.4,41.6 a 5,5 0 0 0 -5,5"
       id="path55530" />
    <path
       d="m 132.4,46.6 a 5,5 0 0 0 -5,-5"
       id="path55532" />
    <path
       d="m 127.4,161.6 a 5,5 0 0 0 5,-5"
       id="path55534" />
    <path
       d="m 72.4,156.6 a 5,5 0 0 0 5,5"
       id="path55536" />
    <path
       style="fill:none;fill-opacity:0;stroke:#c2c2c2;stroke-width:0.4;stroke-linecap:round;stroke-linejoin:round;stroke-opacity:1"
       d="m 82.4,41.6 h 20 v 36 h -20 z"
       id="path55538" />
    <path
       d="m 132.4,46.6 v 110"
       id="path55540" />
    <path
       d="m 77.4,41.6 h 50"
       id="path55542" />
    <path
       d="m 94.9,101.6 h 15"
       id="path55544" />
    <path
       d="M 72.4,156.6 V 46.6"
       id="path55546" />
    <path
       d="m 102.4,109.1 v -15"
       id="path55548" />
    <path
       d="m 92.4,78.6 v -38"
       id="path55550" />
    <path
       d="m 127.4,161.6 h -50"
       id="path55552" />
  </g>
  <g
     style="fill:#c2c2c2;fill-opacity:0;stroke:#c2c2c2;stroke-width:0.5;stroke-linecap:round;stroke-linejoin:round;stroke-opacity:1"
     id="g55670"
     transform="translate(-68.0492,-40.4)">
    <text
       x="87.400002"
       y="152.60001"
       textLength="12.719"
       font-size="2.6667px"
       lengthAdjust="spacingAndGlyphs"
       text-anchor="middle"
       opacity="0"
       id="text55556">3.2 mm</text>
    <g
       class="stroked-text"
       id="g55668">
      <desc
         id="desc55558">3.2 mm</desc>
      <path
         d="m 81.8762,150.4992 h 1.2381"
         id="path55560" />
      <path
         d="m 83.1143,150.4992 -0.6667,0.7619"
         id="path55562" />
      <path
         d="m 82.4476,151.2611 h 0.2857"
         id="path55564" />
      <path
         d="m 82.7333,151.2611 0.1905,0.0953"
         id="path55566" />
      <path
         d="m 82.9238,151.3564 0.0952,0.0952"
         id="path55568" />
      <path
         d="m 83.019,151.4516 0.0953,0.1905"
         id="path55570" />
      <path
         d="m 83.1143,151.6421 v 0.4762"
         id="path55572" />
      <path
         d="m 83.1143,152.1183 -0.0953,0.1905"
         id="path55574" />
      <path
         d="m 83.019,152.3088 -0.0952,0.0952"
         id="path55576" />
      <path
         d="m 82.9238,152.404 -0.1905,0.0952"
         id="path55578" />
      <path
         d="M 82.7333,152.4992 H 82.1619"
         id="path55580" />
      <path
         d="M 82.1619,152.4992 81.9714,152.404"
         id="path55582" />
      <path
         d="m 81.9714,152.404 -0.0952,-0.0952"
         id="path55584" />
      <path
         d="m 83.9714,152.3088 0.0953,0.0952"
         id="path55586" />
      <path
         d="m 84.0667,152.404 -0.0953,0.0952"
         id="path55588" />
      <path
         d="M 83.9714,152.4992 83.8762,152.404"
         id="path55590" />
      <path
         d="m 83.8762,152.404 0.0952,-0.0952"
         id="path55592" />
      <path
         d="m 83.9714,152.3088 v 0.1904"
         id="path55594" />
      <path
         d="m 84.8286,150.6897 0.0952,-0.0952"
         id="path55596" />
      <path
         d="m 84.9238,150.5945 0.1905,-0.0953"
         id="path55598" />
      <path
         d="m 85.1143,150.4992 h 0.4762"
         id="path55600" />
      <path
         d="m 85.5905,150.4992 0.1905,0.0953"
         id="path55602" />
      <path
         d="m 85.781,150.5945 0.0952,0.0952"
         id="path55604" />
      <path
         d="m 85.8762,150.6897 0.0952,0.1905"
         id="path55606" />
      <path
         d="m 85.9714,150.8802 v 0.1905"
         id="path55608" />
      <path
         d="m 85.9714,151.0707 -0.0952,0.2857"
         id="path55610" />
      <path
         d="m 85.8762,151.3564 -1.1429,1.1428"
         id="path55612" />
      <path
         d="m 84.7333,152.4992 h 1.2381"
         id="path55614" />
      <path
         d="m 88.3524,152.4992 v -1.3333"
         id="path55616" />
      <path
         d="m 88.3524,151.3564 0.0952,-0.0953"
         id="path55618" />
      <path
         d="m 88.4476,151.2611 0.1905,-0.0952"
         id="path55620" />
      <path
         d="m 88.6381,151.1659 h 0.2857"
         id="path55622" />
      <path
         d="m 88.9238,151.1659 0.1905,0.0952"
         id="path55624" />
      <path
         d="m 89.1143,151.2611 0.0952,0.1905"
         id="path55626" />
      <path
         d="m 89.2095,151.4516 v 1.0476"
         id="path55628" />
      <path
         d="m 89.2095,151.4516 0.0953,-0.1905"
         id="path55630" />
      <path
         d="m 89.3048,151.2611 0.1904,-0.0952"
         id="path55632" />
      <path
         d="M 89.4952,151.1659 H 89.781"
         id="path55634" />
      <path
         d="m 89.781,151.1659 0.1904,0.0952"
         id="path55636" />
      <path
         d="m 89.9714,151.2611 0.0953,0.1905"
         id="path55638" />
      <path
         d="m 90.0667,151.4516 v 1.0476"
         id="path55640" />
      <path
         d="m 91.019,152.4992 v -1.3333"
         id="path55642" />
      <path
         d="m 91.019,151.3564 0.0953,-0.0953"
         id="path55644" />
      <path
         d="m 91.1143,151.2611 0.1905,-0.0952"
         id="path55646" />
      <path
         d="m 91.3048,151.1659 h 0.2857"
         id="path55648" />
      <path
         d="m 91.5905,151.1659 0.1905,0.0952"
         id="path55650" />
      <path
         d="m 91.781,151.2611 0.0952,0.1905"
         id="path55652" />
      <path
         d="m 91.8762,151.4516 v 1.0476"
         id="path55654" />
      <path
         d="m 91.8762,151.4516 0.0952,-0.1905"
         id="path55656" />
      <path
         d="m 91.9714,151.2611 0.1905,-0.0952"
         id="path55658" />
      <path
         d="m 92.1619,151.1659 h 0.2857"
         id="path55660" />
      <path
         d="m 92.4476,151.1659 0.1905,0.0952"
         id="path55662" />
      <path
         d="m 92.6381,151.2611 0.0952,0.1905"
         id="path55664" />
      <path
         d="m 92.7333,151.4516 v 1.0476"
         id="path55666" />
    </g>
  </g>
  <g
     style="fill:#c2c2c2;fill-opacity:0;stroke:#c2c2c2;stroke-width:0.4;stroke-linecap:round;stroke-linejoin:round;stroke-opacity:1"
     id="g55688"
     transform="translate(-68.0492,-40.4)">
    <path
       d="m 75.8,156.1 v -5.0864"
       id="path55672" />
    <path
       d="M 79,151.0136 V 156.1"
       id="path55674" />
    <path
       d="M 75.8,151.6 H 79"
       id="path55676" />
    <path
       d="M 75.8,151.6 H 79"
       id="path55678" />
    <path
       d="m 75.8,151.6 1.1265,-0.5864"
       id="path55680" />
    <path
       d="m 75.8,151.6 1.1265,0.5864"
       id="path55682" />
    <path
       d="m 79,151.6 -1.1265,0.5864"
       id="path55684" />
    <path
       d="m 79,151.6 -1.1265,-0.5864"
       id="path55686" />
  </g>
  <g
     style="fill:#c2c2c2;fill-opacity:0;stroke:#c2c2c2;stroke-width:0.5;stroke-linecap:round;stroke-linejoin:round;stroke-opacity:1"
     id="g55798"
     transform="translate(-68.0492,-40.4)">
    <text
       x="97.400002"
       y="120.1"
       textLength="11.7667"
       font-size="2.6667px"
       lengthAdjust="spacingAndGlyphs"
       text-anchor="middle"
       opacity="0"
       id="text55690">10 mm</text>
    <g
       class="stroked-text"
       id="g55796">
      <desc
         id="desc55692">10 mm</desc>
      <path
         d="M 93.5905,119.9992 H 92.4476"
         id="path55694" />
      <path
         d="m 93.019,119.9992 v -2"
         id="path55696" />
      <path
         d="m 93.019,117.9992 -0.1904,0.2858"
         id="path55698" />
      <path
         d="m 92.8286,118.285 -0.1905,0.1904"
         id="path55700" />
      <path
         d="m 92.6381,118.4754 -0.1905,0.0953"
         id="path55702" />
      <path
         d="M 94.8286,117.9992 H 95.019"
         id="path55704" />
      <path
         d="m 95.019,117.9992 0.1905,0.0953"
         id="path55706" />
      <path
         d="m 95.2095,118.0945 0.0953,0.0952"
         id="path55708" />
      <path
         d="M 95.3048,118.1897 95.4,118.3802"
         id="path55710" />
      <path
         d="m 95.4,118.3802 0.0952,0.3809"
         id="path55712" />
      <path
         d="m 95.4952,118.7611 v 0.4762"
         id="path55714" />
      <path
         d="M 95.4952,119.2373 95.4,119.6183"
         id="path55716" />
      <path
         d="m 95.4,119.6183 -0.0952,0.1905"
         id="path55718" />
      <path
         d="m 95.3048,119.8088 -0.0953,0.0952"
         id="path55720" />
      <path
         d="m 95.2095,119.904 -0.1905,0.0952"
         id="path55722" />
      <path
         d="M 95.019,119.9992 H 94.8286"
         id="path55724" />
      <path
         d="M 94.8286,119.9992 94.6381,119.904"
         id="path55726" />
      <path
         d="m 94.6381,119.904 -0.0952,-0.0952"
         id="path55728" />
      <path
         d="m 94.5429,119.8088 -0.0953,-0.1905"
         id="path55730" />
      <path
         d="m 94.4476,119.6183 -0.0952,-0.381"
         id="path55732" />
      <path
         d="m 94.3524,119.2373 v -0.4762"
         id="path55734" />
      <path
         d="m 94.3524,118.7611 0.0952,-0.3809"
         id="path55736" />
      <path
         d="m 94.4476,118.3802 0.0953,-0.1905"
         id="path55738" />
      <path
         d="m 94.5429,118.1897 0.0952,-0.0952"
         id="path55740" />
      <path
         d="m 94.6381,118.0945 0.1905,-0.0953"
         id="path55742" />
      <path
         d="m 97.8762,119.9992 v -1.3333"
         id="path55744" />
      <path
         d="m 97.8762,118.8564 0.0952,-0.0953"
         id="path55746" />
      <path
         d="m 97.9714,118.7611 0.1905,-0.0952"
         id="path55748" />
      <path
         d="m 98.1619,118.6659 h 0.2857"
         id="path55750" />
      <path
         d="m 98.4476,118.6659 0.1905,0.0952"
         id="path55752" />
      <path
         d="m 98.6381,118.7611 0.0952,0.1905"
         id="path55754" />
      <path
         d="m 98.7333,118.9516 v 1.0476"
         id="path55756" />
      <path
         d="m 98.7333,118.9516 0.0953,-0.1905"
         id="path55758" />
      <path
         d="m 98.8286,118.7611 0.1904,-0.0952"
         id="path55760" />
      <path
         d="m 99.019,118.6659 h 0.2858"
         id="path55762" />
      <path
         d="m 99.3048,118.6659 0.1904,0.0952"
         id="path55764" />
      <path
         d="m 99.4952,118.7611 0.0953,0.1905"
         id="path55766" />
      <path
         d="m 99.5905,118.9516 v 1.0476"
         id="path55768" />
      <path
         d="m 100.5429,119.9992 v -1.3333"
         id="path55770" />
      <path
         d="m 100.5429,118.8564 0.0952,-0.0953"
         id="path55772" />
      <path
         d="m 100.6381,118.7611 0.1905,-0.0952"
         id="path55774" />
      <path
         d="m 100.8286,118.6659 h 0.2857"
         id="path55776" />
      <path
         d="m 101.1143,118.6659 0.1905,0.0952"
         id="path55778" />
      <path
         d="m 101.3048,118.7611 0.0952,0.1905"
         id="path55780" />
      <path
         d="m 101.4,118.9516 v 1.0476"
         id="path55782" />
      <path
         d="m 101.4,118.9516 0.0952,-0.1905"
         id="path55784" />
      <path
         d="m 101.4952,118.7611 0.1905,-0.0952"
         id="path55786" />
      <path
         d="m 101.6857,118.6659 h 0.2857"
         id="path55788" />
      <path
         d="m 101.9714,118.6659 0.1905,0.0952"
         id="path55790" />
      <path
         d="m 102.1619,118.7611 0.0952,0.1905"
         id="path55792" />
      <path
         d="m 102.2571,118.9516 v 1.0476"
         id="path55794" />
    </g>
  </g>
  <g
     style="fill:#c2c2c2;fill-opacity:0;stroke:#c2c2c2;stroke-width:0.4;stroke-linecap:round;stroke-linejoin:round;stroke-opacity:1"
     id="g55812"
     transform="translate(-68.0492,-40.4)">
    <path
       d="m 92.4,102.1 v 15.0864"
       id="path55800" />
    <path
       d="M 102.4,117.1864 V 102.1"
       id="path55802" />
    <path
       d="m 92.4,116.6 1.1265,-0.5864"
       id="path55804" />
    <path
       d="m 92.4,116.6 1.1265,0.5864"
       id="path55806" />
    <path
       d="m 102.4,116.6 -1.1265,0.5864"
       id="path55808" />
    <path
       d="m 102.4,116.6 -1.1265,-0.5864"
       id="path55810" />
  </g>
  <g
     style="fill:#c2c2c2;fill-opacity:0;stroke:#c2c2c2;stroke-width:0.5;stroke-linecap:round;stroke-linejoin:round;stroke-opacity:1"
     id="g55954"
     transform="translate(-68.0492,-40.4)">
    <text
       x="102.4"
       y="164.60001"
       textLength="11.7667"
       font-size="2.6667px"
       lengthAdjust="spacingAndGlyphs"
       text-anchor="middle"
       opacity="0"
       id="text55814">60 mm</text>
    <g
       class="stroked-text"
       id="g55952">
      <desc
         id="desc55816">60 mm</desc>
      <path
         d="M 98.4,162.4992 H 98.019"
         id="path55818" />
      <path
         d="m 98.019,162.4992 -0.1904,0.0953"
         id="path55820" />
      <path
         d="m 97.8286,162.5945 -0.0953,0.0952"
         id="path55822" />
      <path
         d="m 97.7333,162.6897 -0.1904,0.2857"
         id="path55824" />
      <path
         d="m 97.5429,162.9754 -0.0953,0.381"
         id="path55826" />
      <path
         d="m 97.4476,163.3564 v 0.7619"
         id="path55828" />
      <path
         d="m 97.4476,164.1183 0.0953,0.1905"
         id="path55830" />
      <path
         d="m 97.5429,164.3088 0.0952,0.0952"
         id="path55832" />
      <path
         d="m 97.6381,164.404 0.1905,0.0952"
         id="path55834" />
      <path
         d="m 97.8286,164.4992 h 0.3809"
         id="path55836" />
      <path
         d="M 98.2095,164.4992 98.4,164.404"
         id="path55838" />
      <path
         d="m 98.4,164.404 0.0952,-0.0952"
         id="path55840" />
      <path
         d="m 98.4952,164.3088 0.0953,-0.1905"
         id="path55842" />
      <path
         d="m 98.5905,164.1183 v -0.4762"
         id="path55844" />
      <path
         d="m 98.5905,163.6421 -0.0953,-0.1905"
         id="path55846" />
      <path
         d="M 98.4952,163.4516 98.4,163.3564"
         id="path55848" />
      <path
         d="m 98.4,163.3564 -0.1905,-0.0953"
         id="path55850" />
      <path
         d="M 98.2095,163.2611 H 97.8286"
         id="path55852" />
      <path
         d="m 97.8286,163.2611 -0.1905,0.0953"
         id="path55854" />
      <path
         d="m 97.6381,163.3564 -0.0952,0.0952"
         id="path55856" />
      <path
         d="m 97.5429,163.4516 -0.0953,0.1905"
         id="path55858" />
      <path
         d="m 99.8286,162.4992 h 0.1904"
         id="path55860" />
      <path
         d="m 100.019,162.4992 0.1905,0.0953"
         id="path55862" />
      <path
         d="m 100.2095,162.5945 0.0953,0.0952"
         id="path55864" />
      <path
         d="m 100.3048,162.6897 0.0952,0.1905"
         id="path55866" />
      <path
         d="m 100.4,162.8802 0.0952,0.3809"
         id="path55868" />
      <path
         d="m 100.4952,163.2611 v 0.4762"
         id="path55870" />
      <path
         d="m 100.4952,163.7373 -0.0952,0.381"
         id="path55872" />
      <path
         d="m 100.4,164.1183 -0.0952,0.1905"
         id="path55874" />
      <path
         d="m 100.3048,164.3088 -0.0953,0.0952"
         id="path55876" />
      <path
         d="m 100.2095,164.404 -0.1905,0.0952"
         id="path55878" />
      <path
         d="M 100.019,164.4992 H 99.8286"
         id="path55880" />
      <path
         d="M 99.8286,164.4992 99.6381,164.404"
         id="path55882" />
      <path
         d="m 99.6381,164.404 -0.0952,-0.0952"
         id="path55884" />
      <path
         d="m 99.5429,164.3088 -0.0953,-0.1905"
         id="path55886" />
      <path
         d="m 99.4476,164.1183 -0.0952,-0.381"
         id="path55888" />
      <path
         d="m 99.3524,163.7373 v -0.4762"
         id="path55890" />
      <path
         d="m 99.3524,163.2611 0.0952,-0.3809"
         id="path55892" />
      <path
         d="m 99.4476,162.8802 0.0953,-0.1905"
         id="path55894" />
      <path
         d="m 99.5429,162.6897 0.0952,-0.0952"
         id="path55896" />
      <path
         d="m 99.6381,162.5945 0.1905,-0.0953"
         id="path55898" />
      <path
         d="m 102.8762,164.4992 v -1.3333"
         id="path55900" />
      <path
         d="m 102.8762,163.3564 0.0952,-0.0953"
         id="path55902" />
      <path
         d="m 102.9714,163.2611 0.1905,-0.0952"
         id="path55904" />
      <path
         d="m 103.1619,163.1659 h 0.2857"
         id="path55906" />
      <path
         d="m 103.4476,163.1659 0.1905,0.0952"
         id="path55908" />
      <path
         d="m 103.6381,163.2611 0.0952,0.1905"
         id="path55910" />
      <path
         d="m 103.7333,163.4516 v 1.0476"
         id="path55912" />
      <path
         d="m 103.7333,163.4516 0.0953,-0.1905"
         id="path55914" />
      <path
         d="m 103.8286,163.2611 0.1904,-0.0952"
         id="path55916" />
      <path
         d="m 104.019,163.1659 h 0.2858"
         id="path55918" />
      <path
         d="m 104.3048,163.1659 0.1904,0.0952"
         id="path55920" />
      <path
         d="m 104.4952,163.2611 0.0953,0.1905"
         id="path55922" />
      <path
         d="m 104.5905,163.4516 v 1.0476"
         id="path55924" />
      <path
         d="m 105.5429,164.4992 v -1.3333"
         id="path55926" />
      <path
         d="m 105.5429,163.3564 0.0952,-0.0953"
         id="path55928" />
      <path
         d="m 105.6381,163.2611 0.1905,-0.0952"
         id="path55930" />
      <path
         d="m 105.8286,163.1659 h 0.2857"
         id="path55932" />
      <path
         d="m 106.1143,163.1659 0.1905,0.0952"
         id="path55934" />
      <path
         d="m 106.3048,163.2611 0.0952,0.1905"
         id="path55936" />
      <path
         d="m 106.4,163.4516 v 1.0476"
         id="path55938" />
      <path
         d="m 106.4,163.4516 0.0952,-0.1905"
         id="path55940" />
      <path
         d="m 106.4952,163.2611 0.1905,-0.0952"
         id="path55942" />
      <path
         d="m 106.6857,163.1659 h 0.2857"
         id="path55944" />
      <path
         d="m 106.9714,163.1659 0.1905,0.0952"
         id="path55946" />
      <path
         d="m 107.1619,163.2611 0.0952,0.1905"
         id="path55948" />
      <path
         d="m 107.2571,163.4516 v 1.0476"
         id="path55950" />
    </g>
  </g>
  <g
     style="fill:#c2c2c2;fill-opacity:0;stroke:#c2c2c2;stroke-width:0.4;stroke-linecap:round;stroke-linejoin:round;stroke-opacity:1"
     id="g55972"
     transform="translate(-68.0492,-40.4)">
    <path
       d="m 132.4,156.6 v 7.5864"
       id="path55956" />
    <path
       d="M 72.4,164.1864 V 157.1"
       id="path55958" />
    <path
       d="M 132.4,163.6 H 109.2833"
       id="path55960" />
    <path
       d="M 95.5167,163.6 H 72.4"
       id="path55962" />
    <path
       d="m 132.4,163.6 -1.1265,0.5864"
       id="path55964" />
    <path
       d="m 132.4,163.6 -1.1265,-0.5864"
       id="path55966" />
    <path
       d="m 72.4,163.6 1.1265,-0.5864"
       id="path55968" />
    <path
       d="m 72.4,163.6 1.1265,0.5864"
       id="path55970" />
  </g>
  <g
     style="fill:#c2c2c2;fill-opacity:0;stroke:#c2c2c2;stroke-width:0.5;stroke-linecap:round;stroke-linejoin:round;stroke-opacity:1"
     id="g56104"
     transform="translate(-68.0492,-40.4)">
    <g
       transform="rotate(-90,69.4,101.6)"
       id="g55976">
      <text
         x="69.400002"
         y="102.6"
         textLength="13.6714"
         font-size="2.6667px"
         lengthAdjust="spacingAndGlyphs"
         text-anchor="middle"
         opacity="0"
         id="text55974">120 mm</text>
    </g>
    <g
       class="stroked-text"
       id="g56102">
      <desc
         id="desc55978">120 mm</desc>
      <path
         d="m 70.2992,106.3619 v 1.1429"
         id="path55980" />
      <path
         d="m 70.2992,106.9333 h -2"
         id="path55982" />
      <path
         d="m 68.2992,106.9333 0.2858,0.1905"
         id="path55984" />
      <path
         d="m 68.585,107.1238 0.1904,0.1905"
         id="path55986" />
      <path
         d="m 68.7754,107.3143 0.0953,0.1905"
         id="path55988" />
      <path
         d="m 68.4897,105.6 -0.0952,-0.0952"
         id="path55990" />
      <path
         d="m 68.3945,105.5048 -0.0953,-0.1905"
         id="path55992" />
      <path
         d="m 68.2992,105.3143 v -0.4762"
         id="path55994" />
      <path
         d="m 68.2992,104.8381 0.0953,-0.1905"
         id="path55996" />
      <path
         d="m 68.3945,104.6476 0.0952,-0.0952"
         id="path55998" />
      <path
         d="m 68.4897,104.5524 0.1905,-0.0953"
         id="path56000" />
      <path
         d="m 68.6802,104.4571 h 0.1905"
         id="path56002" />
      <path
         d="m 68.8707,104.4571 0.2857,0.0953"
         id="path56004" />
      <path
         d="m 69.1564,104.5524 1.1428,1.1428"
         id="path56006" />
      <path
         d="m 70.2992,105.6952 v -1.2381"
         id="path56008" />
      <path
         d="m 68.2992,103.219 v -0.1904"
         id="path56010" />
      <path
         d="m 68.2992,103.0286 0.0953,-0.1905"
         id="path56012" />
      <path
         d="m 68.3945,102.8381 0.0952,-0.0952"
         id="path56014" />
      <path
         d="m 68.4897,102.7429 0.1905,-0.0953"
         id="path56016" />
      <path
         d="m 68.6802,102.6476 0.3809,-0.0952"
         id="path56018" />
      <path
         d="m 69.0611,102.5524 h 0.4762"
         id="path56020" />
      <path
         d="m 69.5373,102.5524 0.381,0.0952"
         id="path56022" />
      <path
         d="m 69.9183,102.6476 0.1905,0.0953"
         id="path56024" />
      <path
         d="m 70.1088,102.7429 0.0952,0.0952"
         id="path56026" />
      <path
         d="m 70.204,102.8381 0.0952,0.1905"
         id="path56028" />
      <path
         d="m 70.2992,103.0286 v 0.1904"
         id="path56030" />
      <path
         d="m 70.2992,103.219 -0.0952,0.1905"
         id="path56032" />
      <path
         d="m 70.204,103.4095 -0.0952,0.0953"
         id="path56034" />
      <path
         d="M 70.1088,103.5048 69.9183,103.6"
         id="path56036" />
      <path
         d="m 69.9183,103.6 -0.381,0.0952"
         id="path56038" />
      <path
         d="M 69.5373,103.6952 H 69.0611"
         id="path56040" />
      <path
         d="M 69.0611,103.6952 68.6802,103.6"
         id="path56042" />
      <path
         d="m 68.6802,103.6 -0.1905,-0.0952"
         id="path56044" />
      <path
         d="m 68.4897,103.5048 -0.0952,-0.0953"
         id="path56046" />
      <path
         d="M 68.3945,103.4095 68.2992,103.219"
         id="path56048" />
      <path
         d="M 70.2992,100.1714 H 68.9659"
         id="path56050" />
      <path
         d="m 69.1564,100.1714 -0.0953,-0.0952"
         id="path56052" />
      <path
         d="M 69.0611,100.0762 68.9659,99.8857"
         id="path56054" />
      <path
         d="M 68.9659,99.8857 V 99.6"
         id="path56056" />
      <path
         d="m 68.9659,99.6 0.0952,-0.1905"
         id="path56058" />
      <path
         d="m 69.0611,99.4095 0.1905,-0.0952"
         id="path56060" />
      <path
         d="m 69.2516,99.3143 h 1.0476"
         id="path56062" />
      <path
         d="M 69.2516,99.3143 69.0611,99.219"
         id="path56064" />
      <path
         d="M 69.0611,99.219 68.9659,99.0286"
         id="path56066" />
      <path
         d="M 68.9659,99.0286 V 98.7429"
         id="path56068" />
      <path
         d="m 68.9659,98.7429 0.0952,-0.1905"
         id="path56070" />
      <path
         d="m 69.0611,98.5524 0.1905,-0.0953"
         id="path56072" />
      <path
         d="m 69.2516,98.4571 h 1.0476"
         id="path56074" />
      <path
         d="M 70.2992,97.5048 H 68.9659"
         id="path56076" />
      <path
         d="M 69.1564,97.5048 69.0611,97.4095"
         id="path56078" />
      <path
         d="M 69.0611,97.4095 68.9659,97.219"
         id="path56080" />
      <path
         d="M 68.9659,97.219 V 96.9333"
         id="path56082" />
      <path
         d="m 68.9659,96.9333 0.0952,-0.1904"
         id="path56084" />
      <path
         d="m 69.0611,96.7429 0.1905,-0.0953"
         id="path56086" />
      <path
         d="m 69.2516,96.6476 h 1.0476"
         id="path56088" />
      <path
         d="M 69.2516,96.6476 69.0611,96.5524"
         id="path56090" />
      <path
         d="M 69.0611,96.5524 68.9659,96.3619"
         id="path56092" />
      <path
         d="M 68.9659,96.3619 V 96.0762"
         id="path56094" />
      <path
         d="m 68.9659,96.0762 0.0952,-0.1905"
         id="path56096" />
      <path
         d="m 69.0611,95.8857 0.1905,-0.0952"
         id="path56098" />
      <path
         d="m 69.2516,95.7905 h 1.0476"
         id="path56100" />
    </g>
  </g>
  <g
     style="fill:#c2c2c2;fill-opacity:0;stroke:#c2c2c2;stroke-width:0.4;stroke-linecap:round;stroke-linejoin:round;stroke-opacity:1"
     id="g56122"
     transform="translate(-68.0492,-40.4)">
    <path
       d="M 76.9,41.6 H 68.8136"
       id="path56106" />
    <path
       d="M 68.8136,161.6 H 76.9"
       id="path56108" />
    <path
       d="M 69.4,41.6 V 93.7643"
       id="path56110" />
    <path
       d="M 69.4,109.4357 V 161.6"
       id="path56112" />
    <path
       d="m 69.4,41.6 0.5864,1.1265"
       id="path56114" />
    <path
       d="m 69.4,41.6 -0.5864,1.1265"
       id="path56116" />
    <path
       d="m 69.4,161.6 -0.5864,-1.1265"
       id="path56118" />
    <path
       d="m 69.4,161.6 0.5864,-1.1265"
       id="path56120" />
  </g>
  <g
     style="fill:#c2c2c2;fill-opacity:0;stroke:#c2c2c2;stroke-width:0.5;stroke-linecap:round;stroke-linejoin:round;stroke-opacity:1"
     id="g56244"
     transform="translate(-68.0492,-40.4)">
    <g
       transform="rotate(-90,127.4,101.6)"
       id="g56126">
      <text
         x="127.4"
         y="102.6"
         textLength="13.6714"
         font-size="2.6667px"
         lengthAdjust="spacingAndGlyphs"
         text-anchor="middle"
         opacity="0"
         id="text56124">110 mm</text>
    </g>
    <g
       class="stroked-text"
       id="g56242">
      <desc
         id="desc56128">110 mm</desc>
      <path
         d="m 128.2992,106.3619 v 1.1429"
         id="path56130" />
      <path
         d="m 128.2992,106.9333 h -2"
         id="path56132" />
      <path
         d="m 126.2992,106.9333 0.2858,0.1905"
         id="path56134" />
      <path
         d="m 126.585,107.1238 0.1904,0.1905"
         id="path56136" />
      <path
         d="m 126.7754,107.3143 0.0953,0.1905"
         id="path56138" />
      <path
         d="M 128.2992,104.4571 V 105.6"
         id="path56140" />
      <path
         d="m 128.2992,105.0286 h -2"
         id="path56142" />
      <path
         d="m 126.2992,105.0286 0.2858,0.1904"
         id="path56144" />
      <path
         d="m 126.585,105.219 0.1904,0.1905"
         id="path56146" />
      <path
         d="m 126.7754,105.4095 0.0953,0.1905"
         id="path56148" />
      <path
         d="m 126.2992,103.219 v -0.1904"
         id="path56150" />
      <path
         d="m 126.2992,103.0286 0.0953,-0.1905"
         id="path56152" />
      <path
         d="m 126.3945,102.8381 0.0952,-0.0952"
         id="path56154" />
      <path
         d="m 126.4897,102.7429 0.1905,-0.0953"
         id="path56156" />
      <path
         d="m 126.6802,102.6476 0.3809,-0.0952"
         id="path56158" />
      <path
         d="m 127.0611,102.5524 h 0.4762"
         id="path56160" />
      <path
         d="m 127.5373,102.5524 0.381,0.0952"
         id="path56162" />
      <path
         d="m 127.9183,102.6476 0.1905,0.0953"
         id="path56164" />
      <path
         d="m 128.1088,102.7429 0.0952,0.0952"
         id="path56166" />
      <path
         d="m 128.204,102.8381 0.0952,0.1905"
         id="path56168" />
      <path
         d="m 128.2992,103.0286 v 0.1904"
         id="path56170" />
      <path
         d="m 128.2992,103.219 -0.0952,0.1905"
         id="path56172" />
      <path
         d="m 128.204,103.4095 -0.0952,0.0953"
         id="path56174" />
      <path
         d="M 128.1088,103.5048 127.9183,103.6"
         id="path56176" />
      <path
         d="m 127.9183,103.6 -0.381,0.0952"
         id="path56178" />
      <path
         d="m 127.5373,103.6952 h -0.4762"
         id="path56180" />
      <path
         d="M 127.0611,103.6952 126.6802,103.6"
         id="path56182" />
      <path
         d="m 126.6802,103.6 -0.1905,-0.0952"
         id="path56184" />
      <path
         d="m 126.4897,103.5048 -0.0952,-0.0953"
         id="path56186" />
      <path
         d="m 126.3945,103.4095 -0.0953,-0.1905"
         id="path56188" />
      <path
         d="m 128.2992,100.1714 h -1.3333"
         id="path56190" />
      <path
         d="m 127.1564,100.1714 -0.0953,-0.0952"
         id="path56192" />
      <path
         d="m 127.0611,100.0762 -0.0952,-0.1905"
         id="path56194" />
      <path
         d="M 126.9659,99.8857 V 99.6"
         id="path56196" />
      <path
         d="m 126.9659,99.6 0.0952,-0.1905"
         id="path56198" />
      <path
         d="m 127.0611,99.4095 0.1905,-0.0952"
         id="path56200" />
      <path
         d="m 127.2516,99.3143 h 1.0476"
         id="path56202" />
      <path
         d="M 127.2516,99.3143 127.0611,99.219"
         id="path56204" />
      <path
         d="m 127.0611,99.219 -0.0952,-0.1904"
         id="path56206" />
      <path
         d="M 126.9659,99.0286 V 98.7429"
         id="path56208" />
      <path
         d="m 126.9659,98.7429 0.0952,-0.1905"
         id="path56210" />
      <path
         d="m 127.0611,98.5524 0.1905,-0.0953"
         id="path56212" />
      <path
         d="m 127.2516,98.4571 h 1.0476"
         id="path56214" />
      <path
         d="m 128.2992,97.5048 h -1.3333"
         id="path56216" />
      <path
         d="m 127.1564,97.5048 -0.0953,-0.0953"
         id="path56218" />
      <path
         d="M 127.0611,97.4095 126.9659,97.219"
         id="path56220" />
      <path
         d="M 126.9659,97.219 V 96.9333"
         id="path56222" />
      <path
         d="m 126.9659,96.9333 0.0952,-0.1904"
         id="path56224" />
      <path
         d="m 127.0611,96.7429 0.1905,-0.0953"
         id="path56226" />
      <path
         d="m 127.2516,96.6476 h 1.0476"
         id="path56228" />
      <path
         d="m 127.2516,96.6476 -0.1905,-0.0952"
         id="path56230" />
      <path
         d="m 127.0611,96.5524 -0.0952,-0.1905"
         id="path56232" />
      <path
         d="M 126.9659,96.3619 V 96.0762"
         id="path56234" />
      <path
         d="m 126.9659,96.0762 0.0952,-0.1905"
         id="path56236" />
      <path
         d="m 127.0611,95.8857 0.1905,-0.0952"
         id="path56238" />
      <path
         d="m 127.2516,95.7905 h 1.0476"
         id="path56240" />
    </g>
  </g>
  <g
     style="fill:#c2c2c2;fill-opacity:1;stroke:#c2c2c2;stroke-width:0;stroke-linecap:round;stroke-linejoin:round;stroke-opacity:1"
     id="g56250"
     transform="translate(-68.0492,-40.4)">
    <circle
       cx="127.4"
       cy="46.599998"
       r="0.2"
       id="circle56246" />
    <circle
       cx="127.4"
       cy="156.60001"
       r="0.2"
       id="circle56248" />
  </g>
  <g
     style="fill:#c2c2c2;fill-opacity:1;stroke:#c2c2c2;stroke-width:0.4;stroke-linecap:round;stroke-linejoin:round;stroke-opacity:1"
     id="g56252"
     transform="translate(-68.0492,-40.4)" />
  <g
     style="fill:#c2c2c2;fill-opacity:0;stroke:#c2c2c2;stroke-width:0.4;stroke-linecap:round;stroke-linejoin:round;stroke-opacity:1"
     id="g56266"
     transform="translate(-68.0492,-40.4)">
    <path
       d="M 127.4,46.6 V 93.7643"
       id="path56254" />
    <path
       d="M 127.4,109.4357 V 156.6"
       id="path56256" />
    <path
       d="m 127.4,46.6 0.5864,1.1265"
       id="path56258" />
    <path
       d="m 127.4,46.6 -0.5864,1.1265"
       id="path56260" />
    <path
       d="m 127.4,156.6 -0.5864,-1.1265"
       id="path56262" />
    <path
       d="m 127.4,156.6 0.5864,-1.1265"
       id="path56264" />
  </g>
  <g
     style="fill:#c2c2c2;fill-opacity:0;stroke:#c2c2c2;stroke-width:0.5;stroke-linecap:round;stroke-linejoin:round;stroke-opacity:1"
     id="g56396"
     transform="translate(-68.0492,-40.4)">
    <text
       x="102.4"
       y="157.60001"
       textLength="11.7667"
       font-size="2.6667px"
       lengthAdjust="spacingAndGlyphs"
       text-anchor="middle"
       opacity="0"
       id="text56268">50 mm</text>
    <g
       class="stroked-text"
       id="g56394">
      <desc
         id="desc56270">50 mm</desc>
      <path
         d="M 98.4952,155.4992 H 97.5429"
         id="path56272" />
      <path
         d="m 97.5429,155.4992 -0.0953,0.9524"
         id="path56274" />
      <path
         d="m 97.4476,156.4516 0.0953,-0.0952"
         id="path56276" />
      <path
         d="m 97.5429,156.3564 0.1904,-0.0953"
         id="path56278" />
      <path
         d="m 97.7333,156.2611 h 0.4762"
         id="path56280" />
      <path
         d="M 98.2095,156.2611 98.4,156.3564"
         id="path56282" />
      <path
         d="m 98.4,156.3564 0.0952,0.0952"
         id="path56284" />
      <path
         d="m 98.4952,156.4516 0.0953,0.1905"
         id="path56286" />
      <path
         d="m 98.5905,156.6421 v 0.4762"
         id="path56288" />
      <path
         d="m 98.5905,157.1183 -0.0953,0.1905"
         id="path56290" />
      <path
         d="M 98.4952,157.3088 98.4,157.404"
         id="path56292" />
      <path
         d="m 98.4,157.404 -0.1905,0.0952"
         id="path56294" />
      <path
         d="M 98.2095,157.4992 H 97.7333"
         id="path56296" />
      <path
         d="M 97.7333,157.4992 97.5429,157.404"
         id="path56298" />
      <path
         d="m 97.5429,157.404 -0.0953,-0.0952"
         id="path56300" />
      <path
         d="m 99.8286,155.4992 h 0.1904"
         id="path56302" />
      <path
         d="m 100.019,155.4992 0.1905,0.0953"
         id="path56304" />
      <path
         d="m 100.2095,155.5945 0.0953,0.0952"
         id="path56306" />
      <path
         d="m 100.3048,155.6897 0.0952,0.1905"
         id="path56308" />
      <path
         d="m 100.4,155.8802 0.0952,0.3809"
         id="path56310" />
      <path
         d="m 100.4952,156.2611 v 0.4762"
         id="path56312" />
      <path
         d="m 100.4952,156.7373 -0.0952,0.381"
         id="path56314" />
      <path
         d="m 100.4,157.1183 -0.0952,0.1905"
         id="path56316" />
      <path
         d="m 100.3048,157.3088 -0.0953,0.0952"
         id="path56318" />
      <path
         d="m 100.2095,157.404 -0.1905,0.0952"
         id="path56320" />
      <path
         d="M 100.019,157.4992 H 99.8286"
         id="path56322" />
      <path
         d="M 99.8286,157.4992 99.6381,157.404"
         id="path56324" />
      <path
         d="m 99.6381,157.404 -0.0952,-0.0952"
         id="path56326" />
      <path
         d="m 99.5429,157.3088 -0.0953,-0.1905"
         id="path56328" />
      <path
         d="m 99.4476,157.1183 -0.0952,-0.381"
         id="path56330" />
      <path
         d="m 99.3524,156.7373 v -0.4762"
         id="path56332" />
      <path
         d="m 99.3524,156.2611 0.0952,-0.3809"
         id="path56334" />
      <path
         d="m 99.4476,155.8802 0.0953,-0.1905"
         id="path56336" />
      <path
         d="m 99.5429,155.6897 0.0952,-0.0952"
         id="path56338" />
      <path
         d="m 99.6381,155.5945 0.1905,-0.0953"
         id="path56340" />
      <path
         d="m 102.8762,157.4992 v -1.3333"
         id="path56342" />
      <path
         d="m 102.8762,156.3564 0.0952,-0.0953"
         id="path56344" />
      <path
         d="m 102.9714,156.2611 0.1905,-0.0952"
         id="path56346" />
      <path
         d="m 103.1619,156.1659 h 0.2857"
         id="path56348" />
      <path
         d="m 103.4476,156.1659 0.1905,0.0952"
         id="path56350" />
      <path
         d="m 103.6381,156.2611 0.0952,0.1905"
         id="path56352" />
      <path
         d="m 103.7333,156.4516 v 1.0476"
         id="path56354" />
      <path
         d="m 103.7333,156.4516 0.0953,-0.1905"
         id="path56356" />
      <path
         d="m 103.8286,156.2611 0.1904,-0.0952"
         id="path56358" />
      <path
         d="m 104.019,156.1659 h 0.2858"
         id="path56360" />
      <path
         d="m 104.3048,156.1659 0.1904,0.0952"
         id="path56362" />
      <path
         d="m 104.4952,156.2611 0.0953,0.1905"
         id="path56364" />
      <path
         d="m 104.5905,156.4516 v 1.0476"
         id="path56366" />
      <path
         d="m 105.5429,157.4992 v -1.3333"
         id="path56368" />
      <path
         d="m 105.5429,156.3564 0.0952,-0.0953"
         id="path56370" />
      <path
         d="m 105.6381,156.2611 0.1905,-0.0952"
         id="path56372" />
      <path
         d="m 105.8286,156.1659 h 0.2857"
         id="path56374" />
      <path
         d="m 106.1143,156.1659 0.1905,0.0952"
         id="path56376" />
      <path
         d="m 106.3048,156.2611 0.0952,0.1905"
         id="path56378" />
      <path
         d="m 106.4,156.4516 v 1.0476"
         id="path56380" />
      <path
         d="m 106.4,156.4516 0.0952,-0.1905"
         id="path56382" />
      <path
         d="m 106.4952,156.2611 0.1905,-0.0952"
         id="path56384" />
      <path
         d="m 106.6857,156.1659 h 0.2857"
         id="path56386" />
      <path
         d="m 106.9714,156.1659 0.1905,0.0952"
         id="path56388" />
      <path
         d="m 107.1619,156.2611 0.0952,0.1905"
         id="path56390" />
      <path
         d="m 107.2571,156.4516 v 1.0476"
         id="path56392" />
    </g>
  </g>
  <g
     style="fill:#c2c2c2;fill-opacity:1;stroke:#c2c2c2;stroke-width:0;stroke-linecap:round;stroke-linejoin:round;stroke-opacity:1"
     id="g56402"
     transform="translate(-68.0492,-40.4)">
    <circle
       cx="77.400002"
       cy="156.60001"
       r="0.2"
       id="circle56398" />
    <circle
       cx="127.4"
       cy="156.60001"
       r="0.2"
       id="circle56400" />
  </g>
  <g
     style="fill:#c2c2c2;fill-opacity:1;stroke:#c2c2c2;stroke-width:0.4;stroke-linecap:round;stroke-linejoin:round;stroke-opacity:1"
     id="g56404"
     transform="translate(-68.0492,-40.4)" />
  <g
     style="fill:#c2c2c2;fill-opacity:0;stroke:#c2c2c2;stroke-width:0.4;stroke-linecap:round;stroke-linejoin:round;stroke-opacity:1"
     id="g56612"
     transform="translate(-68.0492,-40.4)">
    <path
       d="M 77.4,156.6 H 95.5167"
       id="path56406" />
    <path
       d="M 109.2833,156.6 H 127.4"
       id="path56408" />
    <path
       d="m 77.4,156.6 1.1265,-0.5864"
       id="path56410" />
    <path
       d="m 77.4,156.6 1.1265,0.5864"
       id="path56412" />
    <path
       d="m 127.4,156.6 -1.1265,0.5864"
       id="path56414" />
    <path
       d="m 127.4,156.6 -1.1265,-0.5864"
       id="path56416" />
    <circle
       cx="77.400002"
       cy="46.599998"
       r="1.6"
       id="circle56418" />
    <circle
       cx="77.400002"
       cy="156.60001"
       r="1.6"
       id="circle56420" />
    <circle
       cx="127.4"
       cy="46.599998"
       r="1.6"
       id="circle56422" />
    <circle
       cx="127.4"
       cy="156.60001"
       r="1.6"
       id="circle56424" />
    <g
       id="g56426" />
    <g
       id="g56428" />
    <g
       id="g56430" />
    <g
       id="g56432" />
    <g
       id="g56434" />
    <g
       id="g56436" />
    <g
       id="g56438" />
    <g
       id="g56440" />
    <g
       id="g56442" />
    <g
       id="g56444" />
    <g
       id="g56446" />
    <g
       id="g56448" />
    <g
       id="g56450" />
    <g
       id="g56452" />
    <g
       id="g56454" />
    <g
       id="g56456" />
    <g
       id="g56458" />
    <g
       id="g56460" />
    <g
       id="g56462" />
    <g
       id="g56464" />
    <g
       id="g56466" />
    <g
       id="g56468" />
    <g
       id="g56470" />
    <g
       id="g56472" />
    <g
       id="g56474" />
    <g
       id="g56476" />
    <g
       id="g56478" />
    <g
       id="g56480" />
    <g
       id="g56482" />
    <g
       id="g56484" />
    <g
       id="g56486" />
    <g
       id="g56488" />
    <g
       id="g56490" />
    <g
       id="g56492" />
    <g
       id="g56494" />
    <g
       id="g56496" />
    <g
       id="g56498" />
    <g
       id="g56500" />
    <g
       id="g56502" />
    <g
       id="g56504" />
    <g
       id="g56506" />
    <g
       id="g56508" />
    <g
       id="g56510" />
    <g
       id="g56512" />
    <g
       id="g56514" />
    <g
       id="g56516" />
    <g
       id="g56518" />
    <g
       id="g56520" />
    <g
       id="g56522" />
    <g
       id="g56524" />
    <g
       id="g56526" />
    <g
       id="g56528" />
    <g
       id="g56530" />
    <g
       id="g56532" />
    <g
       id="g56534" />
    <g
       id="g56536" />
    <g
       id="g56538" />
    <g
       id="g56540" />
    <g
       id="g56542" />
    <g
       id="g56544" />
    <g
       id="g56546" />
    <g
       id="g56548" />
    <g
       id="g56550" />
    <g
       id="g56552" />
    <g
       id="g56554" />
    <g
       id="g56556" />
    <g
       id="g56558" />
    <g
       id="g56560" />
    <g
       id="g56562" />
    <g
       id="g56564" />
    <g
       id="g56566" />
    <g
       id="g56568" />
    <g
       id="g56570" />
    <g
       id="g56572" />
    <g
       id="g56574" />
    <g
       id="g56576" />
    <g
       id="g56578" />
    <g
       id="g56580" />
    <g
       id="g56582" />
    <g
       id="g56584" />
    <g
       id="g56586" />
    <g
       id="g56588" />
    <g
       id="g56590" />
    <g
       id="g56592" />
    <g
       id="g56594" />
    <g
       id="g56596" />
    <g
       id="g56598" />
    <g
       id="g56600" />
    <g
       id="g56602" />
    <g
       id="g56604" />
    <g
       id="g56606" />
    <g
       id="g56608" />
    <g
       id="g56610" />
  </g>
  <g
     style="fill:#000000;fill-opacity:0;stroke:#000000;stroke-width:0.4;stroke-linecap:round;stroke-linejoin:round;stroke-opacity:1"
     id="g56614"
     transform="translate(-68.0492,-40.4)" />
  <g
     style="fill:#d0d2cd;fill-opacity:0;stroke:#d0d2cd;stroke-width:0.4;stroke-linecap:round;stroke-linejoin:round;stroke-opacity:1"
     id="g56616"
     transform="translate(-68.0492,-40.4)" />
  <g
     style="fill:#d0d2cd;fill-opacity:0;stroke:#d0d2cd;stroke-width:0.1;stroke-linecap:round;stroke-linejoin:round;stroke-opacity:1"
     id="g56820"
     transform="translate(-68.0492,-40.4)">
    <path
       d="m 77.4,41.6 a 5,5 0 0 0 -5,5"
       id="path56618" />
    <path
       d="M 72.4,156.6 V 46.6"
       id="path56620" />
    <path
       d="m 132.4,46.6 v 110"
       id="path56622" />
    <path
       d="m 127.4,161.6 a 5,5 0 0 0 5,-5"
       id="path56624" />
    <path
       d="m 132.4,46.6 a 5,5 0 0 0 -5,-5"
       id="path56626" />
    <path
       d="m 72.4,156.6 a 5,5 0 0 0 5,5"
       id="path56628" />
    <path
       d="m 127.4,161.6 h -50"
       id="path56630" />
    <path
       d="m 77.4,41.6 h 50"
       id="path56632" />
    <g
       id="g56634" />
    <g
       id="g56636" />
    <g
       id="g56638" />
    <g
       id="g56640" />
    <g
       id="g56642" />
    <g
       id="g56644" />
    <g
       id="g56646" />
    <g
       id="g56648" />
    <g
       id="g56650" />
    <g
       id="g56652" />
    <g
       id="g56654" />
    <g
       id="g56656" />
    <g
       id="g56658" />
    <g
       id="g56660" />
    <g
       id="g56662" />
    <g
       id="g56664" />
    <g
       id="g56666" />
    <g
       id="g56668" />
    <g
       id="g56670" />
    <g
       id="g56672" />
    <g
       id="g56674" />
    <g
       id="g56676" />
    <g
       id="g56678" />
    <g
       id="g56680" />
    <g
       id="g56682" />
    <g
       id="g56684" />
    <g
       id="g56686" />
    <g
       id="g56688" />
    <g
       id="g56690" />
    <g
       id="g56692" />
    <g
       id="g56694" />
    <g
       id="g56696" />
    <g
       id="g56698" />
    <g
       id="g56700" />
    <g
       id="g56702" />
    <g
       id="g56704" />
    <g
       id="g56706" />
    <g
       id="g56708" />
    <g
       id="g56710" />
    <g
       id="g56712" />
    <g
       id="g56714" />
    <g
       id="g56716" />
    <g
       id="g56718" />
    <g
       id="g56720" />
    <g
       id="g56722" />
    <g
       id="g56724" />
    <g
       id="g56726" />
    <g
       id="g56728" />
    <g
       id="g56730" />
    <g
       id="g56732" />
    <g
       id="g56734" />
    <g
       id="g56736" />
    <g
       id="g56738" />
    <g
       id="g56740" />
    <g
       id="g56742" />
    <g
       id="g56744" />
    <g
       id="g56746" />
    <g
       id="g56748" />
    <g
       id="g56750" />
    <g
       id="g56752" />
    <g
       id="g56754" />
    <g
       id="g56756" />
    <g
       id="g56758" />
    <g
       id="g56760" />
    <g
       id="g56762" />
    <g
       id="g56764" />
    <g
       id="g56766" />
    <g
       id="g56768" />
    <g
       id="g56770" />
    <g
       id="g56772" />
    <g
       id="g56774" />
    <g
       id="g56776" />
    <g
       id="g56778" />
    <g
       id="g56780" />
    <g
       id="g56782" />
    <g
       id="g56784" />
    <g
       id="g56786" />
    <g
       id="g56788" />
    <g
       id="g56790" />
    <g
       id="g56792" />
    <g
       id="g56794" />
    <g
       id="g56796" />
    <g
       id="g56798" />
    <g
       id="g56800" />
    <g
       id="g56802" />
    <g
       id="g56804" />
    <g
       id="g56806" />
    <g
       id="g56808" />
    <g
       id="g56810" />
    <g
       id="g56812" />
    <g
       id="g56814" />
    <g
       id="g56816" />
    <g
       id="g56818" />
  </g>
</svg>
