<?xml version="1.0" encoding="UTF-8" standalone="no"?>
<svg
   version="1.1"
   width="64.050797mm"
   height="163.97667mm"
   viewBox="0 0 64.050797 163.97667"
   id="svg57812"
   xmlns="http://www.w3.org/2000/svg"
   xmlns:svg="http://www.w3.org/2000/svg">
  <defs
     id="defs57816" />
  <title
     id="title56468">SVG Image created as mouse-joystick-pcb-User_Drawings.svg date 2024/10/24 09:46:00 </title>
  <desc
     id="desc56470">Image generated by PCBNEW </desc>
  <g
     style="fill:#000000;fill-opacity:1;stroke:#000000;stroke-linecap:round;stroke-linejoin:round;stroke-opacity:1"
     id="g56472"
     transform="translate(-68.5492,-21.4)" />
  <g
     style="fill:#000000;fill-opacity:0;stroke:#000000;stroke-width:0;stroke-linecap:round;stroke-linejoin:round;stroke-opacity:1"
     id="g56474"
     transform="translate(-68.5492,-21.4)" />
  <g
     style="fill:#c2c2c2;fill-opacity:0;stroke:#c2c2c2;stroke-width:0;stroke-linecap:round;stroke-linejoin:round;stroke-opacity:1"
     id="g56476"
     transform="translate(-68.5492,-21.4)" />
  <g
     style="fill:#c2c2c2;fill-opacity:0;stroke:#c2c2c2;stroke-width:0.4;stroke-linecap:round;stroke-linejoin:round;stroke-opacity:1"
     id="g56502"
     transform="translate(-68.5492,-21.4)">
    <path
       style="fill:none;fill-opacity:0;stroke:#c2c2c2;stroke-width:0.4;stroke-linecap:round;stroke-linejoin:round;stroke-opacity:1"
       d="m 82.4,21.6 h 20 v 75 h -20 z"
       id="path56478" />
    <path
       d="m 132.4,26.6 v 150"
       id="path56480" />
    <path
       d="m 77.4,21.6 a 5,5 0 0 0 -5,5"
       id="path56482" />
    <path
       d="m 77.4,21.6 h 50"
       id="path56484" />
    <path
       d="m 94.9,101.6 h 15"
       id="path56486" />
    <path
       d="M 72.4,176.6 V 26.6"
       id="path56488" />
    <path
       d="m 127.4,181.6 a 5,5 0 0 0 5,-5"
       id="path56490" />
    <path
       d="m 102.4,109.1 v -15"
       id="path56492" />
    <path
       d="m 92.4,94.1 v -70"
       id="path56494" />
    <path
       d="m 132.4,26.6 a 5,5 0 0 0 -5,-5"
       id="path56496" />
    <path
       d="m 127.4,181.6 h -50"
       id="path56498" />
    <path
       d="m 72.4,176.6 a 5,5 0 0 0 5,5"
       id="path56500" />
  </g>
  <g
     style="fill:#c2c2c2;fill-opacity:0;stroke:#c2c2c2;stroke-width:0.5;stroke-linecap:round;stroke-linejoin:round;stroke-opacity:1"
     id="g56618"
     transform="translate(-68.5492,-21.4)">
    <text
       x="87.400002"
       y="172.60001"
       textLength="12.719"
       font-size="2.6667px"
       lengthAdjust="spacingAndGlyphs"
       text-anchor="middle"
       opacity="0"
       id="text56504">3.2 mm</text>
    <g
       class="stroked-text"
       id="g56616">
      <desc
         id="desc56506">3.2 mm</desc>
      <path
         d="m 81.8762,170.4992 h 1.2381"
         id="path56508" />
      <path
         d="m 83.1143,170.4992 -0.6667,0.7619"
         id="path56510" />
      <path
         d="m 82.4476,171.2611 h 0.2857"
         id="path56512" />
      <path
         d="m 82.7333,171.2611 0.1905,0.0953"
         id="path56514" />
      <path
         d="m 82.9238,171.3564 0.0952,0.0952"
         id="path56516" />
      <path
         d="m 83.019,171.4516 0.0953,0.1905"
         id="path56518" />
      <path
         d="m 83.1143,171.6421 v 0.4762"
         id="path56520" />
      <path
         d="m 83.1143,172.1183 -0.0953,0.1905"
         id="path56522" />
      <path
         d="m 83.019,172.3088 -0.0952,0.0952"
         id="path56524" />
      <path
         d="m 82.9238,172.404 -0.1905,0.0952"
         id="path56526" />
      <path
         d="M 82.7333,172.4992 H 82.1619"
         id="path56528" />
      <path
         d="M 82.1619,172.4992 81.9714,172.404"
         id="path56530" />
      <path
         d="m 81.9714,172.404 -0.0952,-0.0952"
         id="path56532" />
      <path
         d="m 83.9714,172.3088 0.0953,0.0952"
         id="path56534" />
      <path
         d="m 84.0667,172.404 -0.0953,0.0952"
         id="path56536" />
      <path
         d="M 83.9714,172.4992 83.8762,172.404"
         id="path56538" />
      <path
         d="m 83.8762,172.404 0.0952,-0.0952"
         id="path56540" />
      <path
         d="m 83.9714,172.3088 v 0.1904"
         id="path56542" />
      <path
         d="m 84.8286,170.6897 0.0952,-0.0952"
         id="path56544" />
      <path
         d="m 84.9238,170.5945 0.1905,-0.0953"
         id="path56546" />
      <path
         d="m 85.1143,170.4992 h 0.4762"
         id="path56548" />
      <path
         d="m 85.5905,170.4992 0.1905,0.0953"
         id="path56550" />
      <path
         d="m 85.781,170.5945 0.0952,0.0952"
         id="path56552" />
      <path
         d="m 85.8762,170.6897 0.0952,0.1905"
         id="path56554" />
      <path
         d="m 85.9714,170.8802 v 0.1905"
         id="path56556" />
      <path
         d="m 85.9714,171.0707 -0.0952,0.2857"
         id="path56558" />
      <path
         d="m 85.8762,171.3564 -1.1429,1.1428"
         id="path56560" />
      <path
         d="m 84.7333,172.4992 h 1.2381"
         id="path56562" />
      <path
         d="m 88.3524,172.4992 v -1.3333"
         id="path56564" />
      <path
         d="m 88.3524,171.3564 0.0952,-0.0953"
         id="path56566" />
      <path
         d="m 88.4476,171.2611 0.1905,-0.0952"
         id="path56568" />
      <path
         d="m 88.6381,171.1659 h 0.2857"
         id="path56570" />
      <path
         d="m 88.9238,171.1659 0.1905,0.0952"
         id="path56572" />
      <path
         d="m 89.1143,171.2611 0.0952,0.1905"
         id="path56574" />
      <path
         d="m 89.2095,171.4516 v 1.0476"
         id="path56576" />
      <path
         d="m 89.2095,171.4516 0.0953,-0.1905"
         id="path56578" />
      <path
         d="m 89.3048,171.2611 0.1904,-0.0952"
         id="path56580" />
      <path
         d="M 89.4952,171.1659 H 89.781"
         id="path56582" />
      <path
         d="m 89.781,171.1659 0.1904,0.0952"
         id="path56584" />
      <path
         d="m 89.9714,171.2611 0.0953,0.1905"
         id="path56586" />
      <path
         d="m 90.0667,171.4516 v 1.0476"
         id="path56588" />
      <path
         d="m 91.019,172.4992 v -1.3333"
         id="path56590" />
      <path
         d="m 91.019,171.3564 0.0953,-0.0953"
         id="path56592" />
      <path
         d="m 91.1143,171.2611 0.1905,-0.0952"
         id="path56594" />
      <path
         d="m 91.3048,171.1659 h 0.2857"
         id="path56596" />
      <path
         d="m 91.5905,171.1659 0.1905,0.0952"
         id="path56598" />
      <path
         d="m 91.781,171.2611 0.0952,0.1905"
         id="path56600" />
      <path
         d="m 91.8762,171.4516 v 1.0476"
         id="path56602" />
      <path
         d="m 91.8762,171.4516 0.0952,-0.1905"
         id="path56604" />
      <path
         d="m 91.9714,171.2611 0.1905,-0.0952"
         id="path56606" />
      <path
         d="m 92.1619,171.1659 h 0.2857"
         id="path56608" />
      <path
         d="m 92.4476,171.1659 0.1905,0.0952"
         id="path56610" />
      <path
         d="m 92.6381,171.2611 0.0952,0.1905"
         id="path56612" />
      <path
         d="m 92.7333,171.4516 v 1.0476"
         id="path56614" />
    </g>
  </g>
  <g
     style="fill:#c2c2c2;fill-opacity:0;stroke:#c2c2c2;stroke-width:0.4;stroke-linecap:round;stroke-linejoin:round;stroke-opacity:1"
     id="g56636"
     transform="translate(-68.5492,-21.4)">
    <path
       d="m 75.8,176.1 v -5.0864"
       id="path56620" />
    <path
       d="M 79,171.0136 V 176.1"
       id="path56622" />
    <path
       d="M 75.8,171.6 H 79"
       id="path56624" />
    <path
       d="M 75.8,171.6 H 79"
       id="path56626" />
    <path
       d="m 75.8,171.6 1.1265,-0.5864"
       id="path56628" />
    <path
       d="m 75.8,171.6 1.1265,0.5864"
       id="path56630" />
    <path
       d="m 79,171.6 -1.1265,0.5864"
       id="path56632" />
    <path
       d="m 79,171.6 -1.1265,-0.5864"
       id="path56634" />
  </g>
  <g
     style="fill:#c2c2c2;fill-opacity:0;stroke:#c2c2c2;stroke-width:0.5;stroke-linecap:round;stroke-linejoin:round;stroke-opacity:1"
     id="g56746"
     transform="translate(-68.5492,-21.4)">
    <text
       x="97.400002"
       y="120.1"
       textLength="11.7667"
       font-size="2.6667px"
       lengthAdjust="spacingAndGlyphs"
       text-anchor="middle"
       opacity="0"
       id="text56638">10 mm</text>
    <g
       class="stroked-text"
       id="g56744">
      <desc
         id="desc56640">10 mm</desc>
      <path
         d="M 93.5905,119.9992 H 92.4476"
         id="path56642" />
      <path
         d="m 93.019,119.9992 v -2"
         id="path56644" />
      <path
         d="m 93.019,117.9992 -0.1904,0.2858"
         id="path56646" />
      <path
         d="m 92.8286,118.285 -0.1905,0.1904"
         id="path56648" />
      <path
         d="m 92.6381,118.4754 -0.1905,0.0953"
         id="path56650" />
      <path
         d="M 94.8286,117.9992 H 95.019"
         id="path56652" />
      <path
         d="m 95.019,117.9992 0.1905,0.0953"
         id="path56654" />
      <path
         d="m 95.2095,118.0945 0.0953,0.0952"
         id="path56656" />
      <path
         d="M 95.3048,118.1897 95.4,118.3802"
         id="path56658" />
      <path
         d="m 95.4,118.3802 0.0952,0.3809"
         id="path56660" />
      <path
         d="m 95.4952,118.7611 v 0.4762"
         id="path56662" />
      <path
         d="M 95.4952,119.2373 95.4,119.6183"
         id="path56664" />
      <path
         d="m 95.4,119.6183 -0.0952,0.1905"
         id="path56666" />
      <path
         d="m 95.3048,119.8088 -0.0953,0.0952"
         id="path56668" />
      <path
         d="m 95.2095,119.904 -0.1905,0.0952"
         id="path56670" />
      <path
         d="M 95.019,119.9992 H 94.8286"
         id="path56672" />
      <path
         d="M 94.8286,119.9992 94.6381,119.904"
         id="path56674" />
      <path
         d="m 94.6381,119.904 -0.0952,-0.0952"
         id="path56676" />
      <path
         d="m 94.5429,119.8088 -0.0953,-0.1905"
         id="path56678" />
      <path
         d="m 94.4476,119.6183 -0.0952,-0.381"
         id="path56680" />
      <path
         d="m 94.3524,119.2373 v -0.4762"
         id="path56682" />
      <path
         d="m 94.3524,118.7611 0.0952,-0.3809"
         id="path56684" />
      <path
         d="m 94.4476,118.3802 0.0953,-0.1905"
         id="path56686" />
      <path
         d="m 94.5429,118.1897 0.0952,-0.0952"
         id="path56688" />
      <path
         d="m 94.6381,118.0945 0.1905,-0.0953"
         id="path56690" />
      <path
         d="m 97.8762,119.9992 v -1.3333"
         id="path56692" />
      <path
         d="m 97.8762,118.8564 0.0952,-0.0953"
         id="path56694" />
      <path
         d="m 97.9714,118.7611 0.1905,-0.0952"
         id="path56696" />
      <path
         d="m 98.1619,118.6659 h 0.2857"
         id="path56698" />
      <path
         d="m 98.4476,118.6659 0.1905,0.0952"
         id="path56700" />
      <path
         d="m 98.6381,118.7611 0.0952,0.1905"
         id="path56702" />
      <path
         d="m 98.7333,118.9516 v 1.0476"
         id="path56704" />
      <path
         d="m 98.7333,118.9516 0.0953,-0.1905"
         id="path56706" />
      <path
         d="m 98.8286,118.7611 0.1904,-0.0952"
         id="path56708" />
      <path
         d="m 99.019,118.6659 h 0.2858"
         id="path56710" />
      <path
         d="m 99.3048,118.6659 0.1904,0.0952"
         id="path56712" />
      <path
         d="m 99.4952,118.7611 0.0953,0.1905"
         id="path56714" />
      <path
         d="m 99.5905,118.9516 v 1.0476"
         id="path56716" />
      <path
         d="m 100.5429,119.9992 v -1.3333"
         id="path56718" />
      <path
         d="m 100.5429,118.8564 0.0952,-0.0953"
         id="path56720" />
      <path
         d="m 100.6381,118.7611 0.1905,-0.0952"
         id="path56722" />
      <path
         d="m 100.8286,118.6659 h 0.2857"
         id="path56724" />
      <path
         d="m 101.1143,118.6659 0.1905,0.0952"
         id="path56726" />
      <path
         d="m 101.3048,118.7611 0.0952,0.1905"
         id="path56728" />
      <path
         d="m 101.4,118.9516 v 1.0476"
         id="path56730" />
      <path
         d="m 101.4,118.9516 0.0952,-0.1905"
         id="path56732" />
      <path
         d="m 101.4952,118.7611 0.1905,-0.0952"
         id="path56734" />
      <path
         d="m 101.6857,118.6659 h 0.2857"
         id="path56736" />
      <path
         d="m 101.9714,118.6659 0.1905,0.0952"
         id="path56738" />
      <path
         d="m 102.1619,118.7611 0.0952,0.1905"
         id="path56740" />
      <path
         d="m 102.2571,118.9516 v 1.0476"
         id="path56742" />
    </g>
  </g>
  <g
     style="fill:#c2c2c2;fill-opacity:0;stroke:#c2c2c2;stroke-width:0.4;stroke-linecap:round;stroke-linejoin:round;stroke-opacity:1"
     id="g56760"
     transform="translate(-68.5492,-21.4)">
    <path
       d="m 92.4,102.1 v 15.0864"
       id="path56748" />
    <path
       d="M 102.4,117.1864 V 102.1"
       id="path56750" />
    <path
       d="m 92.4,116.6 1.1265,-0.5864"
       id="path56752" />
    <path
       d="m 92.4,116.6 1.1265,0.5864"
       id="path56754" />
    <path
       d="m 102.4,116.6 -1.1265,0.5864"
       id="path56756" />
    <path
       d="m 102.4,116.6 -1.1265,-0.5864"
       id="path56758" />
  </g>
  <g
     style="fill:#c2c2c2;fill-opacity:0;stroke:#c2c2c2;stroke-width:0.5;stroke-linecap:round;stroke-linejoin:round;stroke-opacity:1"
     id="g56902"
     transform="translate(-68.5492,-21.4)">
    <text
       x="102.4"
       y="185.10001"
       textLength="11.7667"
       font-size="2.6667px"
       lengthAdjust="spacingAndGlyphs"
       text-anchor="middle"
       opacity="0"
       id="text56762">60 mm</text>
    <g
       class="stroked-text"
       id="g56900">
      <desc
         id="desc56764">60 mm</desc>
      <path
         d="M 98.4,182.9992 H 98.019"
         id="path56766" />
      <path
         d="m 98.019,182.9992 -0.1904,0.0953"
         id="path56768" />
      <path
         d="m 97.8286,183.0945 -0.0953,0.0952"
         id="path56770" />
      <path
         d="m 97.7333,183.1897 -0.1904,0.2857"
         id="path56772" />
      <path
         d="m 97.5429,183.4754 -0.0953,0.381"
         id="path56774" />
      <path
         d="m 97.4476,183.8564 v 0.7619"
         id="path56776" />
      <path
         d="m 97.4476,184.6183 0.0953,0.1905"
         id="path56778" />
      <path
         d="m 97.5429,184.8088 0.0952,0.0952"
         id="path56780" />
      <path
         d="m 97.6381,184.904 0.1905,0.0952"
         id="path56782" />
      <path
         d="m 97.8286,184.9992 h 0.3809"
         id="path56784" />
      <path
         d="M 98.2095,184.9992 98.4,184.904"
         id="path56786" />
      <path
         d="m 98.4,184.904 0.0952,-0.0952"
         id="path56788" />
      <path
         d="m 98.4952,184.8088 0.0953,-0.1905"
         id="path56790" />
      <path
         d="m 98.5905,184.6183 v -0.4762"
         id="path56792" />
      <path
         d="m 98.5905,184.1421 -0.0953,-0.1905"
         id="path56794" />
      <path
         d="M 98.4952,183.9516 98.4,183.8564"
         id="path56796" />
      <path
         d="m 98.4,183.8564 -0.1905,-0.0953"
         id="path56798" />
      <path
         d="M 98.2095,183.7611 H 97.8286"
         id="path56800" />
      <path
         d="m 97.8286,183.7611 -0.1905,0.0953"
         id="path56802" />
      <path
         d="m 97.6381,183.8564 -0.0952,0.0952"
         id="path56804" />
      <path
         d="m 97.5429,183.9516 -0.0953,0.1905"
         id="path56806" />
      <path
         d="m 99.8286,182.9992 h 0.1904"
         id="path56808" />
      <path
         d="m 100.019,182.9992 0.1905,0.0953"
         id="path56810" />
      <path
         d="m 100.2095,183.0945 0.0953,0.0952"
         id="path56812" />
      <path
         d="m 100.3048,183.1897 0.0952,0.1905"
         id="path56814" />
      <path
         d="m 100.4,183.3802 0.0952,0.3809"
         id="path56816" />
      <path
         d="m 100.4952,183.7611 v 0.4762"
         id="path56818" />
      <path
         d="m 100.4952,184.2373 -0.0952,0.381"
         id="path56820" />
      <path
         d="m 100.4,184.6183 -0.0952,0.1905"
         id="path56822" />
      <path
         d="m 100.3048,184.8088 -0.0953,0.0952"
         id="path56824" />
      <path
         d="m 100.2095,184.904 -0.1905,0.0952"
         id="path56826" />
      <path
         d="M 100.019,184.9992 H 99.8286"
         id="path56828" />
      <path
         d="M 99.8286,184.9992 99.6381,184.904"
         id="path56830" />
      <path
         d="m 99.6381,184.904 -0.0952,-0.0952"
         id="path56832" />
      <path
         d="m 99.5429,184.8088 -0.0953,-0.1905"
         id="path56834" />
      <path
         d="m 99.4476,184.6183 -0.0952,-0.381"
         id="path56836" />
      <path
         d="m 99.3524,184.2373 v -0.4762"
         id="path56838" />
      <path
         d="m 99.3524,183.7611 0.0952,-0.3809"
         id="path56840" />
      <path
         d="m 99.4476,183.3802 0.0953,-0.1905"
         id="path56842" />
      <path
         d="m 99.5429,183.1897 0.0952,-0.0952"
         id="path56844" />
      <path
         d="m 99.6381,183.0945 0.1905,-0.0953"
         id="path56846" />
      <path
         d="m 102.8762,184.9992 v -1.3333"
         id="path56848" />
      <path
         d="m 102.8762,183.8564 0.0952,-0.0953"
         id="path56850" />
      <path
         d="m 102.9714,183.7611 0.1905,-0.0952"
         id="path56852" />
      <path
         d="m 103.1619,183.6659 h 0.2857"
         id="path56854" />
      <path
         d="m 103.4476,183.6659 0.1905,0.0952"
         id="path56856" />
      <path
         d="m 103.6381,183.7611 0.0952,0.1905"
         id="path56858" />
      <path
         d="m 103.7333,183.9516 v 1.0476"
         id="path56860" />
      <path
         d="m 103.7333,183.9516 0.0953,-0.1905"
         id="path56862" />
      <path
         d="m 103.8286,183.7611 0.1904,-0.0952"
         id="path56864" />
      <path
         d="m 104.019,183.6659 h 0.2858"
         id="path56866" />
      <path
         d="m 104.3048,183.6659 0.1904,0.0952"
         id="path56868" />
      <path
         d="m 104.4952,183.7611 0.0953,0.1905"
         id="path56870" />
      <path
         d="m 104.5905,183.9516 v 1.0476"
         id="path56872" />
      <path
         d="m 105.5429,184.9992 v -1.3333"
         id="path56874" />
      <path
         d="m 105.5429,183.8564 0.0952,-0.0953"
         id="path56876" />
      <path
         d="m 105.6381,183.7611 0.1905,-0.0952"
         id="path56878" />
      <path
         d="m 105.8286,183.6659 h 0.2857"
         id="path56880" />
      <path
         d="m 106.1143,183.6659 0.1905,0.0952"
         id="path56882" />
      <path
         d="m 106.3048,183.7611 0.0952,0.1905"
         id="path56884" />
      <path
         d="m 106.4,183.9516 v 1.0476"
         id="path56886" />
      <path
         d="m 106.4,183.9516 0.0952,-0.1905"
         id="path56888" />
      <path
         d="m 106.4952,183.7611 0.1905,-0.0952"
         id="path56890" />
      <path
         d="m 106.6857,183.6659 h 0.2857"
         id="path56892" />
      <path
         d="m 106.9714,183.6659 0.1905,0.0952"
         id="path56894" />
      <path
         d="m 107.1619,183.7611 0.0952,0.1905"
         id="path56896" />
      <path
         d="m 107.2571,183.9516 v 1.0476"
         id="path56898" />
    </g>
  </g>
  <g
     style="fill:#c2c2c2;fill-opacity:0;stroke:#c2c2c2;stroke-width:0.4;stroke-linecap:round;stroke-linejoin:round;stroke-opacity:1"
     id="g56920"
     transform="translate(-68.5492,-21.4)">
    <path
       d="m 132.4,177.1 v 7.5864"
       id="path56904" />
    <path
       d="M 72.4,184.6864 V 177.6"
       id="path56906" />
    <path
       d="M 132.4,184.1 H 109.2833"
       id="path56908" />
    <path
       d="M 95.5167,184.1 H 72.4"
       id="path56910" />
    <path
       d="m 132.4,184.1 -1.1265,0.5864"
       id="path56912" />
    <path
       d="m 132.4,184.1 -1.1265,-0.5864"
       id="path56914" />
    <path
       d="m 72.4,184.1 1.1265,-0.5864"
       id="path56916" />
    <path
       d="m 72.4,184.1 1.1265,0.5864"
       id="path56918" />
  </g>
  <g
     style="fill:#c2c2c2;fill-opacity:0;stroke:#c2c2c2;stroke-width:0.5;stroke-linecap:round;stroke-linejoin:round;stroke-opacity:1"
     id="g57074"
     transform="translate(-68.5492,-21.4)">
    <g
       transform="rotate(-90,69.9,101.6)"
       id="g56924">
      <text
         x="69.900002"
         y="102.6"
         textLength="13.6714"
         font-size="2.6667px"
         lengthAdjust="spacingAndGlyphs"
         text-anchor="middle"
         opacity="0"
         id="text56922">160 mm</text>
    </g>
    <g
       class="stroked-text"
       id="g57072">
      <desc
         id="desc56926">160 mm</desc>
      <path
         d="m 70.7992,106.3619 v 1.1429"
         id="path56928" />
      <path
         d="m 70.7992,106.9333 h -2"
         id="path56930" />
      <path
         d="m 68.7992,106.9333 0.2858,0.1905"
         id="path56932" />
      <path
         d="m 69.085,107.1238 0.1904,0.1905"
         id="path56934" />
      <path
         d="m 69.2754,107.3143 0.0953,0.1905"
         id="path56936" />
      <path
         d="m 68.7992,104.6476 v 0.381"
         id="path56938" />
      <path
         d="m 68.7992,105.0286 0.0953,0.1904"
         id="path56940" />
      <path
         d="m 68.8945,105.219 0.0952,0.0953"
         id="path56942" />
      <path
         d="m 68.9897,105.3143 0.2857,0.1905"
         id="path56944" />
      <path
         d="m 69.2754,105.5048 0.381,0.0952"
         id="path56946" />
      <path
         d="m 69.6564,105.6 h 0.7619"
         id="path56948" />
      <path
         d="m 70.4183,105.6 0.1905,-0.0952"
         id="path56950" />
      <path
         d="m 70.6088,105.5048 0.0952,-0.0953"
         id="path56952" />
      <path
         d="m 70.704,105.4095 0.0952,-0.1905"
         id="path56954" />
      <path
         d="m 70.7992,105.219 v -0.3809"
         id="path56956" />
      <path
         d="M 70.7992,104.8381 70.704,104.6476"
         id="path56958" />
      <path
         d="m 70.704,104.6476 -0.0952,-0.0952"
         id="path56960" />
      <path
         d="m 70.6088,104.5524 -0.1905,-0.0953"
         id="path56962" />
      <path
         d="M 70.4183,104.4571 H 69.9421"
         id="path56964" />
      <path
         d="m 69.9421,104.4571 -0.1905,0.0953"
         id="path56966" />
      <path
         d="m 69.7516,104.5524 -0.0952,0.0952"
         id="path56968" />
      <path
         d="m 69.6564,104.6476 -0.0953,0.1905"
         id="path56970" />
      <path
         d="m 69.5611,104.8381 v 0.3809"
         id="path56972" />
      <path
         d="m 69.5611,105.219 0.0953,0.1905"
         id="path56974" />
      <path
         d="m 69.6564,105.4095 0.0952,0.0953"
         id="path56976" />
      <path
         d="M 69.7516,105.5048 69.9421,105.6"
         id="path56978" />
      <path
         d="m 68.7992,103.219 v -0.1904"
         id="path56980" />
      <path
         d="m 68.7992,103.0286 0.0953,-0.1905"
         id="path56982" />
      <path
         d="m 68.8945,102.8381 0.0952,-0.0952"
         id="path56984" />
      <path
         d="m 68.9897,102.7429 0.1905,-0.0953"
         id="path56986" />
      <path
         d="m 69.1802,102.6476 0.3809,-0.0952"
         id="path56988" />
      <path
         d="m 69.5611,102.5524 h 0.4762"
         id="path56990" />
      <path
         d="m 70.0373,102.5524 0.381,0.0952"
         id="path56992" />
      <path
         d="m 70.4183,102.6476 0.1905,0.0953"
         id="path56994" />
      <path
         d="m 70.6088,102.7429 0.0952,0.0952"
         id="path56996" />
      <path
         d="m 70.704,102.8381 0.0952,0.1905"
         id="path56998" />
      <path
         d="m 70.7992,103.0286 v 0.1904"
         id="path57000" />
      <path
         d="m 70.7992,103.219 -0.0952,0.1905"
         id="path57002" />
      <path
         d="m 70.704,103.4095 -0.0952,0.0953"
         id="path57004" />
      <path
         d="M 70.6088,103.5048 70.4183,103.6"
         id="path57006" />
      <path
         d="m 70.4183,103.6 -0.381,0.0952"
         id="path57008" />
      <path
         d="M 70.0373,103.6952 H 69.5611"
         id="path57010" />
      <path
         d="M 69.5611,103.6952 69.1802,103.6"
         id="path57012" />
      <path
         d="m 69.1802,103.6 -0.1905,-0.0952"
         id="path57014" />
      <path
         d="m 68.9897,103.5048 -0.0952,-0.0953"
         id="path57016" />
      <path
         d="M 68.8945,103.4095 68.7992,103.219"
         id="path57018" />
      <path
         d="M 70.7992,100.1714 H 69.4659"
         id="path57020" />
      <path
         d="m 69.6564,100.1714 -0.0953,-0.0952"
         id="path57022" />
      <path
         d="M 69.5611,100.0762 69.4659,99.8857"
         id="path57024" />
      <path
         d="M 69.4659,99.8857 V 99.6"
         id="path57026" />
      <path
         d="m 69.4659,99.6 0.0952,-0.1905"
         id="path57028" />
      <path
         d="m 69.5611,99.4095 0.1905,-0.0952"
         id="path57030" />
      <path
         d="m 69.7516,99.3143 h 1.0476"
         id="path57032" />
      <path
         d="M 69.7516,99.3143 69.5611,99.219"
         id="path57034" />
      <path
         d="M 69.5611,99.219 69.4659,99.0286"
         id="path57036" />
      <path
         d="M 69.4659,99.0286 V 98.7429"
         id="path57038" />
      <path
         d="m 69.4659,98.7429 0.0952,-0.1905"
         id="path57040" />
      <path
         d="m 69.5611,98.5524 0.1905,-0.0953"
         id="path57042" />
      <path
         d="m 69.7516,98.4571 h 1.0476"
         id="path57044" />
      <path
         d="M 70.7992,97.5048 H 69.4659"
         id="path57046" />
      <path
         d="M 69.6564,97.5048 69.5611,97.4095"
         id="path57048" />
      <path
         d="M 69.5611,97.4095 69.4659,97.219"
         id="path57050" />
      <path
         d="M 69.4659,97.219 V 96.9333"
         id="path57052" />
      <path
         d="m 69.4659,96.9333 0.0952,-0.1904"
         id="path57054" />
      <path
         d="m 69.5611,96.7429 0.1905,-0.0953"
         id="path57056" />
      <path
         d="m 69.7516,96.6476 h 1.0476"
         id="path57058" />
      <path
         d="M 69.7516,96.6476 69.5611,96.5524"
         id="path57060" />
      <path
         d="M 69.5611,96.5524 69.4659,96.3619"
         id="path57062" />
      <path
         d="M 69.4659,96.3619 V 96.0762"
         id="path57064" />
      <path
         d="m 69.4659,96.0762 0.0952,-0.1905"
         id="path57066" />
      <path
         d="m 69.5611,95.8857 0.1905,-0.0952"
         id="path57068" />
      <path
         d="m 69.7516,95.7905 h 1.0476"
         id="path57070" />
    </g>
  </g>
  <g
     style="fill:#c2c2c2;fill-opacity:0;stroke:#c2c2c2;stroke-width:0.4;stroke-linecap:round;stroke-linejoin:round;stroke-opacity:1"
     id="g57092"
     transform="translate(-68.5492,-21.4)">
    <path
       d="M 76.9,21.6 H 69.3136"
       id="path57076" />
    <path
       d="M 69.3136,181.6 H 76.9"
       id="path57078" />
    <path
       d="M 69.9,21.6 V 93.7643"
       id="path57080" />
    <path
       d="M 69.9,109.4357 V 181.6"
       id="path57082" />
    <path
       d="m 69.9,21.6 0.5864,1.1265"
       id="path57084" />
    <path
       d="m 69.9,21.6 -0.5864,1.1265"
       id="path57086" />
    <path
       d="m 69.9,181.6 -0.5864,-1.1265"
       id="path57088" />
    <path
       d="m 69.9,181.6 0.5864,-1.1265"
       id="path57090" />
  </g>
  <g
     style="fill:#c2c2c2;fill-opacity:0;stroke:#c2c2c2;stroke-width:0.5;stroke-linecap:round;stroke-linejoin:round;stroke-opacity:1"
     id="g57234"
     transform="translate(-68.5492,-21.4)">
    <g
       transform="rotate(-90,127.4,101.6)"
       id="g57096">
      <text
         x="127.4"
         y="102.6"
         textLength="13.6714"
         font-size="2.6667px"
         lengthAdjust="spacingAndGlyphs"
         text-anchor="middle"
         opacity="0"
         id="text57094">150 mm</text>
    </g>
    <g
       class="stroked-text"
       id="g57232">
      <desc
         id="desc57098">150 mm</desc>
      <path
         d="m 128.2992,106.3619 v 1.1429"
         id="path57100" />
      <path
         d="m 128.2992,106.9333 h -2"
         id="path57102" />
      <path
         d="m 126.2992,106.9333 0.2858,0.1905"
         id="path57104" />
      <path
         d="m 126.585,107.1238 0.1904,0.1905"
         id="path57106" />
      <path
         d="m 126.7754,107.3143 0.0953,0.1905"
         id="path57108" />
      <path
         d="m 126.2992,104.5524 v 0.9524"
         id="path57110" />
      <path
         d="m 126.2992,105.5048 0.9524,0.0952"
         id="path57112" />
      <path
         d="m 127.2516,105.6 -0.0952,-0.0952"
         id="path57114" />
      <path
         d="m 127.1564,105.5048 -0.0953,-0.1905"
         id="path57116" />
      <path
         d="m 127.0611,105.3143 v -0.4762"
         id="path57118" />
      <path
         d="m 127.0611,104.8381 0.0953,-0.1905"
         id="path57120" />
      <path
         d="m 127.1564,104.6476 0.0952,-0.0952"
         id="path57122" />
      <path
         d="m 127.2516,104.5524 0.1905,-0.0953"
         id="path57124" />
      <path
         d="m 127.4421,104.4571 h 0.4762"
         id="path57126" />
      <path
         d="m 127.9183,104.4571 0.1905,0.0953"
         id="path57128" />
      <path
         d="m 128.1088,104.5524 0.0952,0.0952"
         id="path57130" />
      <path
         d="m 128.204,104.6476 0.0952,0.1905"
         id="path57132" />
      <path
         d="m 128.2992,104.8381 v 0.4762"
         id="path57134" />
      <path
         d="m 128.2992,105.3143 -0.0952,0.1905"
         id="path57136" />
      <path
         d="M 128.204,105.5048 128.1088,105.6"
         id="path57138" />
      <path
         d="m 126.2992,103.219 v -0.1904"
         id="path57140" />
      <path
         d="m 126.2992,103.0286 0.0953,-0.1905"
         id="path57142" />
      <path
         d="m 126.3945,102.8381 0.0952,-0.0952"
         id="path57144" />
      <path
         d="m 126.4897,102.7429 0.1905,-0.0953"
         id="path57146" />
      <path
         d="m 126.6802,102.6476 0.3809,-0.0952"
         id="path57148" />
      <path
         d="m 127.0611,102.5524 h 0.4762"
         id="path57150" />
      <path
         d="m 127.5373,102.5524 0.381,0.0952"
         id="path57152" />
      <path
         d="m 127.9183,102.6476 0.1905,0.0953"
         id="path57154" />
      <path
         d="m 128.1088,102.7429 0.0952,0.0952"
         id="path57156" />
      <path
         d="m 128.204,102.8381 0.0952,0.1905"
         id="path57158" />
      <path
         d="m 128.2992,103.0286 v 0.1904"
         id="path57160" />
      <path
         d="m 128.2992,103.219 -0.0952,0.1905"
         id="path57162" />
      <path
         d="m 128.204,103.4095 -0.0952,0.0953"
         id="path57164" />
      <path
         d="M 128.1088,103.5048 127.9183,103.6"
         id="path57166" />
      <path
         d="m 127.9183,103.6 -0.381,0.0952"
         id="path57168" />
      <path
         d="m 127.5373,103.6952 h -0.4762"
         id="path57170" />
      <path
         d="M 127.0611,103.6952 126.6802,103.6"
         id="path57172" />
      <path
         d="m 126.6802,103.6 -0.1905,-0.0952"
         id="path57174" />
      <path
         d="m 126.4897,103.5048 -0.0952,-0.0953"
         id="path57176" />
      <path
         d="m 126.3945,103.4095 -0.0953,-0.1905"
         id="path57178" />
      <path
         d="m 128.2992,100.1714 h -1.3333"
         id="path57180" />
      <path
         d="m 127.1564,100.1714 -0.0953,-0.0952"
         id="path57182" />
      <path
         d="m 127.0611,100.0762 -0.0952,-0.1905"
         id="path57184" />
      <path
         d="M 126.9659,99.8857 V 99.6"
         id="path57186" />
      <path
         d="m 126.9659,99.6 0.0952,-0.1905"
         id="path57188" />
      <path
         d="m 127.0611,99.4095 0.1905,-0.0952"
         id="path57190" />
      <path
         d="m 127.2516,99.3143 h 1.0476"
         id="path57192" />
      <path
         d="M 127.2516,99.3143 127.0611,99.219"
         id="path57194" />
      <path
         d="m 127.0611,99.219 -0.0952,-0.1904"
         id="path57196" />
      <path
         d="M 126.9659,99.0286 V 98.7429"
         id="path57198" />
      <path
         d="m 126.9659,98.7429 0.0952,-0.1905"
         id="path57200" />
      <path
         d="m 127.0611,98.5524 0.1905,-0.0953"
         id="path57202" />
      <path
         d="m 127.2516,98.4571 h 1.0476"
         id="path57204" />
      <path
         d="m 128.2992,97.5048 h -1.3333"
         id="path57206" />
      <path
         d="m 127.1564,97.5048 -0.0953,-0.0953"
         id="path57208" />
      <path
         d="M 127.0611,97.4095 126.9659,97.219"
         id="path57210" />
      <path
         d="M 126.9659,97.219 V 96.9333"
         id="path57212" />
      <path
         d="m 126.9659,96.9333 0.0952,-0.1904"
         id="path57214" />
      <path
         d="m 127.0611,96.7429 0.1905,-0.0953"
         id="path57216" />
      <path
         d="m 127.2516,96.6476 h 1.0476"
         id="path57218" />
      <path
         d="m 127.2516,96.6476 -0.1905,-0.0952"
         id="path57220" />
      <path
         d="m 127.0611,96.5524 -0.0952,-0.1905"
         id="path57222" />
      <path
         d="M 126.9659,96.3619 V 96.0762"
         id="path57224" />
      <path
         d="m 126.9659,96.0762 0.0952,-0.1905"
         id="path57226" />
      <path
         d="m 127.0611,95.8857 0.1905,-0.0952"
         id="path57228" />
      <path
         d="m 127.2516,95.7905 h 1.0476"
         id="path57230" />
    </g>
  </g>
  <g
     style="fill:#c2c2c2;fill-opacity:1;stroke:#c2c2c2;stroke-width:0;stroke-linecap:round;stroke-linejoin:round;stroke-opacity:1"
     id="g57240"
     transform="translate(-68.5492,-21.4)">
    <circle
       cx="127.4"
       cy="26.6"
       r="0.2"
       id="circle57236" />
    <circle
       cx="127.4"
       cy="176.60001"
       r="0.2"
       id="circle57238" />
  </g>
  <g
     style="fill:#c2c2c2;fill-opacity:1;stroke:#c2c2c2;stroke-width:0.4;stroke-linecap:round;stroke-linejoin:round;stroke-opacity:1"
     id="g57242"
     transform="translate(-68.5492,-21.4)" />
  <g
     style="fill:#c2c2c2;fill-opacity:0;stroke:#c2c2c2;stroke-width:0.4;stroke-linecap:round;stroke-linejoin:round;stroke-opacity:1"
     id="g57256"
     transform="translate(-68.5492,-21.4)">
    <path
       d="M 127.4,26.6 V 93.7643"
       id="path57244" />
    <path
       d="M 127.4,109.4357 V 176.6"
       id="path57246" />
    <path
       d="m 127.4,26.6 0.5864,1.1265"
       id="path57248" />
    <path
       d="m 127.4,26.6 -0.5864,1.1265"
       id="path57250" />
    <path
       d="m 127.4,176.6 -0.5864,-1.1265"
       id="path57252" />
    <path
       d="m 127.4,176.6 0.5864,-1.1265"
       id="path57254" />
  </g>
  <g
     style="fill:#c2c2c2;fill-opacity:0;stroke:#c2c2c2;stroke-width:0.5;stroke-linecap:round;stroke-linejoin:round;stroke-opacity:1"
     id="g57386"
     transform="translate(-68.5492,-21.4)">
    <text
       x="102.4"
       y="177.60001"
       textLength="11.7667"
       font-size="2.6667px"
       lengthAdjust="spacingAndGlyphs"
       text-anchor="middle"
       opacity="0"
       id="text57258">50 mm</text>
    <g
       class="stroked-text"
       id="g57384">
      <desc
         id="desc57260">50 mm</desc>
      <path
         d="M 98.4952,175.4992 H 97.5429"
         id="path57262" />
      <path
         d="m 97.5429,175.4992 -0.0953,0.9524"
         id="path57264" />
      <path
         d="m 97.4476,176.4516 0.0953,-0.0952"
         id="path57266" />
      <path
         d="m 97.5429,176.3564 0.1904,-0.0953"
         id="path57268" />
      <path
         d="m 97.7333,176.2611 h 0.4762"
         id="path57270" />
      <path
         d="M 98.2095,176.2611 98.4,176.3564"
         id="path57272" />
      <path
         d="m 98.4,176.3564 0.0952,0.0952"
         id="path57274" />
      <path
         d="m 98.4952,176.4516 0.0953,0.1905"
         id="path57276" />
      <path
         d="m 98.5905,176.6421 v 0.4762"
         id="path57278" />
      <path
         d="m 98.5905,177.1183 -0.0953,0.1905"
         id="path57280" />
      <path
         d="M 98.4952,177.3088 98.4,177.404"
         id="path57282" />
      <path
         d="m 98.4,177.404 -0.1905,0.0952"
         id="path57284" />
      <path
         d="M 98.2095,177.4992 H 97.7333"
         id="path57286" />
      <path
         d="M 97.7333,177.4992 97.5429,177.404"
         id="path57288" />
      <path
         d="m 97.5429,177.404 -0.0953,-0.0952"
         id="path57290" />
      <path
         d="m 99.8286,175.4992 h 0.1904"
         id="path57292" />
      <path
         d="m 100.019,175.4992 0.1905,0.0953"
         id="path57294" />
      <path
         d="m 100.2095,175.5945 0.0953,0.0952"
         id="path57296" />
      <path
         d="m 100.3048,175.6897 0.0952,0.1905"
         id="path57298" />
      <path
         d="m 100.4,175.8802 0.0952,0.3809"
         id="path57300" />
      <path
         d="m 100.4952,176.2611 v 0.4762"
         id="path57302" />
      <path
         d="m 100.4952,176.7373 -0.0952,0.381"
         id="path57304" />
      <path
         d="m 100.4,177.1183 -0.0952,0.1905"
         id="path57306" />
      <path
         d="m 100.3048,177.3088 -0.0953,0.0952"
         id="path57308" />
      <path
         d="m 100.2095,177.404 -0.1905,0.0952"
         id="path57310" />
      <path
         d="M 100.019,177.4992 H 99.8286"
         id="path57312" />
      <path
         d="M 99.8286,177.4992 99.6381,177.404"
         id="path57314" />
      <path
         d="m 99.6381,177.404 -0.0952,-0.0952"
         id="path57316" />
      <path
         d="m 99.5429,177.3088 -0.0953,-0.1905"
         id="path57318" />
      <path
         d="m 99.4476,177.1183 -0.0952,-0.381"
         id="path57320" />
      <path
         d="m 99.3524,176.7373 v -0.4762"
         id="path57322" />
      <path
         d="m 99.3524,176.2611 0.0952,-0.3809"
         id="path57324" />
      <path
         d="m 99.4476,175.8802 0.0953,-0.1905"
         id="path57326" />
      <path
         d="m 99.5429,175.6897 0.0952,-0.0952"
         id="path57328" />
      <path
         d="m 99.6381,175.5945 0.1905,-0.0953"
         id="path57330" />
      <path
         d="m 102.8762,177.4992 v -1.3333"
         id="path57332" />
      <path
         d="m 102.8762,176.3564 0.0952,-0.0953"
         id="path57334" />
      <path
         d="m 102.9714,176.2611 0.1905,-0.0952"
         id="path57336" />
      <path
         d="m 103.1619,176.1659 h 0.2857"
         id="path57338" />
      <path
         d="m 103.4476,176.1659 0.1905,0.0952"
         id="path57340" />
      <path
         d="m 103.6381,176.2611 0.0952,0.1905"
         id="path57342" />
      <path
         d="m 103.7333,176.4516 v 1.0476"
         id="path57344" />
      <path
         d="m 103.7333,176.4516 0.0953,-0.1905"
         id="path57346" />
      <path
         d="m 103.8286,176.2611 0.1904,-0.0952"
         id="path57348" />
      <path
         d="m 104.019,176.1659 h 0.2858"
         id="path57350" />
      <path
         d="m 104.3048,176.1659 0.1904,0.0952"
         id="path57352" />
      <path
         d="m 104.4952,176.2611 0.0953,0.1905"
         id="path57354" />
      <path
         d="m 104.5905,176.4516 v 1.0476"
         id="path57356" />
      <path
         d="m 105.5429,177.4992 v -1.3333"
         id="path57358" />
      <path
         d="m 105.5429,176.3564 0.0952,-0.0953"
         id="path57360" />
      <path
         d="m 105.6381,176.2611 0.1905,-0.0952"
         id="path57362" />
      <path
         d="m 105.8286,176.1659 h 0.2857"
         id="path57364" />
      <path
         d="m 106.1143,176.1659 0.1905,0.0952"
         id="path57366" />
      <path
         d="m 106.3048,176.2611 0.0952,0.1905"
         id="path57368" />
      <path
         d="m 106.4,176.4516 v 1.0476"
         id="path57370" />
      <path
         d="m 106.4,176.4516 0.0952,-0.1905"
         id="path57372" />
      <path
         d="m 106.4952,176.2611 0.1905,-0.0952"
         id="path57374" />
      <path
         d="m 106.6857,176.1659 h 0.2857"
         id="path57376" />
      <path
         d="m 106.9714,176.1659 0.1905,0.0952"
         id="path57378" />
      <path
         d="m 107.1619,176.2611 0.0952,0.1905"
         id="path57380" />
      <path
         d="m 107.2571,176.4516 v 1.0476"
         id="path57382" />
    </g>
  </g>
  <g
     style="fill:#c2c2c2;fill-opacity:1;stroke:#c2c2c2;stroke-width:0;stroke-linecap:round;stroke-linejoin:round;stroke-opacity:1"
     id="g57392"
     transform="translate(-68.5492,-21.4)">
    <circle
       cx="77.400002"
       cy="176.60001"
       r="0.2"
       id="circle57388" />
    <circle
       cx="127.4"
       cy="176.60001"
       r="0.2"
       id="circle57390" />
  </g>
  <g
     style="fill:#c2c2c2;fill-opacity:1;stroke:#c2c2c2;stroke-width:0.4;stroke-linecap:round;stroke-linejoin:round;stroke-opacity:1"
     id="g57394"
     transform="translate(-68.5492,-21.4)" />
  <g
     style="fill:#c2c2c2;fill-opacity:0;stroke:#c2c2c2;stroke-width:0.4;stroke-linecap:round;stroke-linejoin:round;stroke-opacity:1"
     id="g57602"
     transform="translate(-68.5492,-21.4)">
    <path
       d="M 77.4,176.6 H 95.5167"
       id="path57396" />
    <path
       d="M 109.2833,176.6 H 127.4"
       id="path57398" />
    <path
       d="m 77.4,176.6 1.1265,-0.5864"
       id="path57400" />
    <path
       d="m 77.4,176.6 1.1265,0.5864"
       id="path57402" />
    <path
       d="m 127.4,176.6 -1.1265,0.5864"
       id="path57404" />
    <path
       d="m 127.4,176.6 -1.1265,-0.5864"
       id="path57406" />
    <circle
       cx="77.400002"
       cy="46.465"
       r="1.6"
       id="circle57408" />
    <circle
       cx="77.400002"
       cy="156.60001"
       r="1.6"
       id="circle57410" />
    <circle
       cx="127.4"
       cy="46.465"
       r="1.6"
       id="circle57412" />
    <circle
       cx="127.4"
       cy="156.60001"
       r="1.6"
       id="circle57414" />
    <g
       id="g57416" />
    <g
       id="g57418" />
    <g
       id="g57420" />
    <g
       id="g57422" />
    <g
       id="g57424" />
    <g
       id="g57426" />
    <g
       id="g57428" />
    <g
       id="g57430" />
    <g
       id="g57432" />
    <g
       id="g57434" />
    <g
       id="g57436" />
    <g
       id="g57438" />
    <g
       id="g57440" />
    <g
       id="g57442" />
    <g
       id="g57444" />
    <g
       id="g57446" />
    <g
       id="g57448" />
    <g
       id="g57450" />
    <g
       id="g57452" />
    <g
       id="g57454" />
    <g
       id="g57456" />
    <g
       id="g57458" />
    <g
       id="g57460" />
    <g
       id="g57462" />
    <g
       id="g57464" />
    <g
       id="g57466" />
    <g
       id="g57468" />
    <g
       id="g57470" />
    <g
       id="g57472" />
    <g
       id="g57474" />
    <g
       id="g57476" />
    <g
       id="g57478" />
    <g
       id="g57480" />
    <g
       id="g57482" />
    <g
       id="g57484" />
    <g
       id="g57486" />
    <g
       id="g57488" />
    <g
       id="g57490" />
    <g
       id="g57492" />
    <g
       id="g57494" />
    <g
       id="g57496" />
    <g
       id="g57498" />
    <g
       id="g57500" />
    <g
       id="g57502" />
    <g
       id="g57504" />
    <g
       id="g57506" />
    <g
       id="g57508" />
    <g
       id="g57510" />
    <g
       id="g57512" />
    <g
       id="g57514" />
    <g
       id="g57516" />
    <g
       id="g57518" />
    <g
       id="g57520" />
    <g
       id="g57522" />
    <g
       id="g57524" />
    <g
       id="g57526" />
    <g
       id="g57528" />
    <g
       id="g57530" />
    <g
       id="g57532" />
    <g
       id="g57534" />
    <g
       id="g57536" />
    <g
       id="g57538" />
    <g
       id="g57540" />
    <g
       id="g57542" />
    <g
       id="g57544" />
    <g
       id="g57546" />
    <g
       id="g57548" />
    <g
       id="g57550" />
    <g
       id="g57552" />
    <g
       id="g57554" />
    <g
       id="g57556" />
    <g
       id="g57558" />
    <g
       id="g57560" />
    <g
       id="g57562" />
    <g
       id="g57564" />
    <g
       id="g57566" />
    <g
       id="g57568" />
    <g
       id="g57570" />
    <g
       id="g57572" />
    <g
       id="g57574" />
    <g
       id="g57576" />
    <g
       id="g57578" />
    <g
       id="g57580" />
    <g
       id="g57582" />
    <g
       id="g57584" />
    <g
       id="g57586" />
    <g
       id="g57588" />
    <g
       id="g57590" />
    <g
       id="g57592" />
    <g
       id="g57594" />
    <g
       id="g57596" />
    <g
       id="g57598" />
    <g
       id="g57600" />
  </g>
  <g
     style="fill:#000000;fill-opacity:0;stroke:#000000;stroke-width:0.4;stroke-linecap:round;stroke-linejoin:round;stroke-opacity:1"
     id="g57604"
     transform="translate(-68.5492,-21.4)" />
  <g
     style="fill:#d0d2cd;fill-opacity:0;stroke:#d0d2cd;stroke-width:0.4;stroke-linecap:round;stroke-linejoin:round;stroke-opacity:1"
     id="g57606"
     transform="translate(-68.5492,-21.4)" />
  <g
     style="fill:#d0d2cd;fill-opacity:0;stroke:#d0d2cd;stroke-width:0.1;stroke-linecap:round;stroke-linejoin:round;stroke-opacity:1"
     id="g57810"
     transform="translate(-68.5492,-21.4)">
    <path
       d="m 77.4,41.6 a 5,5 0 0 0 -5,5"
       id="path57608" />
    <path
       d="M 72.4,156.6 V 46.6"
       id="path57610" />
    <path
       d="m 132.4,46.6 v 110"
       id="path57612" />
    <path
       d="m 127.4,161.6 a 5,5 0 0 0 5,-5"
       id="path57614" />
    <path
       d="m 132.4,46.6 a 5,5 0 0 0 -5,-5"
       id="path57616" />
    <path
       d="m 72.4,156.6 a 5,5 0 0 0 5,5"
       id="path57618" />
    <path
       d="m 127.4,161.6 h -50"
       id="path57620" />
    <path
       d="m 77.4,41.6 h 50"
       id="path57622" />
    <g
       id="g57624" />
    <g
       id="g57626" />
    <g
       id="g57628" />
    <g
       id="g57630" />
    <g
       id="g57632" />
    <g
       id="g57634" />
    <g
       id="g57636" />
    <g
       id="g57638" />
    <g
       id="g57640" />
    <g
       id="g57642" />
    <g
       id="g57644" />
    <g
       id="g57646" />
    <g
       id="g57648" />
    <g
       id="g57650" />
    <g
       id="g57652" />
    <g
       id="g57654" />
    <g
       id="g57656" />
    <g
       id="g57658" />
    <g
       id="g57660" />
    <g
       id="g57662" />
    <g
       id="g57664" />
    <g
       id="g57666" />
    <g
       id="g57668" />
    <g
       id="g57670" />
    <g
       id="g57672" />
    <g
       id="g57674" />
    <g
       id="g57676" />
    <g
       id="g57678" />
    <g
       id="g57680" />
    <g
       id="g57682" />
    <g
       id="g57684" />
    <g
       id="g57686" />
    <g
       id="g57688" />
    <g
       id="g57690" />
    <g
       id="g57692" />
    <g
       id="g57694" />
    <g
       id="g57696" />
    <g
       id="g57698" />
    <g
       id="g57700" />
    <g
       id="g57702" />
    <g
       id="g57704" />
    <g
       id="g57706" />
    <g
       id="g57708" />
    <g
       id="g57710" />
    <g
       id="g57712" />
    <g
       id="g57714" />
    <g
       id="g57716" />
    <g
       id="g57718" />
    <g
       id="g57720" />
    <g
       id="g57722" />
    <g
       id="g57724" />
    <g
       id="g57726" />
    <g
       id="g57728" />
    <g
       id="g57730" />
    <g
       id="g57732" />
    <g
       id="g57734" />
    <g
       id="g57736" />
    <g
       id="g57738" />
    <g
       id="g57740" />
    <g
       id="g57742" />
    <g
       id="g57744" />
    <g
       id="g57746" />
    <g
       id="g57748" />
    <g
       id="g57750" />
    <g
       id="g57752" />
    <g
       id="g57754" />
    <g
       id="g57756" />
    <g
       id="g57758" />
    <g
       id="g57760" />
    <g
       id="g57762" />
    <g
       id="g57764" />
    <g
       id="g57766" />
    <g
       id="g57768" />
    <g
       id="g57770" />
    <g
       id="g57772" />
    <g
       id="g57774" />
    <g
       id="g57776" />
    <g
       id="g57778" />
    <g
       id="g57780" />
    <g
       id="g57782" />
    <g
       id="g57784" />
    <g
       id="g57786" />
    <g
       id="g57788" />
    <g
       id="g57790" />
    <g
       id="g57792" />
    <g
       id="g57794" />
    <g
       id="g57796" />
    <g
       id="g57798" />
    <g
       id="g57800" />
    <g
       id="g57802" />
    <g
       id="g57804" />
    <g
       id="g57806" />
    <g
       id="g57808" />
  </g>
</svg>
