%TF.GenerationSoftware,KiCad,Pcbnew,7.0.11*%
%TF.CreationDate,2024-10-24T13:35:05-04:00*%
%TF.ProjectId,mouse-joystick-pcb,6d6f7573-652d-46a6-9f79-737469636b2d,1.0*%
%TF.SameCoordinates,Original*%
%TF.FileFunction,Drillmap*%
%TF.FilePolarity,Positive*%
%FSLAX45Y45*%
G04 Gerber Fmt 4.5, Leading zero omitted, Abs format (unit mm)*
G04 Created by KiCad (PCBNEW 7.0.11) date 2024-10-24 13:35:05*
%MOMM*%
%LPD*%
G01*
G04 APERTURE LIST*
%ADD10C,0.100000*%
%ADD11C,0.200000*%
%ADD12C,0.101600*%
%ADD13C,0.120000*%
%ADD14C,0.150000*%
%ADD15C,0.170000*%
%ADD16C,0.320000*%
G04 APERTURE END LIST*
D10*
X7740000Y-4160000D02*
G75*
G03*
X7240000Y-4660000I0J-500000D01*
G01*
X7240000Y-15660000D02*
X7240000Y-4660000D01*
X13240000Y-4660000D02*
X13240000Y-15660000D01*
X12740000Y-16160000D02*
G75*
G03*
X13240000Y-15660000I0J500000D01*
G01*
X13240000Y-4660000D02*
G75*
G03*
X12740000Y-4160000I-500000J0D01*
G01*
X7240000Y-15660000D02*
G75*
G03*
X7740000Y-16160000I500000J0D01*
G01*
X12740000Y-16160000D02*
X7740000Y-16160000D01*
X7740000Y-4160000D02*
X12740000Y-4160000D01*
D11*
D10*
X8090630Y-8750000D02*
X8110630Y-8770000D01*
X8110630Y-8750000D02*
X8090630Y-8770000D01*
X8169370Y-8750000D02*
X8189370Y-8770000D01*
X8189370Y-8750000D02*
X8169370Y-8770000D01*
X7652500Y-6897000D02*
G75*
G03*
X7627500Y-6897000I-12500J0D01*
G01*
X7627500Y-6897000D02*
G75*
G03*
X7652500Y-6897000I12500J0D01*
G01*
X7852500Y-6897000D02*
G75*
G03*
X7827500Y-6897000I-12500J0D01*
G01*
X7827500Y-6897000D02*
G75*
G03*
X7852500Y-6897000I12500J0D01*
G01*
X8102500Y-6260000D02*
G75*
G03*
X8077500Y-6260000I-12500J0D01*
G01*
X8077500Y-6260000D02*
G75*
G03*
X8102500Y-6260000I12500J0D01*
G01*
X8102500Y-9160000D02*
G75*
G03*
X8077500Y-9160000I-12500J0D01*
G01*
X8077500Y-9160000D02*
G75*
G03*
X8102500Y-9160000I12500J0D01*
G01*
X8352500Y-8635000D02*
G75*
G03*
X8327500Y-8635000I-12500J0D01*
G01*
X8327500Y-8635000D02*
G75*
G03*
X8352500Y-8635000I12500J0D01*
G01*
X9677500Y-13785000D02*
G75*
G03*
X9652500Y-13785000I-12500J0D01*
G01*
X9652500Y-13785000D02*
G75*
G03*
X9677500Y-13785000I12500J0D01*
G01*
X9677500Y-13985000D02*
G75*
G03*
X9652500Y-13985000I-12500J0D01*
G01*
X9652500Y-13985000D02*
G75*
G03*
X9677500Y-13985000I12500J0D01*
G01*
X10027500Y-13010000D02*
G75*
G03*
X10002500Y-13010000I-12500J0D01*
G01*
X10002500Y-13010000D02*
G75*
G03*
X10027500Y-13010000I12500J0D01*
G01*
X10027500Y-13335000D02*
G75*
G03*
X10002500Y-13335000I-12500J0D01*
G01*
X10002500Y-13335000D02*
G75*
G03*
X10027500Y-13335000I12500J0D01*
G01*
X10077500Y-14535000D02*
G75*
G03*
X10052500Y-14535000I-12500J0D01*
G01*
X10052500Y-14535000D02*
G75*
G03*
X10077500Y-14535000I12500J0D01*
G01*
X10127500Y-13385000D02*
G75*
G03*
X10102500Y-13385000I-12500J0D01*
G01*
X10102500Y-13385000D02*
G75*
G03*
X10127500Y-13385000I12500J0D01*
G01*
X10202500Y-13260000D02*
G75*
G03*
X10177500Y-13260000I-12500J0D01*
G01*
X10177500Y-13260000D02*
G75*
G03*
X10202500Y-13260000I12500J0D01*
G01*
X10302500Y-13260000D02*
G75*
G03*
X10277500Y-13260000I-12500J0D01*
G01*
X10277500Y-13260000D02*
G75*
G03*
X10302500Y-13260000I12500J0D01*
G01*
X10355769Y-7738269D02*
G75*
G03*
X10330769Y-7738269I-12500J0D01*
G01*
X10330769Y-7738269D02*
G75*
G03*
X10355769Y-7738269I12500J0D01*
G01*
X10402500Y-13260000D02*
G75*
G03*
X10377500Y-13260000I-12500J0D01*
G01*
X10377500Y-13260000D02*
G75*
G03*
X10402500Y-13260000I12500J0D01*
G01*
X10427500Y-6610000D02*
G75*
G03*
X10402500Y-6610000I-12500J0D01*
G01*
X10402500Y-6610000D02*
G75*
G03*
X10427500Y-6610000I12500J0D01*
G01*
X10427500Y-7985000D02*
G75*
G03*
X10402500Y-7985000I-12500J0D01*
G01*
X10402500Y-7985000D02*
G75*
G03*
X10427500Y-7985000I12500J0D01*
G01*
X10527500Y-5510000D02*
G75*
G03*
X10502500Y-5510000I-12500J0D01*
G01*
X10502500Y-5510000D02*
G75*
G03*
X10527500Y-5510000I12500J0D01*
G01*
X10727500Y-14685000D02*
G75*
G03*
X10702500Y-14685000I-12500J0D01*
G01*
X10702500Y-14685000D02*
G75*
G03*
X10727500Y-14685000I12500J0D01*
G01*
X10777500Y-6985000D02*
G75*
G03*
X10752500Y-6985000I-12500J0D01*
G01*
X10752500Y-6985000D02*
G75*
G03*
X10777500Y-6985000I12500J0D01*
G01*
X10777500Y-8135000D02*
G75*
G03*
X10752500Y-8135000I-12500J0D01*
G01*
X10752500Y-8135000D02*
G75*
G03*
X10777500Y-8135000I12500J0D01*
G01*
X10827500Y-4660000D02*
G75*
G03*
X10802500Y-4660000I-12500J0D01*
G01*
X10802500Y-4660000D02*
G75*
G03*
X10827500Y-4660000I12500J0D01*
G01*
X10827500Y-13785000D02*
G75*
G03*
X10802500Y-13785000I-12500J0D01*
G01*
X10802500Y-13785000D02*
G75*
G03*
X10827500Y-13785000I12500J0D01*
G01*
X10827500Y-13985000D02*
G75*
G03*
X10802500Y-13985000I-12500J0D01*
G01*
X10802500Y-13985000D02*
G75*
G03*
X10827500Y-13985000I12500J0D01*
G01*
X10852500Y-12410000D02*
G75*
G03*
X10827500Y-12410000I-12500J0D01*
G01*
X10827500Y-12410000D02*
G75*
G03*
X10852500Y-12410000I12500J0D01*
G01*
X10852500Y-12560000D02*
G75*
G03*
X10827500Y-12560000I-12500J0D01*
G01*
X10827500Y-12560000D02*
G75*
G03*
X10852500Y-12560000I12500J0D01*
G01*
X10952500Y-13460000D02*
G75*
G03*
X10927500Y-13460000I-12500J0D01*
G01*
X10927500Y-13460000D02*
G75*
G03*
X10952500Y-13460000I12500J0D01*
G01*
X10977500Y-6985000D02*
G75*
G03*
X10952500Y-6985000I-12500J0D01*
G01*
X10952500Y-6985000D02*
G75*
G03*
X10977500Y-6985000I12500J0D01*
G01*
X10977500Y-8135000D02*
G75*
G03*
X10952500Y-8135000I-12500J0D01*
G01*
X10952500Y-8135000D02*
G75*
G03*
X10977500Y-8135000I12500J0D01*
G01*
X11252500Y-13010000D02*
G75*
G03*
X11227500Y-13010000I-12500J0D01*
G01*
X11227500Y-13010000D02*
G75*
G03*
X11252500Y-13010000I12500J0D01*
G01*
X11377500Y-7185000D02*
G75*
G03*
X11352500Y-7185000I-12500J0D01*
G01*
X11352500Y-7185000D02*
G75*
G03*
X11377500Y-7185000I12500J0D01*
G01*
X11427500Y-5860000D02*
G75*
G03*
X11402500Y-5860000I-12500J0D01*
G01*
X11402500Y-5860000D02*
G75*
G03*
X11427500Y-5860000I12500J0D01*
G01*
X11452500Y-13010000D02*
G75*
G03*
X11427500Y-13010000I-12500J0D01*
G01*
X11427500Y-13010000D02*
G75*
G03*
X11452500Y-13010000I12500J0D01*
G01*
X11527500Y-7785000D02*
G75*
G03*
X11502500Y-7785000I-12500J0D01*
G01*
X11502500Y-7785000D02*
G75*
G03*
X11527500Y-7785000I12500J0D01*
G01*
X11527500Y-8935000D02*
G75*
G03*
X11502500Y-8935000I-12500J0D01*
G01*
X11502500Y-8935000D02*
G75*
G03*
X11527500Y-8935000I12500J0D01*
G01*
X11537500Y-10350000D02*
G75*
G03*
X11512500Y-10350000I-12500J0D01*
G01*
X11512500Y-10350000D02*
G75*
G03*
X11537500Y-10350000I12500J0D01*
G01*
X11602500Y-5760000D02*
G75*
G03*
X11577500Y-5760000I-12500J0D01*
G01*
X11577500Y-5760000D02*
G75*
G03*
X11602500Y-5760000I12500J0D01*
G01*
X11802500Y-10760000D02*
G75*
G03*
X11777500Y-10760000I-12500J0D01*
G01*
X11777500Y-10760000D02*
G75*
G03*
X11802500Y-10760000I12500J0D01*
G01*
X11877500Y-7185000D02*
G75*
G03*
X11852500Y-7185000I-12500J0D01*
G01*
X11852500Y-7185000D02*
G75*
G03*
X11877500Y-7185000I12500J0D01*
G01*
X11877500Y-9035000D02*
G75*
G03*
X11852500Y-9035000I-12500J0D01*
G01*
X11852500Y-9035000D02*
G75*
G03*
X11877500Y-9035000I12500J0D01*
G01*
X11902500Y-12260000D02*
G75*
G03*
X11877500Y-12260000I-12500J0D01*
G01*
X11877500Y-12260000D02*
G75*
G03*
X11902500Y-12260000I12500J0D01*
G01*
X12152500Y-8260000D02*
G75*
G03*
X12127500Y-8260000I-12500J0D01*
G01*
X12127500Y-8260000D02*
G75*
G03*
X12152500Y-8260000I12500J0D01*
G01*
X12302500Y-14460000D02*
G75*
G03*
X12277500Y-14460000I-12500J0D01*
G01*
X12277500Y-14460000D02*
G75*
G03*
X12302500Y-14460000I12500J0D01*
G01*
X12502500Y-14960000D02*
G75*
G03*
X12477500Y-14960000I-12500J0D01*
G01*
X12477500Y-14960000D02*
G75*
G03*
X12502500Y-14960000I12500J0D01*
G01*
X12802500Y-8810000D02*
G75*
G03*
X12777500Y-8810000I-12500J0D01*
G01*
X12777500Y-8810000D02*
G75*
G03*
X12802500Y-8810000I12500J0D01*
G01*
X10040000Y-13747500D02*
X10040000Y-13772500D01*
X10027500Y-13760000D02*
X10052500Y-13760000D01*
X10040000Y-13847500D02*
X10040000Y-13872500D01*
X10027500Y-13860000D02*
X10052500Y-13860000D01*
X10040000Y-13947500D02*
X10040000Y-13972500D01*
X10027500Y-13960000D02*
X10052500Y-13960000D01*
X10040000Y-14047500D02*
X10040000Y-14072500D01*
X10027500Y-14060000D02*
X10052500Y-14060000D01*
X10040000Y-14147500D02*
X10040000Y-14172500D01*
X10027500Y-14160000D02*
X10052500Y-14160000D01*
X10140000Y-13747500D02*
X10140000Y-13772500D01*
X10127500Y-13760000D02*
X10152500Y-13760000D01*
X10140000Y-13847500D02*
X10140000Y-13872500D01*
X10127500Y-13860000D02*
X10152500Y-13860000D01*
X10140000Y-13947500D02*
X10140000Y-13972500D01*
X10127500Y-13960000D02*
X10152500Y-13960000D01*
X10140000Y-14047500D02*
X10140000Y-14072500D01*
X10127500Y-14060000D02*
X10152500Y-14060000D01*
X10140000Y-14147500D02*
X10140000Y-14172500D01*
X10127500Y-14160000D02*
X10152500Y-14160000D01*
X10240000Y-13747500D02*
X10240000Y-13772500D01*
X10227500Y-13760000D02*
X10252500Y-13760000D01*
X10240000Y-13847500D02*
X10240000Y-13872500D01*
X10227500Y-13860000D02*
X10252500Y-13860000D01*
X10240000Y-13947500D02*
X10240000Y-13972500D01*
X10227500Y-13960000D02*
X10252500Y-13960000D01*
X10240000Y-14047500D02*
X10240000Y-14072500D01*
X10227500Y-14060000D02*
X10252500Y-14060000D01*
X10240000Y-14147500D02*
X10240000Y-14172500D01*
X10227500Y-14160000D02*
X10252500Y-14160000D01*
X10340000Y-13747500D02*
X10340000Y-13772500D01*
X10327500Y-13760000D02*
X10352500Y-13760000D01*
X10340000Y-13847500D02*
X10340000Y-13872500D01*
X10327500Y-13860000D02*
X10352500Y-13860000D01*
X10340000Y-13947500D02*
X10340000Y-13972500D01*
X10327500Y-13960000D02*
X10352500Y-13960000D01*
X10340000Y-14047500D02*
X10340000Y-14072500D01*
X10327500Y-14060000D02*
X10352500Y-14060000D01*
X10340000Y-14147500D02*
X10340000Y-14172500D01*
X10327500Y-14160000D02*
X10352500Y-14160000D01*
X10440000Y-13747500D02*
X10440000Y-13772500D01*
X10427500Y-13760000D02*
X10452500Y-13760000D01*
X10440000Y-13847500D02*
X10440000Y-13872500D01*
X10427500Y-13860000D02*
X10452500Y-13860000D01*
X10440000Y-13947500D02*
X10440000Y-13972500D01*
X10427500Y-13960000D02*
X10452500Y-13960000D01*
X10440000Y-14047500D02*
X10440000Y-14072500D01*
X10427500Y-14060000D02*
X10452500Y-14060000D01*
X10440000Y-14147500D02*
X10440000Y-14172500D01*
X10427500Y-14160000D02*
X10452500Y-14160000D01*
X10740000Y-7347500D02*
X10740000Y-7372500D01*
X10727500Y-7360000D02*
X10752500Y-7360000D01*
X10740000Y-7447500D02*
X10740000Y-7472500D01*
X10727500Y-7460000D02*
X10752500Y-7460000D01*
X10740000Y-7547500D02*
X10740000Y-7572500D01*
X10727500Y-7560000D02*
X10752500Y-7560000D01*
X10740000Y-7647500D02*
X10740000Y-7672500D01*
X10727500Y-7660000D02*
X10752500Y-7660000D01*
X10740000Y-7747500D02*
X10740000Y-7772500D01*
X10727500Y-7760000D02*
X10752500Y-7760000D01*
X10840000Y-7347500D02*
X10840000Y-7372500D01*
X10827500Y-7360000D02*
X10852500Y-7360000D01*
X10840000Y-7447500D02*
X10840000Y-7472500D01*
X10827500Y-7460000D02*
X10852500Y-7460000D01*
X10840000Y-7547500D02*
X10840000Y-7572500D01*
X10827500Y-7560000D02*
X10852500Y-7560000D01*
X10840000Y-7647500D02*
X10840000Y-7672500D01*
X10827500Y-7660000D02*
X10852500Y-7660000D01*
X10840000Y-7747500D02*
X10840000Y-7772500D01*
X10827500Y-7760000D02*
X10852500Y-7760000D01*
X10940000Y-7347500D02*
X10940000Y-7372500D01*
X10927500Y-7360000D02*
X10952500Y-7360000D01*
X10940000Y-7447500D02*
X10940000Y-7472500D01*
X10927500Y-7460000D02*
X10952500Y-7460000D01*
X10940000Y-7547500D02*
X10940000Y-7572500D01*
X10927500Y-7560000D02*
X10952500Y-7560000D01*
X10940000Y-7647500D02*
X10940000Y-7672500D01*
X10927500Y-7660000D02*
X10952500Y-7660000D01*
X10940000Y-7747500D02*
X10940000Y-7772500D01*
X10927500Y-7760000D02*
X10952500Y-7760000D01*
X11040000Y-7347500D02*
X11040000Y-7372500D01*
X11027500Y-7360000D02*
X11052500Y-7360000D01*
X11040000Y-7447500D02*
X11040000Y-7472500D01*
X11027500Y-7460000D02*
X11052500Y-7460000D01*
X11040000Y-7547500D02*
X11040000Y-7572500D01*
X11027500Y-7560000D02*
X11052500Y-7560000D01*
X11040000Y-7647500D02*
X11040000Y-7672500D01*
X11027500Y-7660000D02*
X11052500Y-7660000D01*
X11040000Y-7747500D02*
X11040000Y-7772500D01*
X11027500Y-7760000D02*
X11052500Y-7760000D01*
X11090000Y-12297500D02*
X11090000Y-12322500D01*
X11077500Y-12310000D02*
X11102500Y-12310000D01*
X11090000Y-12397500D02*
X11090000Y-12422500D01*
X11077500Y-12410000D02*
X11102500Y-12410000D01*
X11140000Y-7347500D02*
X11140000Y-7372500D01*
X11127500Y-7360000D02*
X11152500Y-7360000D01*
X11140000Y-7447500D02*
X11140000Y-7472500D01*
X11127500Y-7460000D02*
X11152500Y-7460000D01*
X11140000Y-7547500D02*
X11140000Y-7572500D01*
X11127500Y-7560000D02*
X11152500Y-7560000D01*
X11140000Y-7647500D02*
X11140000Y-7672500D01*
X11127500Y-7660000D02*
X11152500Y-7660000D01*
X11140000Y-7747500D02*
X11140000Y-7772500D01*
X11127500Y-7760000D02*
X11152500Y-7760000D01*
X11190000Y-12172500D02*
X11190000Y-12197500D01*
X11177500Y-12185000D02*
X11202500Y-12185000D01*
X11190000Y-12297500D02*
X11190000Y-12322500D01*
X11177500Y-12310000D02*
X11202500Y-12310000D01*
X11190000Y-12397500D02*
X11190000Y-12422500D01*
X11177500Y-12410000D02*
X11202500Y-12410000D01*
X11190000Y-12497500D02*
X11190000Y-12522500D01*
X11177500Y-12510000D02*
X11202500Y-12510000D01*
X11290000Y-12172500D02*
X11290000Y-12197500D01*
X11277500Y-12185000D02*
X11302500Y-12185000D01*
X11290000Y-12297500D02*
X11290000Y-12322500D01*
X11277500Y-12310000D02*
X11302500Y-12310000D01*
X11290000Y-12397500D02*
X11290000Y-12422500D01*
X11277500Y-12410000D02*
X11302500Y-12410000D01*
X11290000Y-12497500D02*
X11290000Y-12522500D01*
X11277500Y-12510000D02*
X11302500Y-12510000D01*
X11390000Y-12297500D02*
X11390000Y-12322500D01*
X11377500Y-12310000D02*
X11402500Y-12310000D01*
X11390000Y-12397500D02*
X11390000Y-12422500D01*
X11377500Y-12410000D02*
X11402500Y-12410000D01*
D12*
X8513921Y-4344921D02*
X8513921Y-4273079D01*
X8442079Y-4273079D01*
X8442079Y-4344921D01*
X8513921Y-4344921D01*
X8513921Y-4598921D02*
X8513921Y-4527079D01*
X8442079Y-4527079D01*
X8442079Y-4598921D01*
X8513921Y-4598921D01*
X8513921Y-4852921D02*
X8513921Y-4781079D01*
X8442079Y-4781079D01*
X8442079Y-4852921D01*
X8513921Y-4852921D01*
X8513921Y-5106921D02*
X8513921Y-5035079D01*
X8442079Y-5035079D01*
X8442079Y-5106921D01*
X8513921Y-5106921D01*
X8513921Y-5360921D02*
X8513921Y-5289079D01*
X8442079Y-5289079D01*
X8442079Y-5360921D01*
X8513921Y-5360921D01*
X8513921Y-5614921D02*
X8513921Y-5543079D01*
X8442079Y-5543079D01*
X8442079Y-5614921D01*
X8513921Y-5614921D01*
X8513921Y-5868921D02*
X8513921Y-5797079D01*
X8442079Y-5797079D01*
X8442079Y-5868921D01*
X8513921Y-5868921D01*
X8513921Y-6122921D02*
X8513921Y-6051079D01*
X8442079Y-6051079D01*
X8442079Y-6122921D01*
X8513921Y-6122921D01*
X8513921Y-6376921D02*
X8513921Y-6305079D01*
X8442079Y-6305079D01*
X8442079Y-6376921D01*
X8513921Y-6376921D01*
X8513921Y-6630921D02*
X8513921Y-6559079D01*
X8442079Y-6559079D01*
X8442079Y-6630921D01*
X8513921Y-6630921D01*
X8513921Y-6884921D02*
X8513921Y-6813079D01*
X8442079Y-6813079D01*
X8442079Y-6884921D01*
X8513921Y-6884921D01*
X8513921Y-7138921D02*
X8513921Y-7067079D01*
X8442079Y-7067079D01*
X8442079Y-7138921D01*
X8513921Y-7138921D01*
X8513921Y-7392921D02*
X8513921Y-7321079D01*
X8442079Y-7321079D01*
X8442079Y-7392921D01*
X8513921Y-7392921D01*
X8513921Y-7646921D02*
X8513921Y-7575079D01*
X8442079Y-7575079D01*
X8442079Y-7646921D01*
X8513921Y-7646921D01*
X10037921Y-4344921D02*
X10037921Y-4273079D01*
X9966079Y-4273079D01*
X9966079Y-4344921D01*
X10037921Y-4344921D01*
X10037921Y-4598921D02*
X10037921Y-4527079D01*
X9966079Y-4527079D01*
X9966079Y-4598921D01*
X10037921Y-4598921D01*
X10037921Y-4852921D02*
X10037921Y-4781079D01*
X9966079Y-4781079D01*
X9966079Y-4852921D01*
X10037921Y-4852921D01*
X10037921Y-5106921D02*
X10037921Y-5035079D01*
X9966079Y-5035079D01*
X9966079Y-5106921D01*
X10037921Y-5106921D01*
X10037921Y-5360921D02*
X10037921Y-5289079D01*
X9966079Y-5289079D01*
X9966079Y-5360921D01*
X10037921Y-5360921D01*
X10037921Y-5614921D02*
X10037921Y-5543079D01*
X9966079Y-5543079D01*
X9966079Y-5614921D01*
X10037921Y-5614921D01*
X10037921Y-5868921D02*
X10037921Y-5797079D01*
X9966079Y-5797079D01*
X9966079Y-5868921D01*
X10037921Y-5868921D01*
X10037921Y-6122921D02*
X10037921Y-6051079D01*
X9966079Y-6051079D01*
X9966079Y-6122921D01*
X10037921Y-6122921D01*
X10037921Y-6376921D02*
X10037921Y-6305079D01*
X9966079Y-6305079D01*
X9966079Y-6376921D01*
X10037921Y-6376921D01*
X10037921Y-6630921D02*
X10037921Y-6559079D01*
X9966079Y-6559079D01*
X9966079Y-6630921D01*
X10037921Y-6630921D01*
X10037921Y-6884921D02*
X10037921Y-6813079D01*
X9966079Y-6813079D01*
X9966079Y-6884921D01*
X10037921Y-6884921D01*
X10037921Y-7138921D02*
X10037921Y-7067079D01*
X9966079Y-7067079D01*
X9966079Y-7138921D01*
X10037921Y-7138921D01*
X10037921Y-7392921D02*
X10037921Y-7321079D01*
X9966079Y-7321079D01*
X9966079Y-7392921D01*
X10037921Y-7392921D01*
X10037921Y-7646921D02*
X10037921Y-7575079D01*
X9966079Y-7575079D01*
X9966079Y-7646921D01*
X10037921Y-7646921D01*
D13*
X9715000Y-15420000D02*
X9775000Y-15360000D01*
X9715000Y-15300000D01*
X9655000Y-15360000D01*
X9715000Y-15420000D01*
X10065000Y-15420000D02*
X10125000Y-15360000D01*
X10065000Y-15300000D01*
X10005000Y-15360000D01*
X10065000Y-15420000D01*
X10415000Y-15420000D02*
X10475000Y-15360000D01*
X10415000Y-15300000D01*
X10355000Y-15360000D01*
X10415000Y-15420000D01*
X10765000Y-15420000D02*
X10825000Y-15360000D01*
X10765000Y-15300000D01*
X10705000Y-15360000D01*
X10765000Y-15420000D01*
X11365000Y-15420000D02*
X11425000Y-15360000D01*
X11365000Y-15300000D01*
X11305000Y-15360000D01*
X11365000Y-15420000D01*
X11715000Y-15420000D02*
X11775000Y-15360000D01*
X11715000Y-15300000D01*
X11655000Y-15360000D01*
X11715000Y-15420000D01*
X12440000Y-5645000D02*
X12500000Y-5585000D01*
X12440000Y-5525000D01*
X12380000Y-5585000D01*
X12440000Y-5645000D01*
X12440000Y-5995000D02*
X12500000Y-5935000D01*
X12440000Y-5875000D01*
X12380000Y-5935000D01*
X12440000Y-5995000D01*
X12440000Y-6595000D02*
X12500000Y-6535000D01*
X12440000Y-6475000D01*
X12380000Y-6535000D01*
X12440000Y-6595000D01*
X12440000Y-6945000D02*
X12500000Y-6885000D01*
X12440000Y-6825000D01*
X12380000Y-6885000D01*
X12440000Y-6945000D01*
X12440000Y-7295000D02*
X12500000Y-7235000D01*
X12440000Y-7175000D01*
X12380000Y-7235000D01*
X12440000Y-7295000D01*
X12440000Y-7645000D02*
X12500000Y-7585000D01*
X12440000Y-7525000D01*
X12380000Y-7585000D01*
X12440000Y-7645000D01*
X12440000Y-10245000D02*
X12500000Y-10185000D01*
X12440000Y-10125000D01*
X12380000Y-10185000D01*
X12440000Y-10245000D01*
X12440000Y-10595000D02*
X12500000Y-10535000D01*
X12440000Y-10475000D01*
X12380000Y-10535000D01*
X12440000Y-10595000D01*
X12440000Y-11895000D02*
X12500000Y-11835000D01*
X12440000Y-11775000D01*
X12380000Y-11835000D01*
X12440000Y-11895000D01*
X12440000Y-12245000D02*
X12500000Y-12185000D01*
X12440000Y-12125000D01*
X12380000Y-12185000D01*
X12440000Y-12245000D01*
X12440000Y-12595000D02*
X12500000Y-12535000D01*
X12440000Y-12475000D01*
X12380000Y-12535000D01*
X12440000Y-12595000D01*
X12440000Y-12945000D02*
X12500000Y-12885000D01*
X12440000Y-12825000D01*
X12380000Y-12885000D01*
X12440000Y-12945000D01*
D14*
X11065000Y-4580000D02*
X11215000Y-4730000D01*
X11215000Y-4580000D02*
X11065000Y-4730000D01*
X11215000Y-4655000D02*
G75*
G03*
X11065000Y-4655000I-75000J0D01*
G01*
X11065000Y-4655000D02*
G75*
G03*
X11215000Y-4655000I75000J0D01*
G01*
D15*
X11055000Y-5020000D02*
X11225000Y-5190000D01*
X11225000Y-5020000D02*
X11055000Y-5190000D01*
X11140000Y-5020000D02*
X11140000Y-5190000D01*
X11055000Y-5105000D02*
X11225000Y-5105000D01*
D16*
X7580000Y-4500000D02*
X7900000Y-4820000D01*
X7900000Y-4500000D02*
X7580000Y-4820000D01*
X7853138Y-4773138D02*
X7853138Y-4546862D01*
X7626862Y-4546862D01*
X7626862Y-4773138D01*
X7853138Y-4773138D01*
X7580000Y-15500000D02*
X7900000Y-15820000D01*
X7900000Y-15500000D02*
X7580000Y-15820000D01*
X7853138Y-15773138D02*
X7853138Y-15546862D01*
X7626862Y-15546862D01*
X7626862Y-15773138D01*
X7853138Y-15773138D01*
X12580000Y-4500000D02*
X12900000Y-4820000D01*
X12900000Y-4500000D02*
X12580000Y-4820000D01*
X12853138Y-4773138D02*
X12853138Y-4546862D01*
X12626862Y-4546862D01*
X12626862Y-4773138D01*
X12853138Y-4773138D01*
X12580000Y-15500000D02*
X12900000Y-15820000D01*
X12900000Y-15500000D02*
X12580000Y-15820000D01*
X12853138Y-15773138D02*
X12853138Y-15546862D01*
X12626862Y-15546862D01*
X12626862Y-15773138D01*
X12853138Y-15773138D01*
D11*
X7495777Y-16476484D02*
X7495777Y-16276484D01*
X7495777Y-16276484D02*
X7543396Y-16276484D01*
X7543396Y-16276484D02*
X7571967Y-16286008D01*
X7571967Y-16286008D02*
X7591015Y-16305055D01*
X7591015Y-16305055D02*
X7600539Y-16324103D01*
X7600539Y-16324103D02*
X7610062Y-16362198D01*
X7610062Y-16362198D02*
X7610062Y-16390769D01*
X7610062Y-16390769D02*
X7600539Y-16428865D01*
X7600539Y-16428865D02*
X7591015Y-16447912D01*
X7591015Y-16447912D02*
X7571967Y-16466960D01*
X7571967Y-16466960D02*
X7543396Y-16476484D01*
X7543396Y-16476484D02*
X7495777Y-16476484D01*
X7695777Y-16476484D02*
X7695777Y-16343150D01*
X7695777Y-16381246D02*
X7705301Y-16362198D01*
X7705301Y-16362198D02*
X7714824Y-16352674D01*
X7714824Y-16352674D02*
X7733872Y-16343150D01*
X7733872Y-16343150D02*
X7752920Y-16343150D01*
X7819586Y-16476484D02*
X7819586Y-16343150D01*
X7819586Y-16276484D02*
X7810062Y-16286008D01*
X7810062Y-16286008D02*
X7819586Y-16295531D01*
X7819586Y-16295531D02*
X7829110Y-16286008D01*
X7829110Y-16286008D02*
X7819586Y-16276484D01*
X7819586Y-16276484D02*
X7819586Y-16295531D01*
X7943396Y-16476484D02*
X7924348Y-16466960D01*
X7924348Y-16466960D02*
X7914824Y-16447912D01*
X7914824Y-16447912D02*
X7914824Y-16276484D01*
X8048158Y-16476484D02*
X8029110Y-16466960D01*
X8029110Y-16466960D02*
X8019586Y-16447912D01*
X8019586Y-16447912D02*
X8019586Y-16276484D01*
X8276729Y-16476484D02*
X8276729Y-16276484D01*
X8276729Y-16276484D02*
X8343396Y-16419341D01*
X8343396Y-16419341D02*
X8410063Y-16276484D01*
X8410063Y-16276484D02*
X8410063Y-16476484D01*
X8591015Y-16476484D02*
X8591015Y-16371722D01*
X8591015Y-16371722D02*
X8581491Y-16352674D01*
X8581491Y-16352674D02*
X8562444Y-16343150D01*
X8562444Y-16343150D02*
X8524348Y-16343150D01*
X8524348Y-16343150D02*
X8505301Y-16352674D01*
X8591015Y-16466960D02*
X8571967Y-16476484D01*
X8571967Y-16476484D02*
X8524348Y-16476484D01*
X8524348Y-16476484D02*
X8505301Y-16466960D01*
X8505301Y-16466960D02*
X8495777Y-16447912D01*
X8495777Y-16447912D02*
X8495777Y-16428865D01*
X8495777Y-16428865D02*
X8505301Y-16409817D01*
X8505301Y-16409817D02*
X8524348Y-16400293D01*
X8524348Y-16400293D02*
X8571967Y-16400293D01*
X8571967Y-16400293D02*
X8591015Y-16390769D01*
X8686253Y-16343150D02*
X8686253Y-16543150D01*
X8686253Y-16352674D02*
X8705301Y-16343150D01*
X8705301Y-16343150D02*
X8743396Y-16343150D01*
X8743396Y-16343150D02*
X8762444Y-16352674D01*
X8762444Y-16352674D02*
X8771967Y-16362198D01*
X8771967Y-16362198D02*
X8781491Y-16381246D01*
X8781491Y-16381246D02*
X8781491Y-16438388D01*
X8781491Y-16438388D02*
X8771967Y-16457436D01*
X8771967Y-16457436D02*
X8762444Y-16466960D01*
X8762444Y-16466960D02*
X8743396Y-16476484D01*
X8743396Y-16476484D02*
X8705301Y-16476484D01*
X8705301Y-16476484D02*
X8686253Y-16466960D01*
X8867205Y-16457436D02*
X8876729Y-16466960D01*
X8876729Y-16466960D02*
X8867205Y-16476484D01*
X8867205Y-16476484D02*
X8857682Y-16466960D01*
X8857682Y-16466960D02*
X8867205Y-16457436D01*
X8867205Y-16457436D02*
X8867205Y-16476484D01*
X8867205Y-16352674D02*
X8876729Y-16362198D01*
X8876729Y-16362198D02*
X8867205Y-16371722D01*
X8867205Y-16371722D02*
X8857682Y-16362198D01*
X8857682Y-16362198D02*
X8867205Y-16352674D01*
X8867205Y-16352674D02*
X8867205Y-16371722D01*
D10*
X7215000Y-16795000D02*
X7235000Y-16815000D01*
X7235000Y-16795000D02*
X7215000Y-16815000D01*
D11*
X7533872Y-16696484D02*
X7552920Y-16696484D01*
X7552920Y-16696484D02*
X7571967Y-16706008D01*
X7571967Y-16706008D02*
X7581491Y-16715531D01*
X7581491Y-16715531D02*
X7591015Y-16734579D01*
X7591015Y-16734579D02*
X7600539Y-16772674D01*
X7600539Y-16772674D02*
X7600539Y-16820293D01*
X7600539Y-16820293D02*
X7591015Y-16858389D01*
X7591015Y-16858389D02*
X7581491Y-16877436D01*
X7581491Y-16877436D02*
X7571967Y-16886960D01*
X7571967Y-16886960D02*
X7552920Y-16896484D01*
X7552920Y-16896484D02*
X7533872Y-16896484D01*
X7533872Y-16896484D02*
X7514824Y-16886960D01*
X7514824Y-16886960D02*
X7505301Y-16877436D01*
X7505301Y-16877436D02*
X7495777Y-16858389D01*
X7495777Y-16858389D02*
X7486253Y-16820293D01*
X7486253Y-16820293D02*
X7486253Y-16772674D01*
X7486253Y-16772674D02*
X7495777Y-16734579D01*
X7495777Y-16734579D02*
X7505301Y-16715531D01*
X7505301Y-16715531D02*
X7514824Y-16706008D01*
X7514824Y-16706008D02*
X7533872Y-16696484D01*
X7686253Y-16877436D02*
X7695777Y-16886960D01*
X7695777Y-16886960D02*
X7686253Y-16896484D01*
X7686253Y-16896484D02*
X7676729Y-16886960D01*
X7676729Y-16886960D02*
X7686253Y-16877436D01*
X7686253Y-16877436D02*
X7686253Y-16896484D01*
X7771967Y-16715531D02*
X7781491Y-16706008D01*
X7781491Y-16706008D02*
X7800539Y-16696484D01*
X7800539Y-16696484D02*
X7848158Y-16696484D01*
X7848158Y-16696484D02*
X7867205Y-16706008D01*
X7867205Y-16706008D02*
X7876729Y-16715531D01*
X7876729Y-16715531D02*
X7886253Y-16734579D01*
X7886253Y-16734579D02*
X7886253Y-16753627D01*
X7886253Y-16753627D02*
X7876729Y-16782198D01*
X7876729Y-16782198D02*
X7762443Y-16896484D01*
X7762443Y-16896484D02*
X7886253Y-16896484D01*
X8010062Y-16696484D02*
X8029110Y-16696484D01*
X8029110Y-16696484D02*
X8048158Y-16706008D01*
X8048158Y-16706008D02*
X8057682Y-16715531D01*
X8057682Y-16715531D02*
X8067205Y-16734579D01*
X8067205Y-16734579D02*
X8076729Y-16772674D01*
X8076729Y-16772674D02*
X8076729Y-16820293D01*
X8076729Y-16820293D02*
X8067205Y-16858389D01*
X8067205Y-16858389D02*
X8057682Y-16877436D01*
X8057682Y-16877436D02*
X8048158Y-16886960D01*
X8048158Y-16886960D02*
X8029110Y-16896484D01*
X8029110Y-16896484D02*
X8010062Y-16896484D01*
X8010062Y-16896484D02*
X7991015Y-16886960D01*
X7991015Y-16886960D02*
X7981491Y-16877436D01*
X7981491Y-16877436D02*
X7971967Y-16858389D01*
X7971967Y-16858389D02*
X7962443Y-16820293D01*
X7962443Y-16820293D02*
X7962443Y-16772674D01*
X7962443Y-16772674D02*
X7971967Y-16734579D01*
X7971967Y-16734579D02*
X7981491Y-16715531D01*
X7981491Y-16715531D02*
X7991015Y-16706008D01*
X7991015Y-16706008D02*
X8010062Y-16696484D01*
X8200539Y-16696484D02*
X8219586Y-16696484D01*
X8219586Y-16696484D02*
X8238634Y-16706008D01*
X8238634Y-16706008D02*
X8248158Y-16715531D01*
X8248158Y-16715531D02*
X8257682Y-16734579D01*
X8257682Y-16734579D02*
X8267205Y-16772674D01*
X8267205Y-16772674D02*
X8267205Y-16820293D01*
X8267205Y-16820293D02*
X8257682Y-16858389D01*
X8257682Y-16858389D02*
X8248158Y-16877436D01*
X8248158Y-16877436D02*
X8238634Y-16886960D01*
X8238634Y-16886960D02*
X8219586Y-16896484D01*
X8219586Y-16896484D02*
X8200539Y-16896484D01*
X8200539Y-16896484D02*
X8181491Y-16886960D01*
X8181491Y-16886960D02*
X8171967Y-16877436D01*
X8171967Y-16877436D02*
X8162443Y-16858389D01*
X8162443Y-16858389D02*
X8152920Y-16820293D01*
X8152920Y-16820293D02*
X8152920Y-16772674D01*
X8152920Y-16772674D02*
X8162443Y-16734579D01*
X8162443Y-16734579D02*
X8171967Y-16715531D01*
X8171967Y-16715531D02*
X8181491Y-16706008D01*
X8181491Y-16706008D02*
X8200539Y-16696484D01*
X8352920Y-16896484D02*
X8352920Y-16763150D01*
X8352920Y-16782198D02*
X8362443Y-16772674D01*
X8362443Y-16772674D02*
X8381491Y-16763150D01*
X8381491Y-16763150D02*
X8410063Y-16763150D01*
X8410063Y-16763150D02*
X8429110Y-16772674D01*
X8429110Y-16772674D02*
X8438634Y-16791722D01*
X8438634Y-16791722D02*
X8438634Y-16896484D01*
X8438634Y-16791722D02*
X8448158Y-16772674D01*
X8448158Y-16772674D02*
X8467205Y-16763150D01*
X8467205Y-16763150D02*
X8495777Y-16763150D01*
X8495777Y-16763150D02*
X8514825Y-16772674D01*
X8514825Y-16772674D02*
X8524348Y-16791722D01*
X8524348Y-16791722D02*
X8524348Y-16896484D01*
X8619586Y-16896484D02*
X8619586Y-16763150D01*
X8619586Y-16782198D02*
X8629110Y-16772674D01*
X8629110Y-16772674D02*
X8648158Y-16763150D01*
X8648158Y-16763150D02*
X8676729Y-16763150D01*
X8676729Y-16763150D02*
X8695777Y-16772674D01*
X8695777Y-16772674D02*
X8705301Y-16791722D01*
X8705301Y-16791722D02*
X8705301Y-16896484D01*
X8705301Y-16791722D02*
X8714825Y-16772674D01*
X8714825Y-16772674D02*
X8733872Y-16763150D01*
X8733872Y-16763150D02*
X8762444Y-16763150D01*
X8762444Y-16763150D02*
X8781491Y-16772674D01*
X8781491Y-16772674D02*
X8791015Y-16791722D01*
X8791015Y-16791722D02*
X8791015Y-16896484D01*
X9181491Y-16686960D02*
X9010063Y-16944103D01*
X9438634Y-16696484D02*
X9457682Y-16696484D01*
X9457682Y-16696484D02*
X9476729Y-16706008D01*
X9476729Y-16706008D02*
X9486253Y-16715531D01*
X9486253Y-16715531D02*
X9495777Y-16734579D01*
X9495777Y-16734579D02*
X9505301Y-16772674D01*
X9505301Y-16772674D02*
X9505301Y-16820293D01*
X9505301Y-16820293D02*
X9495777Y-16858389D01*
X9495777Y-16858389D02*
X9486253Y-16877436D01*
X9486253Y-16877436D02*
X9476729Y-16886960D01*
X9476729Y-16886960D02*
X9457682Y-16896484D01*
X9457682Y-16896484D02*
X9438634Y-16896484D01*
X9438634Y-16896484D02*
X9419587Y-16886960D01*
X9419587Y-16886960D02*
X9410063Y-16877436D01*
X9410063Y-16877436D02*
X9400539Y-16858389D01*
X9400539Y-16858389D02*
X9391015Y-16820293D01*
X9391015Y-16820293D02*
X9391015Y-16772674D01*
X9391015Y-16772674D02*
X9400539Y-16734579D01*
X9400539Y-16734579D02*
X9410063Y-16715531D01*
X9410063Y-16715531D02*
X9419587Y-16706008D01*
X9419587Y-16706008D02*
X9438634Y-16696484D01*
X9591015Y-16877436D02*
X9600539Y-16886960D01*
X9600539Y-16886960D02*
X9591015Y-16896484D01*
X9591015Y-16896484D02*
X9581491Y-16886960D01*
X9581491Y-16886960D02*
X9591015Y-16877436D01*
X9591015Y-16877436D02*
X9591015Y-16896484D01*
X9724348Y-16696484D02*
X9743396Y-16696484D01*
X9743396Y-16696484D02*
X9762444Y-16706008D01*
X9762444Y-16706008D02*
X9771968Y-16715531D01*
X9771968Y-16715531D02*
X9781491Y-16734579D01*
X9781491Y-16734579D02*
X9791015Y-16772674D01*
X9791015Y-16772674D02*
X9791015Y-16820293D01*
X9791015Y-16820293D02*
X9781491Y-16858389D01*
X9781491Y-16858389D02*
X9771968Y-16877436D01*
X9771968Y-16877436D02*
X9762444Y-16886960D01*
X9762444Y-16886960D02*
X9743396Y-16896484D01*
X9743396Y-16896484D02*
X9724348Y-16896484D01*
X9724348Y-16896484D02*
X9705301Y-16886960D01*
X9705301Y-16886960D02*
X9695777Y-16877436D01*
X9695777Y-16877436D02*
X9686253Y-16858389D01*
X9686253Y-16858389D02*
X9676729Y-16820293D01*
X9676729Y-16820293D02*
X9676729Y-16772674D01*
X9676729Y-16772674D02*
X9686253Y-16734579D01*
X9686253Y-16734579D02*
X9695777Y-16715531D01*
X9695777Y-16715531D02*
X9705301Y-16706008D01*
X9705301Y-16706008D02*
X9724348Y-16696484D01*
X9914825Y-16696484D02*
X9933872Y-16696484D01*
X9933872Y-16696484D02*
X9952920Y-16706008D01*
X9952920Y-16706008D02*
X9962444Y-16715531D01*
X9962444Y-16715531D02*
X9971968Y-16734579D01*
X9971968Y-16734579D02*
X9981491Y-16772674D01*
X9981491Y-16772674D02*
X9981491Y-16820293D01*
X9981491Y-16820293D02*
X9971968Y-16858389D01*
X9971968Y-16858389D02*
X9962444Y-16877436D01*
X9962444Y-16877436D02*
X9952920Y-16886960D01*
X9952920Y-16886960D02*
X9933872Y-16896484D01*
X9933872Y-16896484D02*
X9914825Y-16896484D01*
X9914825Y-16896484D02*
X9895777Y-16886960D01*
X9895777Y-16886960D02*
X9886253Y-16877436D01*
X9886253Y-16877436D02*
X9876729Y-16858389D01*
X9876729Y-16858389D02*
X9867206Y-16820293D01*
X9867206Y-16820293D02*
X9867206Y-16772674D01*
X9867206Y-16772674D02*
X9876729Y-16734579D01*
X9876729Y-16734579D02*
X9886253Y-16715531D01*
X9886253Y-16715531D02*
X9895777Y-16706008D01*
X9895777Y-16706008D02*
X9914825Y-16696484D01*
X10048158Y-16696484D02*
X10181491Y-16696484D01*
X10181491Y-16696484D02*
X10095777Y-16896484D01*
X10267206Y-16896484D02*
X10305301Y-16896484D01*
X10305301Y-16896484D02*
X10324349Y-16886960D01*
X10324349Y-16886960D02*
X10333872Y-16877436D01*
X10333872Y-16877436D02*
X10352920Y-16848865D01*
X10352920Y-16848865D02*
X10362444Y-16810770D01*
X10362444Y-16810770D02*
X10362444Y-16734579D01*
X10362444Y-16734579D02*
X10352920Y-16715531D01*
X10352920Y-16715531D02*
X10343396Y-16706008D01*
X10343396Y-16706008D02*
X10324349Y-16696484D01*
X10324349Y-16696484D02*
X10286253Y-16696484D01*
X10286253Y-16696484D02*
X10267206Y-16706008D01*
X10267206Y-16706008D02*
X10257682Y-16715531D01*
X10257682Y-16715531D02*
X10248158Y-16734579D01*
X10248158Y-16734579D02*
X10248158Y-16782198D01*
X10248158Y-16782198D02*
X10257682Y-16801246D01*
X10257682Y-16801246D02*
X10267206Y-16810770D01*
X10267206Y-16810770D02*
X10286253Y-16820293D01*
X10286253Y-16820293D02*
X10324349Y-16820293D01*
X10324349Y-16820293D02*
X10343396Y-16810770D01*
X10343396Y-16810770D02*
X10352920Y-16801246D01*
X10352920Y-16801246D02*
X10362444Y-16782198D01*
X10438634Y-16696484D02*
X10438634Y-16734579D01*
X10514825Y-16696484D02*
X10514825Y-16734579D01*
X10810063Y-16972674D02*
X10800539Y-16963150D01*
X10800539Y-16963150D02*
X10781491Y-16934579D01*
X10781491Y-16934579D02*
X10771968Y-16915531D01*
X10771968Y-16915531D02*
X10762444Y-16886960D01*
X10762444Y-16886960D02*
X10752920Y-16839341D01*
X10752920Y-16839341D02*
X10752920Y-16801246D01*
X10752920Y-16801246D02*
X10762444Y-16753627D01*
X10762444Y-16753627D02*
X10771968Y-16725055D01*
X10771968Y-16725055D02*
X10781491Y-16706008D01*
X10781491Y-16706008D02*
X10800539Y-16677436D01*
X10800539Y-16677436D02*
X10810063Y-16667912D01*
X10876730Y-16715531D02*
X10886253Y-16706008D01*
X10886253Y-16706008D02*
X10905301Y-16696484D01*
X10905301Y-16696484D02*
X10952920Y-16696484D01*
X10952920Y-16696484D02*
X10971968Y-16706008D01*
X10971968Y-16706008D02*
X10981491Y-16715531D01*
X10981491Y-16715531D02*
X10991015Y-16734579D01*
X10991015Y-16734579D02*
X10991015Y-16753627D01*
X10991015Y-16753627D02*
X10981491Y-16782198D01*
X10981491Y-16782198D02*
X10867206Y-16896484D01*
X10867206Y-16896484D02*
X10991015Y-16896484D01*
X11229110Y-16896484D02*
X11229110Y-16696484D01*
X11314825Y-16896484D02*
X11314825Y-16791722D01*
X11314825Y-16791722D02*
X11305301Y-16772674D01*
X11305301Y-16772674D02*
X11286253Y-16763150D01*
X11286253Y-16763150D02*
X11257682Y-16763150D01*
X11257682Y-16763150D02*
X11238634Y-16772674D01*
X11238634Y-16772674D02*
X11229110Y-16782198D01*
X11438634Y-16896484D02*
X11419587Y-16886960D01*
X11419587Y-16886960D02*
X11410063Y-16877436D01*
X11410063Y-16877436D02*
X11400539Y-16858389D01*
X11400539Y-16858389D02*
X11400539Y-16801246D01*
X11400539Y-16801246D02*
X11410063Y-16782198D01*
X11410063Y-16782198D02*
X11419587Y-16772674D01*
X11419587Y-16772674D02*
X11438634Y-16763150D01*
X11438634Y-16763150D02*
X11467206Y-16763150D01*
X11467206Y-16763150D02*
X11486253Y-16772674D01*
X11486253Y-16772674D02*
X11495777Y-16782198D01*
X11495777Y-16782198D02*
X11505301Y-16801246D01*
X11505301Y-16801246D02*
X11505301Y-16858389D01*
X11505301Y-16858389D02*
X11495777Y-16877436D01*
X11495777Y-16877436D02*
X11486253Y-16886960D01*
X11486253Y-16886960D02*
X11467206Y-16896484D01*
X11467206Y-16896484D02*
X11438634Y-16896484D01*
X11619587Y-16896484D02*
X11600539Y-16886960D01*
X11600539Y-16886960D02*
X11591015Y-16867912D01*
X11591015Y-16867912D02*
X11591015Y-16696484D01*
X11771968Y-16886960D02*
X11752920Y-16896484D01*
X11752920Y-16896484D02*
X11714825Y-16896484D01*
X11714825Y-16896484D02*
X11695777Y-16886960D01*
X11695777Y-16886960D02*
X11686253Y-16867912D01*
X11686253Y-16867912D02*
X11686253Y-16791722D01*
X11686253Y-16791722D02*
X11695777Y-16772674D01*
X11695777Y-16772674D02*
X11714825Y-16763150D01*
X11714825Y-16763150D02*
X11752920Y-16763150D01*
X11752920Y-16763150D02*
X11771968Y-16772674D01*
X11771968Y-16772674D02*
X11781491Y-16791722D01*
X11781491Y-16791722D02*
X11781491Y-16810770D01*
X11781491Y-16810770D02*
X11686253Y-16829817D01*
X11857682Y-16886960D02*
X11876730Y-16896484D01*
X11876730Y-16896484D02*
X11914825Y-16896484D01*
X11914825Y-16896484D02*
X11933872Y-16886960D01*
X11933872Y-16886960D02*
X11943396Y-16867912D01*
X11943396Y-16867912D02*
X11943396Y-16858389D01*
X11943396Y-16858389D02*
X11933872Y-16839341D01*
X11933872Y-16839341D02*
X11914825Y-16829817D01*
X11914825Y-16829817D02*
X11886253Y-16829817D01*
X11886253Y-16829817D02*
X11867206Y-16820293D01*
X11867206Y-16820293D02*
X11857682Y-16801246D01*
X11857682Y-16801246D02*
X11857682Y-16791722D01*
X11857682Y-16791722D02*
X11867206Y-16772674D01*
X11867206Y-16772674D02*
X11886253Y-16763150D01*
X11886253Y-16763150D02*
X11914825Y-16763150D01*
X11914825Y-16763150D02*
X11933872Y-16772674D01*
X12010063Y-16972674D02*
X12019587Y-16963150D01*
X12019587Y-16963150D02*
X12038634Y-16934579D01*
X12038634Y-16934579D02*
X12048158Y-16915531D01*
X12048158Y-16915531D02*
X12057682Y-16886960D01*
X12057682Y-16886960D02*
X12067206Y-16839341D01*
X12067206Y-16839341D02*
X12067206Y-16801246D01*
X12067206Y-16801246D02*
X12057682Y-16753627D01*
X12057682Y-16753627D02*
X12048158Y-16725055D01*
X12048158Y-16725055D02*
X12038634Y-16706008D01*
X12038634Y-16706008D02*
X12019587Y-16677436D01*
X12019587Y-16677436D02*
X12010063Y-16667912D01*
D10*
X7235000Y-17069000D02*
G75*
G03*
X7210000Y-17069000I-12500J0D01*
G01*
X7210000Y-17069000D02*
G75*
G03*
X7235000Y-17069000I12500J0D01*
G01*
D11*
X7533872Y-16960484D02*
X7552920Y-16960484D01*
X7552920Y-16960484D02*
X7571967Y-16970008D01*
X7571967Y-16970008D02*
X7581491Y-16979531D01*
X7581491Y-16979531D02*
X7591015Y-16998579D01*
X7591015Y-16998579D02*
X7600539Y-17036674D01*
X7600539Y-17036674D02*
X7600539Y-17084293D01*
X7600539Y-17084293D02*
X7591015Y-17122389D01*
X7591015Y-17122389D02*
X7581491Y-17141436D01*
X7581491Y-17141436D02*
X7571967Y-17150960D01*
X7571967Y-17150960D02*
X7552920Y-17160484D01*
X7552920Y-17160484D02*
X7533872Y-17160484D01*
X7533872Y-17160484D02*
X7514824Y-17150960D01*
X7514824Y-17150960D02*
X7505301Y-17141436D01*
X7505301Y-17141436D02*
X7495777Y-17122389D01*
X7495777Y-17122389D02*
X7486253Y-17084293D01*
X7486253Y-17084293D02*
X7486253Y-17036674D01*
X7486253Y-17036674D02*
X7495777Y-16998579D01*
X7495777Y-16998579D02*
X7505301Y-16979531D01*
X7505301Y-16979531D02*
X7514824Y-16970008D01*
X7514824Y-16970008D02*
X7533872Y-16960484D01*
X7686253Y-17141436D02*
X7695777Y-17150960D01*
X7695777Y-17150960D02*
X7686253Y-17160484D01*
X7686253Y-17160484D02*
X7676729Y-17150960D01*
X7676729Y-17150960D02*
X7686253Y-17141436D01*
X7686253Y-17141436D02*
X7686253Y-17160484D01*
X7771967Y-16979531D02*
X7781491Y-16970008D01*
X7781491Y-16970008D02*
X7800539Y-16960484D01*
X7800539Y-16960484D02*
X7848158Y-16960484D01*
X7848158Y-16960484D02*
X7867205Y-16970008D01*
X7867205Y-16970008D02*
X7876729Y-16979531D01*
X7876729Y-16979531D02*
X7886253Y-16998579D01*
X7886253Y-16998579D02*
X7886253Y-17017627D01*
X7886253Y-17017627D02*
X7876729Y-17046198D01*
X7876729Y-17046198D02*
X7762443Y-17160484D01*
X7762443Y-17160484D02*
X7886253Y-17160484D01*
X8067205Y-16960484D02*
X7971967Y-16960484D01*
X7971967Y-16960484D02*
X7962443Y-17055722D01*
X7962443Y-17055722D02*
X7971967Y-17046198D01*
X7971967Y-17046198D02*
X7991015Y-17036674D01*
X7991015Y-17036674D02*
X8038634Y-17036674D01*
X8038634Y-17036674D02*
X8057682Y-17046198D01*
X8057682Y-17046198D02*
X8067205Y-17055722D01*
X8067205Y-17055722D02*
X8076729Y-17074770D01*
X8076729Y-17074770D02*
X8076729Y-17122389D01*
X8076729Y-17122389D02*
X8067205Y-17141436D01*
X8067205Y-17141436D02*
X8057682Y-17150960D01*
X8057682Y-17150960D02*
X8038634Y-17160484D01*
X8038634Y-17160484D02*
X7991015Y-17160484D01*
X7991015Y-17160484D02*
X7971967Y-17150960D01*
X7971967Y-17150960D02*
X7962443Y-17141436D01*
X8200539Y-16960484D02*
X8219586Y-16960484D01*
X8219586Y-16960484D02*
X8238634Y-16970008D01*
X8238634Y-16970008D02*
X8248158Y-16979531D01*
X8248158Y-16979531D02*
X8257682Y-16998579D01*
X8257682Y-16998579D02*
X8267205Y-17036674D01*
X8267205Y-17036674D02*
X8267205Y-17084293D01*
X8267205Y-17084293D02*
X8257682Y-17122389D01*
X8257682Y-17122389D02*
X8248158Y-17141436D01*
X8248158Y-17141436D02*
X8238634Y-17150960D01*
X8238634Y-17150960D02*
X8219586Y-17160484D01*
X8219586Y-17160484D02*
X8200539Y-17160484D01*
X8200539Y-17160484D02*
X8181491Y-17150960D01*
X8181491Y-17150960D02*
X8171967Y-17141436D01*
X8171967Y-17141436D02*
X8162443Y-17122389D01*
X8162443Y-17122389D02*
X8152920Y-17084293D01*
X8152920Y-17084293D02*
X8152920Y-17036674D01*
X8152920Y-17036674D02*
X8162443Y-16998579D01*
X8162443Y-16998579D02*
X8171967Y-16979531D01*
X8171967Y-16979531D02*
X8181491Y-16970008D01*
X8181491Y-16970008D02*
X8200539Y-16960484D01*
X8352920Y-17160484D02*
X8352920Y-17027150D01*
X8352920Y-17046198D02*
X8362443Y-17036674D01*
X8362443Y-17036674D02*
X8381491Y-17027150D01*
X8381491Y-17027150D02*
X8410063Y-17027150D01*
X8410063Y-17027150D02*
X8429110Y-17036674D01*
X8429110Y-17036674D02*
X8438634Y-17055722D01*
X8438634Y-17055722D02*
X8438634Y-17160484D01*
X8438634Y-17055722D02*
X8448158Y-17036674D01*
X8448158Y-17036674D02*
X8467205Y-17027150D01*
X8467205Y-17027150D02*
X8495777Y-17027150D01*
X8495777Y-17027150D02*
X8514825Y-17036674D01*
X8514825Y-17036674D02*
X8524348Y-17055722D01*
X8524348Y-17055722D02*
X8524348Y-17160484D01*
X8619586Y-17160484D02*
X8619586Y-17027150D01*
X8619586Y-17046198D02*
X8629110Y-17036674D01*
X8629110Y-17036674D02*
X8648158Y-17027150D01*
X8648158Y-17027150D02*
X8676729Y-17027150D01*
X8676729Y-17027150D02*
X8695777Y-17036674D01*
X8695777Y-17036674D02*
X8705301Y-17055722D01*
X8705301Y-17055722D02*
X8705301Y-17160484D01*
X8705301Y-17055722D02*
X8714825Y-17036674D01*
X8714825Y-17036674D02*
X8733872Y-17027150D01*
X8733872Y-17027150D02*
X8762444Y-17027150D01*
X8762444Y-17027150D02*
X8781491Y-17036674D01*
X8781491Y-17036674D02*
X8791015Y-17055722D01*
X8791015Y-17055722D02*
X8791015Y-17160484D01*
X9181491Y-16950960D02*
X9010063Y-17208103D01*
X9438634Y-16960484D02*
X9457682Y-16960484D01*
X9457682Y-16960484D02*
X9476729Y-16970008D01*
X9476729Y-16970008D02*
X9486253Y-16979531D01*
X9486253Y-16979531D02*
X9495777Y-16998579D01*
X9495777Y-16998579D02*
X9505301Y-17036674D01*
X9505301Y-17036674D02*
X9505301Y-17084293D01*
X9505301Y-17084293D02*
X9495777Y-17122389D01*
X9495777Y-17122389D02*
X9486253Y-17141436D01*
X9486253Y-17141436D02*
X9476729Y-17150960D01*
X9476729Y-17150960D02*
X9457682Y-17160484D01*
X9457682Y-17160484D02*
X9438634Y-17160484D01*
X9438634Y-17160484D02*
X9419587Y-17150960D01*
X9419587Y-17150960D02*
X9410063Y-17141436D01*
X9410063Y-17141436D02*
X9400539Y-17122389D01*
X9400539Y-17122389D02*
X9391015Y-17084293D01*
X9391015Y-17084293D02*
X9391015Y-17036674D01*
X9391015Y-17036674D02*
X9400539Y-16998579D01*
X9400539Y-16998579D02*
X9410063Y-16979531D01*
X9410063Y-16979531D02*
X9419587Y-16970008D01*
X9419587Y-16970008D02*
X9438634Y-16960484D01*
X9591015Y-17141436D02*
X9600539Y-17150960D01*
X9600539Y-17150960D02*
X9591015Y-17160484D01*
X9591015Y-17160484D02*
X9581491Y-17150960D01*
X9581491Y-17150960D02*
X9591015Y-17141436D01*
X9591015Y-17141436D02*
X9591015Y-17160484D01*
X9724348Y-16960484D02*
X9743396Y-16960484D01*
X9743396Y-16960484D02*
X9762444Y-16970008D01*
X9762444Y-16970008D02*
X9771968Y-16979531D01*
X9771968Y-16979531D02*
X9781491Y-16998579D01*
X9781491Y-16998579D02*
X9791015Y-17036674D01*
X9791015Y-17036674D02*
X9791015Y-17084293D01*
X9791015Y-17084293D02*
X9781491Y-17122389D01*
X9781491Y-17122389D02*
X9771968Y-17141436D01*
X9771968Y-17141436D02*
X9762444Y-17150960D01*
X9762444Y-17150960D02*
X9743396Y-17160484D01*
X9743396Y-17160484D02*
X9724348Y-17160484D01*
X9724348Y-17160484D02*
X9705301Y-17150960D01*
X9705301Y-17150960D02*
X9695777Y-17141436D01*
X9695777Y-17141436D02*
X9686253Y-17122389D01*
X9686253Y-17122389D02*
X9676729Y-17084293D01*
X9676729Y-17084293D02*
X9676729Y-17036674D01*
X9676729Y-17036674D02*
X9686253Y-16998579D01*
X9686253Y-16998579D02*
X9695777Y-16979531D01*
X9695777Y-16979531D02*
X9705301Y-16970008D01*
X9705301Y-16970008D02*
X9724348Y-16960484D01*
X9914825Y-16960484D02*
X9933872Y-16960484D01*
X9933872Y-16960484D02*
X9952920Y-16970008D01*
X9952920Y-16970008D02*
X9962444Y-16979531D01*
X9962444Y-16979531D02*
X9971968Y-16998579D01*
X9971968Y-16998579D02*
X9981491Y-17036674D01*
X9981491Y-17036674D02*
X9981491Y-17084293D01*
X9981491Y-17084293D02*
X9971968Y-17122389D01*
X9971968Y-17122389D02*
X9962444Y-17141436D01*
X9962444Y-17141436D02*
X9952920Y-17150960D01*
X9952920Y-17150960D02*
X9933872Y-17160484D01*
X9933872Y-17160484D02*
X9914825Y-17160484D01*
X9914825Y-17160484D02*
X9895777Y-17150960D01*
X9895777Y-17150960D02*
X9886253Y-17141436D01*
X9886253Y-17141436D02*
X9876729Y-17122389D01*
X9876729Y-17122389D02*
X9867206Y-17084293D01*
X9867206Y-17084293D02*
X9867206Y-17036674D01*
X9867206Y-17036674D02*
X9876729Y-16998579D01*
X9876729Y-16998579D02*
X9886253Y-16979531D01*
X9886253Y-16979531D02*
X9895777Y-16970008D01*
X9895777Y-16970008D02*
X9914825Y-16960484D01*
X10076729Y-17160484D02*
X10114825Y-17160484D01*
X10114825Y-17160484D02*
X10133872Y-17150960D01*
X10133872Y-17150960D02*
X10143396Y-17141436D01*
X10143396Y-17141436D02*
X10162444Y-17112865D01*
X10162444Y-17112865D02*
X10171968Y-17074770D01*
X10171968Y-17074770D02*
X10171968Y-16998579D01*
X10171968Y-16998579D02*
X10162444Y-16979531D01*
X10162444Y-16979531D02*
X10152920Y-16970008D01*
X10152920Y-16970008D02*
X10133872Y-16960484D01*
X10133872Y-16960484D02*
X10095777Y-16960484D01*
X10095777Y-16960484D02*
X10076729Y-16970008D01*
X10076729Y-16970008D02*
X10067206Y-16979531D01*
X10067206Y-16979531D02*
X10057682Y-16998579D01*
X10057682Y-16998579D02*
X10057682Y-17046198D01*
X10057682Y-17046198D02*
X10067206Y-17065246D01*
X10067206Y-17065246D02*
X10076729Y-17074770D01*
X10076729Y-17074770D02*
X10095777Y-17084293D01*
X10095777Y-17084293D02*
X10133872Y-17084293D01*
X10133872Y-17084293D02*
X10152920Y-17074770D01*
X10152920Y-17074770D02*
X10162444Y-17065246D01*
X10162444Y-17065246D02*
X10171968Y-17046198D01*
X10286253Y-17046198D02*
X10267206Y-17036674D01*
X10267206Y-17036674D02*
X10257682Y-17027150D01*
X10257682Y-17027150D02*
X10248158Y-17008103D01*
X10248158Y-17008103D02*
X10248158Y-16998579D01*
X10248158Y-16998579D02*
X10257682Y-16979531D01*
X10257682Y-16979531D02*
X10267206Y-16970008D01*
X10267206Y-16970008D02*
X10286253Y-16960484D01*
X10286253Y-16960484D02*
X10324349Y-16960484D01*
X10324349Y-16960484D02*
X10343396Y-16970008D01*
X10343396Y-16970008D02*
X10352920Y-16979531D01*
X10352920Y-16979531D02*
X10362444Y-16998579D01*
X10362444Y-16998579D02*
X10362444Y-17008103D01*
X10362444Y-17008103D02*
X10352920Y-17027150D01*
X10352920Y-17027150D02*
X10343396Y-17036674D01*
X10343396Y-17036674D02*
X10324349Y-17046198D01*
X10324349Y-17046198D02*
X10286253Y-17046198D01*
X10286253Y-17046198D02*
X10267206Y-17055722D01*
X10267206Y-17055722D02*
X10257682Y-17065246D01*
X10257682Y-17065246D02*
X10248158Y-17084293D01*
X10248158Y-17084293D02*
X10248158Y-17122389D01*
X10248158Y-17122389D02*
X10257682Y-17141436D01*
X10257682Y-17141436D02*
X10267206Y-17150960D01*
X10267206Y-17150960D02*
X10286253Y-17160484D01*
X10286253Y-17160484D02*
X10324349Y-17160484D01*
X10324349Y-17160484D02*
X10343396Y-17150960D01*
X10343396Y-17150960D02*
X10352920Y-17141436D01*
X10352920Y-17141436D02*
X10362444Y-17122389D01*
X10362444Y-17122389D02*
X10362444Y-17084293D01*
X10362444Y-17084293D02*
X10352920Y-17065246D01*
X10352920Y-17065246D02*
X10343396Y-17055722D01*
X10343396Y-17055722D02*
X10324349Y-17046198D01*
X10438634Y-16960484D02*
X10438634Y-16998579D01*
X10514825Y-16960484D02*
X10514825Y-16998579D01*
X10810063Y-17236674D02*
X10800539Y-17227150D01*
X10800539Y-17227150D02*
X10781491Y-17198579D01*
X10781491Y-17198579D02*
X10771968Y-17179531D01*
X10771968Y-17179531D02*
X10762444Y-17150960D01*
X10762444Y-17150960D02*
X10752920Y-17103341D01*
X10752920Y-17103341D02*
X10752920Y-17065246D01*
X10752920Y-17065246D02*
X10762444Y-17017627D01*
X10762444Y-17017627D02*
X10771968Y-16989055D01*
X10771968Y-16989055D02*
X10781491Y-16970008D01*
X10781491Y-16970008D02*
X10800539Y-16941436D01*
X10800539Y-16941436D02*
X10810063Y-16931912D01*
X10971968Y-17027150D02*
X10971968Y-17160484D01*
X10924349Y-16950960D02*
X10876730Y-17093817D01*
X10876730Y-17093817D02*
X11000539Y-17093817D01*
X11171968Y-16960484D02*
X11076730Y-16960484D01*
X11076730Y-16960484D02*
X11067206Y-17055722D01*
X11067206Y-17055722D02*
X11076730Y-17046198D01*
X11076730Y-17046198D02*
X11095777Y-17036674D01*
X11095777Y-17036674D02*
X11143396Y-17036674D01*
X11143396Y-17036674D02*
X11162444Y-17046198D01*
X11162444Y-17046198D02*
X11171968Y-17055722D01*
X11171968Y-17055722D02*
X11181491Y-17074770D01*
X11181491Y-17074770D02*
X11181491Y-17122389D01*
X11181491Y-17122389D02*
X11171968Y-17141436D01*
X11171968Y-17141436D02*
X11162444Y-17150960D01*
X11162444Y-17150960D02*
X11143396Y-17160484D01*
X11143396Y-17160484D02*
X11095777Y-17160484D01*
X11095777Y-17160484D02*
X11076730Y-17150960D01*
X11076730Y-17150960D02*
X11067206Y-17141436D01*
X11419587Y-17160484D02*
X11419587Y-16960484D01*
X11505301Y-17160484D02*
X11505301Y-17055722D01*
X11505301Y-17055722D02*
X11495777Y-17036674D01*
X11495777Y-17036674D02*
X11476730Y-17027150D01*
X11476730Y-17027150D02*
X11448158Y-17027150D01*
X11448158Y-17027150D02*
X11429110Y-17036674D01*
X11429110Y-17036674D02*
X11419587Y-17046198D01*
X11629110Y-17160484D02*
X11610063Y-17150960D01*
X11610063Y-17150960D02*
X11600539Y-17141436D01*
X11600539Y-17141436D02*
X11591015Y-17122389D01*
X11591015Y-17122389D02*
X11591015Y-17065246D01*
X11591015Y-17065246D02*
X11600539Y-17046198D01*
X11600539Y-17046198D02*
X11610063Y-17036674D01*
X11610063Y-17036674D02*
X11629110Y-17027150D01*
X11629110Y-17027150D02*
X11657682Y-17027150D01*
X11657682Y-17027150D02*
X11676730Y-17036674D01*
X11676730Y-17036674D02*
X11686253Y-17046198D01*
X11686253Y-17046198D02*
X11695777Y-17065246D01*
X11695777Y-17065246D02*
X11695777Y-17122389D01*
X11695777Y-17122389D02*
X11686253Y-17141436D01*
X11686253Y-17141436D02*
X11676730Y-17150960D01*
X11676730Y-17150960D02*
X11657682Y-17160484D01*
X11657682Y-17160484D02*
X11629110Y-17160484D01*
X11810063Y-17160484D02*
X11791015Y-17150960D01*
X11791015Y-17150960D02*
X11781491Y-17131912D01*
X11781491Y-17131912D02*
X11781491Y-16960484D01*
X11962444Y-17150960D02*
X11943396Y-17160484D01*
X11943396Y-17160484D02*
X11905301Y-17160484D01*
X11905301Y-17160484D02*
X11886253Y-17150960D01*
X11886253Y-17150960D02*
X11876730Y-17131912D01*
X11876730Y-17131912D02*
X11876730Y-17055722D01*
X11876730Y-17055722D02*
X11886253Y-17036674D01*
X11886253Y-17036674D02*
X11905301Y-17027150D01*
X11905301Y-17027150D02*
X11943396Y-17027150D01*
X11943396Y-17027150D02*
X11962444Y-17036674D01*
X11962444Y-17036674D02*
X11971968Y-17055722D01*
X11971968Y-17055722D02*
X11971968Y-17074770D01*
X11971968Y-17074770D02*
X11876730Y-17093817D01*
X12048158Y-17150960D02*
X12067206Y-17160484D01*
X12067206Y-17160484D02*
X12105301Y-17160484D01*
X12105301Y-17160484D02*
X12124349Y-17150960D01*
X12124349Y-17150960D02*
X12133872Y-17131912D01*
X12133872Y-17131912D02*
X12133872Y-17122389D01*
X12133872Y-17122389D02*
X12124349Y-17103341D01*
X12124349Y-17103341D02*
X12105301Y-17093817D01*
X12105301Y-17093817D02*
X12076730Y-17093817D01*
X12076730Y-17093817D02*
X12057682Y-17084293D01*
X12057682Y-17084293D02*
X12048158Y-17065246D01*
X12048158Y-17065246D02*
X12048158Y-17055722D01*
X12048158Y-17055722D02*
X12057682Y-17036674D01*
X12057682Y-17036674D02*
X12076730Y-17027150D01*
X12076730Y-17027150D02*
X12105301Y-17027150D01*
X12105301Y-17027150D02*
X12124349Y-17036674D01*
X12200539Y-17236674D02*
X12210063Y-17227150D01*
X12210063Y-17227150D02*
X12229111Y-17198579D01*
X12229111Y-17198579D02*
X12238634Y-17179531D01*
X12238634Y-17179531D02*
X12248158Y-17150960D01*
X12248158Y-17150960D02*
X12257682Y-17103341D01*
X12257682Y-17103341D02*
X12257682Y-17065246D01*
X12257682Y-17065246D02*
X12248158Y-17017627D01*
X12248158Y-17017627D02*
X12238634Y-16989055D01*
X12238634Y-16989055D02*
X12229111Y-16970008D01*
X12229111Y-16970008D02*
X12210063Y-16941436D01*
X12210063Y-16941436D02*
X12200539Y-16931912D01*
D10*
X7222500Y-17320500D02*
X7222500Y-17345500D01*
X7210000Y-17333000D02*
X7235000Y-17333000D01*
D11*
X7533872Y-17224484D02*
X7552920Y-17224484D01*
X7552920Y-17224484D02*
X7571967Y-17234008D01*
X7571967Y-17234008D02*
X7581491Y-17243531D01*
X7581491Y-17243531D02*
X7591015Y-17262579D01*
X7591015Y-17262579D02*
X7600539Y-17300674D01*
X7600539Y-17300674D02*
X7600539Y-17348293D01*
X7600539Y-17348293D02*
X7591015Y-17386389D01*
X7591015Y-17386389D02*
X7581491Y-17405436D01*
X7581491Y-17405436D02*
X7571967Y-17414960D01*
X7571967Y-17414960D02*
X7552920Y-17424484D01*
X7552920Y-17424484D02*
X7533872Y-17424484D01*
X7533872Y-17424484D02*
X7514824Y-17414960D01*
X7514824Y-17414960D02*
X7505301Y-17405436D01*
X7505301Y-17405436D02*
X7495777Y-17386389D01*
X7495777Y-17386389D02*
X7486253Y-17348293D01*
X7486253Y-17348293D02*
X7486253Y-17300674D01*
X7486253Y-17300674D02*
X7495777Y-17262579D01*
X7495777Y-17262579D02*
X7505301Y-17243531D01*
X7505301Y-17243531D02*
X7514824Y-17234008D01*
X7514824Y-17234008D02*
X7533872Y-17224484D01*
X7686253Y-17405436D02*
X7695777Y-17414960D01*
X7695777Y-17414960D02*
X7686253Y-17424484D01*
X7686253Y-17424484D02*
X7676729Y-17414960D01*
X7676729Y-17414960D02*
X7686253Y-17405436D01*
X7686253Y-17405436D02*
X7686253Y-17424484D01*
X7771967Y-17243531D02*
X7781491Y-17234008D01*
X7781491Y-17234008D02*
X7800539Y-17224484D01*
X7800539Y-17224484D02*
X7848158Y-17224484D01*
X7848158Y-17224484D02*
X7867205Y-17234008D01*
X7867205Y-17234008D02*
X7876729Y-17243531D01*
X7876729Y-17243531D02*
X7886253Y-17262579D01*
X7886253Y-17262579D02*
X7886253Y-17281627D01*
X7886253Y-17281627D02*
X7876729Y-17310198D01*
X7876729Y-17310198D02*
X7762443Y-17424484D01*
X7762443Y-17424484D02*
X7886253Y-17424484D01*
X8067205Y-17224484D02*
X7971967Y-17224484D01*
X7971967Y-17224484D02*
X7962443Y-17319722D01*
X7962443Y-17319722D02*
X7971967Y-17310198D01*
X7971967Y-17310198D02*
X7991015Y-17300674D01*
X7991015Y-17300674D02*
X8038634Y-17300674D01*
X8038634Y-17300674D02*
X8057682Y-17310198D01*
X8057682Y-17310198D02*
X8067205Y-17319722D01*
X8067205Y-17319722D02*
X8076729Y-17338770D01*
X8076729Y-17338770D02*
X8076729Y-17386389D01*
X8076729Y-17386389D02*
X8067205Y-17405436D01*
X8067205Y-17405436D02*
X8057682Y-17414960D01*
X8057682Y-17414960D02*
X8038634Y-17424484D01*
X8038634Y-17424484D02*
X7991015Y-17424484D01*
X7991015Y-17424484D02*
X7971967Y-17414960D01*
X7971967Y-17414960D02*
X7962443Y-17405436D01*
X8200539Y-17224484D02*
X8219586Y-17224484D01*
X8219586Y-17224484D02*
X8238634Y-17234008D01*
X8238634Y-17234008D02*
X8248158Y-17243531D01*
X8248158Y-17243531D02*
X8257682Y-17262579D01*
X8257682Y-17262579D02*
X8267205Y-17300674D01*
X8267205Y-17300674D02*
X8267205Y-17348293D01*
X8267205Y-17348293D02*
X8257682Y-17386389D01*
X8257682Y-17386389D02*
X8248158Y-17405436D01*
X8248158Y-17405436D02*
X8238634Y-17414960D01*
X8238634Y-17414960D02*
X8219586Y-17424484D01*
X8219586Y-17424484D02*
X8200539Y-17424484D01*
X8200539Y-17424484D02*
X8181491Y-17414960D01*
X8181491Y-17414960D02*
X8171967Y-17405436D01*
X8171967Y-17405436D02*
X8162443Y-17386389D01*
X8162443Y-17386389D02*
X8152920Y-17348293D01*
X8152920Y-17348293D02*
X8152920Y-17300674D01*
X8152920Y-17300674D02*
X8162443Y-17262579D01*
X8162443Y-17262579D02*
X8171967Y-17243531D01*
X8171967Y-17243531D02*
X8181491Y-17234008D01*
X8181491Y-17234008D02*
X8200539Y-17224484D01*
X8352920Y-17424484D02*
X8352920Y-17291150D01*
X8352920Y-17310198D02*
X8362443Y-17300674D01*
X8362443Y-17300674D02*
X8381491Y-17291150D01*
X8381491Y-17291150D02*
X8410063Y-17291150D01*
X8410063Y-17291150D02*
X8429110Y-17300674D01*
X8429110Y-17300674D02*
X8438634Y-17319722D01*
X8438634Y-17319722D02*
X8438634Y-17424484D01*
X8438634Y-17319722D02*
X8448158Y-17300674D01*
X8448158Y-17300674D02*
X8467205Y-17291150D01*
X8467205Y-17291150D02*
X8495777Y-17291150D01*
X8495777Y-17291150D02*
X8514825Y-17300674D01*
X8514825Y-17300674D02*
X8524348Y-17319722D01*
X8524348Y-17319722D02*
X8524348Y-17424484D01*
X8619586Y-17424484D02*
X8619586Y-17291150D01*
X8619586Y-17310198D02*
X8629110Y-17300674D01*
X8629110Y-17300674D02*
X8648158Y-17291150D01*
X8648158Y-17291150D02*
X8676729Y-17291150D01*
X8676729Y-17291150D02*
X8695777Y-17300674D01*
X8695777Y-17300674D02*
X8705301Y-17319722D01*
X8705301Y-17319722D02*
X8705301Y-17424484D01*
X8705301Y-17319722D02*
X8714825Y-17300674D01*
X8714825Y-17300674D02*
X8733872Y-17291150D01*
X8733872Y-17291150D02*
X8762444Y-17291150D01*
X8762444Y-17291150D02*
X8781491Y-17300674D01*
X8781491Y-17300674D02*
X8791015Y-17319722D01*
X8791015Y-17319722D02*
X8791015Y-17424484D01*
X9181491Y-17214960D02*
X9010063Y-17472103D01*
X9438634Y-17224484D02*
X9457682Y-17224484D01*
X9457682Y-17224484D02*
X9476729Y-17234008D01*
X9476729Y-17234008D02*
X9486253Y-17243531D01*
X9486253Y-17243531D02*
X9495777Y-17262579D01*
X9495777Y-17262579D02*
X9505301Y-17300674D01*
X9505301Y-17300674D02*
X9505301Y-17348293D01*
X9505301Y-17348293D02*
X9495777Y-17386389D01*
X9495777Y-17386389D02*
X9486253Y-17405436D01*
X9486253Y-17405436D02*
X9476729Y-17414960D01*
X9476729Y-17414960D02*
X9457682Y-17424484D01*
X9457682Y-17424484D02*
X9438634Y-17424484D01*
X9438634Y-17424484D02*
X9419587Y-17414960D01*
X9419587Y-17414960D02*
X9410063Y-17405436D01*
X9410063Y-17405436D02*
X9400539Y-17386389D01*
X9400539Y-17386389D02*
X9391015Y-17348293D01*
X9391015Y-17348293D02*
X9391015Y-17300674D01*
X9391015Y-17300674D02*
X9400539Y-17262579D01*
X9400539Y-17262579D02*
X9410063Y-17243531D01*
X9410063Y-17243531D02*
X9419587Y-17234008D01*
X9419587Y-17234008D02*
X9438634Y-17224484D01*
X9591015Y-17405436D02*
X9600539Y-17414960D01*
X9600539Y-17414960D02*
X9591015Y-17424484D01*
X9591015Y-17424484D02*
X9581491Y-17414960D01*
X9581491Y-17414960D02*
X9591015Y-17405436D01*
X9591015Y-17405436D02*
X9591015Y-17424484D01*
X9724348Y-17224484D02*
X9743396Y-17224484D01*
X9743396Y-17224484D02*
X9762444Y-17234008D01*
X9762444Y-17234008D02*
X9771968Y-17243531D01*
X9771968Y-17243531D02*
X9781491Y-17262579D01*
X9781491Y-17262579D02*
X9791015Y-17300674D01*
X9791015Y-17300674D02*
X9791015Y-17348293D01*
X9791015Y-17348293D02*
X9781491Y-17386389D01*
X9781491Y-17386389D02*
X9771968Y-17405436D01*
X9771968Y-17405436D02*
X9762444Y-17414960D01*
X9762444Y-17414960D02*
X9743396Y-17424484D01*
X9743396Y-17424484D02*
X9724348Y-17424484D01*
X9724348Y-17424484D02*
X9705301Y-17414960D01*
X9705301Y-17414960D02*
X9695777Y-17405436D01*
X9695777Y-17405436D02*
X9686253Y-17386389D01*
X9686253Y-17386389D02*
X9676729Y-17348293D01*
X9676729Y-17348293D02*
X9676729Y-17300674D01*
X9676729Y-17300674D02*
X9686253Y-17262579D01*
X9686253Y-17262579D02*
X9695777Y-17243531D01*
X9695777Y-17243531D02*
X9705301Y-17234008D01*
X9705301Y-17234008D02*
X9724348Y-17224484D01*
X9914825Y-17224484D02*
X9933872Y-17224484D01*
X9933872Y-17224484D02*
X9952920Y-17234008D01*
X9952920Y-17234008D02*
X9962444Y-17243531D01*
X9962444Y-17243531D02*
X9971968Y-17262579D01*
X9971968Y-17262579D02*
X9981491Y-17300674D01*
X9981491Y-17300674D02*
X9981491Y-17348293D01*
X9981491Y-17348293D02*
X9971968Y-17386389D01*
X9971968Y-17386389D02*
X9962444Y-17405436D01*
X9962444Y-17405436D02*
X9952920Y-17414960D01*
X9952920Y-17414960D02*
X9933872Y-17424484D01*
X9933872Y-17424484D02*
X9914825Y-17424484D01*
X9914825Y-17424484D02*
X9895777Y-17414960D01*
X9895777Y-17414960D02*
X9886253Y-17405436D01*
X9886253Y-17405436D02*
X9876729Y-17386389D01*
X9876729Y-17386389D02*
X9867206Y-17348293D01*
X9867206Y-17348293D02*
X9867206Y-17300674D01*
X9867206Y-17300674D02*
X9876729Y-17262579D01*
X9876729Y-17262579D02*
X9886253Y-17243531D01*
X9886253Y-17243531D02*
X9895777Y-17234008D01*
X9895777Y-17234008D02*
X9914825Y-17224484D01*
X10076729Y-17424484D02*
X10114825Y-17424484D01*
X10114825Y-17424484D02*
X10133872Y-17414960D01*
X10133872Y-17414960D02*
X10143396Y-17405436D01*
X10143396Y-17405436D02*
X10162444Y-17376865D01*
X10162444Y-17376865D02*
X10171968Y-17338770D01*
X10171968Y-17338770D02*
X10171968Y-17262579D01*
X10171968Y-17262579D02*
X10162444Y-17243531D01*
X10162444Y-17243531D02*
X10152920Y-17234008D01*
X10152920Y-17234008D02*
X10133872Y-17224484D01*
X10133872Y-17224484D02*
X10095777Y-17224484D01*
X10095777Y-17224484D02*
X10076729Y-17234008D01*
X10076729Y-17234008D02*
X10067206Y-17243531D01*
X10067206Y-17243531D02*
X10057682Y-17262579D01*
X10057682Y-17262579D02*
X10057682Y-17310198D01*
X10057682Y-17310198D02*
X10067206Y-17329246D01*
X10067206Y-17329246D02*
X10076729Y-17338770D01*
X10076729Y-17338770D02*
X10095777Y-17348293D01*
X10095777Y-17348293D02*
X10133872Y-17348293D01*
X10133872Y-17348293D02*
X10152920Y-17338770D01*
X10152920Y-17338770D02*
X10162444Y-17329246D01*
X10162444Y-17329246D02*
X10171968Y-17310198D01*
X10286253Y-17310198D02*
X10267206Y-17300674D01*
X10267206Y-17300674D02*
X10257682Y-17291150D01*
X10257682Y-17291150D02*
X10248158Y-17272103D01*
X10248158Y-17272103D02*
X10248158Y-17262579D01*
X10248158Y-17262579D02*
X10257682Y-17243531D01*
X10257682Y-17243531D02*
X10267206Y-17234008D01*
X10267206Y-17234008D02*
X10286253Y-17224484D01*
X10286253Y-17224484D02*
X10324349Y-17224484D01*
X10324349Y-17224484D02*
X10343396Y-17234008D01*
X10343396Y-17234008D02*
X10352920Y-17243531D01*
X10352920Y-17243531D02*
X10362444Y-17262579D01*
X10362444Y-17262579D02*
X10362444Y-17272103D01*
X10362444Y-17272103D02*
X10352920Y-17291150D01*
X10352920Y-17291150D02*
X10343396Y-17300674D01*
X10343396Y-17300674D02*
X10324349Y-17310198D01*
X10324349Y-17310198D02*
X10286253Y-17310198D01*
X10286253Y-17310198D02*
X10267206Y-17319722D01*
X10267206Y-17319722D02*
X10257682Y-17329246D01*
X10257682Y-17329246D02*
X10248158Y-17348293D01*
X10248158Y-17348293D02*
X10248158Y-17386389D01*
X10248158Y-17386389D02*
X10257682Y-17405436D01*
X10257682Y-17405436D02*
X10267206Y-17414960D01*
X10267206Y-17414960D02*
X10286253Y-17424484D01*
X10286253Y-17424484D02*
X10324349Y-17424484D01*
X10324349Y-17424484D02*
X10343396Y-17414960D01*
X10343396Y-17414960D02*
X10352920Y-17405436D01*
X10352920Y-17405436D02*
X10362444Y-17386389D01*
X10362444Y-17386389D02*
X10362444Y-17348293D01*
X10362444Y-17348293D02*
X10352920Y-17329246D01*
X10352920Y-17329246D02*
X10343396Y-17319722D01*
X10343396Y-17319722D02*
X10324349Y-17310198D01*
X10438634Y-17224484D02*
X10438634Y-17262579D01*
X10514825Y-17224484D02*
X10514825Y-17262579D01*
X10810063Y-17500674D02*
X10800539Y-17491150D01*
X10800539Y-17491150D02*
X10781491Y-17462579D01*
X10781491Y-17462579D02*
X10771968Y-17443531D01*
X10771968Y-17443531D02*
X10762444Y-17414960D01*
X10762444Y-17414960D02*
X10752920Y-17367341D01*
X10752920Y-17367341D02*
X10752920Y-17329246D01*
X10752920Y-17329246D02*
X10762444Y-17281627D01*
X10762444Y-17281627D02*
X10771968Y-17253055D01*
X10771968Y-17253055D02*
X10781491Y-17234008D01*
X10781491Y-17234008D02*
X10800539Y-17205436D01*
X10800539Y-17205436D02*
X10810063Y-17195912D01*
X10971968Y-17224484D02*
X10933872Y-17224484D01*
X10933872Y-17224484D02*
X10914825Y-17234008D01*
X10914825Y-17234008D02*
X10905301Y-17243531D01*
X10905301Y-17243531D02*
X10886253Y-17272103D01*
X10886253Y-17272103D02*
X10876730Y-17310198D01*
X10876730Y-17310198D02*
X10876730Y-17386389D01*
X10876730Y-17386389D02*
X10886253Y-17405436D01*
X10886253Y-17405436D02*
X10895777Y-17414960D01*
X10895777Y-17414960D02*
X10914825Y-17424484D01*
X10914825Y-17424484D02*
X10952920Y-17424484D01*
X10952920Y-17424484D02*
X10971968Y-17414960D01*
X10971968Y-17414960D02*
X10981491Y-17405436D01*
X10981491Y-17405436D02*
X10991015Y-17386389D01*
X10991015Y-17386389D02*
X10991015Y-17338770D01*
X10991015Y-17338770D02*
X10981491Y-17319722D01*
X10981491Y-17319722D02*
X10971968Y-17310198D01*
X10971968Y-17310198D02*
X10952920Y-17300674D01*
X10952920Y-17300674D02*
X10914825Y-17300674D01*
X10914825Y-17300674D02*
X10895777Y-17310198D01*
X10895777Y-17310198D02*
X10886253Y-17319722D01*
X10886253Y-17319722D02*
X10876730Y-17338770D01*
X11067206Y-17243531D02*
X11076730Y-17234008D01*
X11076730Y-17234008D02*
X11095777Y-17224484D01*
X11095777Y-17224484D02*
X11143396Y-17224484D01*
X11143396Y-17224484D02*
X11162444Y-17234008D01*
X11162444Y-17234008D02*
X11171968Y-17243531D01*
X11171968Y-17243531D02*
X11181491Y-17262579D01*
X11181491Y-17262579D02*
X11181491Y-17281627D01*
X11181491Y-17281627D02*
X11171968Y-17310198D01*
X11171968Y-17310198D02*
X11057682Y-17424484D01*
X11057682Y-17424484D02*
X11181491Y-17424484D01*
X11419587Y-17424484D02*
X11419587Y-17224484D01*
X11505301Y-17424484D02*
X11505301Y-17319722D01*
X11505301Y-17319722D02*
X11495777Y-17300674D01*
X11495777Y-17300674D02*
X11476730Y-17291150D01*
X11476730Y-17291150D02*
X11448158Y-17291150D01*
X11448158Y-17291150D02*
X11429110Y-17300674D01*
X11429110Y-17300674D02*
X11419587Y-17310198D01*
X11629110Y-17424484D02*
X11610063Y-17414960D01*
X11610063Y-17414960D02*
X11600539Y-17405436D01*
X11600539Y-17405436D02*
X11591015Y-17386389D01*
X11591015Y-17386389D02*
X11591015Y-17329246D01*
X11591015Y-17329246D02*
X11600539Y-17310198D01*
X11600539Y-17310198D02*
X11610063Y-17300674D01*
X11610063Y-17300674D02*
X11629110Y-17291150D01*
X11629110Y-17291150D02*
X11657682Y-17291150D01*
X11657682Y-17291150D02*
X11676730Y-17300674D01*
X11676730Y-17300674D02*
X11686253Y-17310198D01*
X11686253Y-17310198D02*
X11695777Y-17329246D01*
X11695777Y-17329246D02*
X11695777Y-17386389D01*
X11695777Y-17386389D02*
X11686253Y-17405436D01*
X11686253Y-17405436D02*
X11676730Y-17414960D01*
X11676730Y-17414960D02*
X11657682Y-17424484D01*
X11657682Y-17424484D02*
X11629110Y-17424484D01*
X11810063Y-17424484D02*
X11791015Y-17414960D01*
X11791015Y-17414960D02*
X11781491Y-17395912D01*
X11781491Y-17395912D02*
X11781491Y-17224484D01*
X11962444Y-17414960D02*
X11943396Y-17424484D01*
X11943396Y-17424484D02*
X11905301Y-17424484D01*
X11905301Y-17424484D02*
X11886253Y-17414960D01*
X11886253Y-17414960D02*
X11876730Y-17395912D01*
X11876730Y-17395912D02*
X11876730Y-17319722D01*
X11876730Y-17319722D02*
X11886253Y-17300674D01*
X11886253Y-17300674D02*
X11905301Y-17291150D01*
X11905301Y-17291150D02*
X11943396Y-17291150D01*
X11943396Y-17291150D02*
X11962444Y-17300674D01*
X11962444Y-17300674D02*
X11971968Y-17319722D01*
X11971968Y-17319722D02*
X11971968Y-17338770D01*
X11971968Y-17338770D02*
X11876730Y-17357817D01*
X12048158Y-17414960D02*
X12067206Y-17424484D01*
X12067206Y-17424484D02*
X12105301Y-17424484D01*
X12105301Y-17424484D02*
X12124349Y-17414960D01*
X12124349Y-17414960D02*
X12133872Y-17395912D01*
X12133872Y-17395912D02*
X12133872Y-17386389D01*
X12133872Y-17386389D02*
X12124349Y-17367341D01*
X12124349Y-17367341D02*
X12105301Y-17357817D01*
X12105301Y-17357817D02*
X12076730Y-17357817D01*
X12076730Y-17357817D02*
X12057682Y-17348293D01*
X12057682Y-17348293D02*
X12048158Y-17329246D01*
X12048158Y-17329246D02*
X12048158Y-17319722D01*
X12048158Y-17319722D02*
X12057682Y-17300674D01*
X12057682Y-17300674D02*
X12076730Y-17291150D01*
X12076730Y-17291150D02*
X12105301Y-17291150D01*
X12105301Y-17291150D02*
X12124349Y-17300674D01*
X12200539Y-17500674D02*
X12210063Y-17491150D01*
X12210063Y-17491150D02*
X12229111Y-17462579D01*
X12229111Y-17462579D02*
X12238634Y-17443531D01*
X12238634Y-17443531D02*
X12248158Y-17414960D01*
X12248158Y-17414960D02*
X12257682Y-17367341D01*
X12257682Y-17367341D02*
X12257682Y-17329246D01*
X12257682Y-17329246D02*
X12248158Y-17281627D01*
X12248158Y-17281627D02*
X12238634Y-17253055D01*
X12238634Y-17253055D02*
X12229111Y-17234008D01*
X12229111Y-17234008D02*
X12210063Y-17205436D01*
X12210063Y-17205436D02*
X12200539Y-17195912D01*
D12*
X7220121Y-17632921D02*
X7220121Y-17561079D01*
X7148279Y-17561079D01*
X7148279Y-17632921D01*
X7220121Y-17632921D01*
D11*
X7600539Y-17688484D02*
X7486253Y-17688484D01*
X7543396Y-17688484D02*
X7543396Y-17488484D01*
X7543396Y-17488484D02*
X7524348Y-17517055D01*
X7524348Y-17517055D02*
X7505301Y-17536103D01*
X7505301Y-17536103D02*
X7486253Y-17545627D01*
X7686253Y-17669436D02*
X7695777Y-17678960D01*
X7695777Y-17678960D02*
X7686253Y-17688484D01*
X7686253Y-17688484D02*
X7676729Y-17678960D01*
X7676729Y-17678960D02*
X7686253Y-17669436D01*
X7686253Y-17669436D02*
X7686253Y-17688484D01*
X7819586Y-17488484D02*
X7838634Y-17488484D01*
X7838634Y-17488484D02*
X7857682Y-17498008D01*
X7857682Y-17498008D02*
X7867205Y-17507531D01*
X7867205Y-17507531D02*
X7876729Y-17526579D01*
X7876729Y-17526579D02*
X7886253Y-17564674D01*
X7886253Y-17564674D02*
X7886253Y-17612293D01*
X7886253Y-17612293D02*
X7876729Y-17650389D01*
X7876729Y-17650389D02*
X7867205Y-17669436D01*
X7867205Y-17669436D02*
X7857682Y-17678960D01*
X7857682Y-17678960D02*
X7838634Y-17688484D01*
X7838634Y-17688484D02*
X7819586Y-17688484D01*
X7819586Y-17688484D02*
X7800539Y-17678960D01*
X7800539Y-17678960D02*
X7791015Y-17669436D01*
X7791015Y-17669436D02*
X7781491Y-17650389D01*
X7781491Y-17650389D02*
X7771967Y-17612293D01*
X7771967Y-17612293D02*
X7771967Y-17564674D01*
X7771967Y-17564674D02*
X7781491Y-17526579D01*
X7781491Y-17526579D02*
X7791015Y-17507531D01*
X7791015Y-17507531D02*
X7800539Y-17498008D01*
X7800539Y-17498008D02*
X7819586Y-17488484D01*
X8076729Y-17688484D02*
X7962443Y-17688484D01*
X8019586Y-17688484D02*
X8019586Y-17488484D01*
X8019586Y-17488484D02*
X8000539Y-17517055D01*
X8000539Y-17517055D02*
X7981491Y-17536103D01*
X7981491Y-17536103D02*
X7962443Y-17545627D01*
X8248158Y-17488484D02*
X8210062Y-17488484D01*
X8210062Y-17488484D02*
X8191015Y-17498008D01*
X8191015Y-17498008D02*
X8181491Y-17507531D01*
X8181491Y-17507531D02*
X8162443Y-17536103D01*
X8162443Y-17536103D02*
X8152920Y-17574198D01*
X8152920Y-17574198D02*
X8152920Y-17650389D01*
X8152920Y-17650389D02*
X8162443Y-17669436D01*
X8162443Y-17669436D02*
X8171967Y-17678960D01*
X8171967Y-17678960D02*
X8191015Y-17688484D01*
X8191015Y-17688484D02*
X8229110Y-17688484D01*
X8229110Y-17688484D02*
X8248158Y-17678960D01*
X8248158Y-17678960D02*
X8257682Y-17669436D01*
X8257682Y-17669436D02*
X8267205Y-17650389D01*
X8267205Y-17650389D02*
X8267205Y-17602770D01*
X8267205Y-17602770D02*
X8257682Y-17583722D01*
X8257682Y-17583722D02*
X8248158Y-17574198D01*
X8248158Y-17574198D02*
X8229110Y-17564674D01*
X8229110Y-17564674D02*
X8191015Y-17564674D01*
X8191015Y-17564674D02*
X8171967Y-17574198D01*
X8171967Y-17574198D02*
X8162443Y-17583722D01*
X8162443Y-17583722D02*
X8152920Y-17602770D01*
X8352920Y-17688484D02*
X8352920Y-17555150D01*
X8352920Y-17574198D02*
X8362443Y-17564674D01*
X8362443Y-17564674D02*
X8381491Y-17555150D01*
X8381491Y-17555150D02*
X8410063Y-17555150D01*
X8410063Y-17555150D02*
X8429110Y-17564674D01*
X8429110Y-17564674D02*
X8438634Y-17583722D01*
X8438634Y-17583722D02*
X8438634Y-17688484D01*
X8438634Y-17583722D02*
X8448158Y-17564674D01*
X8448158Y-17564674D02*
X8467205Y-17555150D01*
X8467205Y-17555150D02*
X8495777Y-17555150D01*
X8495777Y-17555150D02*
X8514825Y-17564674D01*
X8514825Y-17564674D02*
X8524348Y-17583722D01*
X8524348Y-17583722D02*
X8524348Y-17688484D01*
X8619586Y-17688484D02*
X8619586Y-17555150D01*
X8619586Y-17574198D02*
X8629110Y-17564674D01*
X8629110Y-17564674D02*
X8648158Y-17555150D01*
X8648158Y-17555150D02*
X8676729Y-17555150D01*
X8676729Y-17555150D02*
X8695777Y-17564674D01*
X8695777Y-17564674D02*
X8705301Y-17583722D01*
X8705301Y-17583722D02*
X8705301Y-17688484D01*
X8705301Y-17583722D02*
X8714825Y-17564674D01*
X8714825Y-17564674D02*
X8733872Y-17555150D01*
X8733872Y-17555150D02*
X8762444Y-17555150D01*
X8762444Y-17555150D02*
X8781491Y-17564674D01*
X8781491Y-17564674D02*
X8791015Y-17583722D01*
X8791015Y-17583722D02*
X8791015Y-17688484D01*
X9181491Y-17478960D02*
X9010063Y-17736103D01*
X9438634Y-17488484D02*
X9457682Y-17488484D01*
X9457682Y-17488484D02*
X9476729Y-17498008D01*
X9476729Y-17498008D02*
X9486253Y-17507531D01*
X9486253Y-17507531D02*
X9495777Y-17526579D01*
X9495777Y-17526579D02*
X9505301Y-17564674D01*
X9505301Y-17564674D02*
X9505301Y-17612293D01*
X9505301Y-17612293D02*
X9495777Y-17650389D01*
X9495777Y-17650389D02*
X9486253Y-17669436D01*
X9486253Y-17669436D02*
X9476729Y-17678960D01*
X9476729Y-17678960D02*
X9457682Y-17688484D01*
X9457682Y-17688484D02*
X9438634Y-17688484D01*
X9438634Y-17688484D02*
X9419587Y-17678960D01*
X9419587Y-17678960D02*
X9410063Y-17669436D01*
X9410063Y-17669436D02*
X9400539Y-17650389D01*
X9400539Y-17650389D02*
X9391015Y-17612293D01*
X9391015Y-17612293D02*
X9391015Y-17564674D01*
X9391015Y-17564674D02*
X9400539Y-17526579D01*
X9400539Y-17526579D02*
X9410063Y-17507531D01*
X9410063Y-17507531D02*
X9419587Y-17498008D01*
X9419587Y-17498008D02*
X9438634Y-17488484D01*
X9591015Y-17669436D02*
X9600539Y-17678960D01*
X9600539Y-17678960D02*
X9591015Y-17688484D01*
X9591015Y-17688484D02*
X9581491Y-17678960D01*
X9581491Y-17678960D02*
X9591015Y-17669436D01*
X9591015Y-17669436D02*
X9591015Y-17688484D01*
X9724348Y-17488484D02*
X9743396Y-17488484D01*
X9743396Y-17488484D02*
X9762444Y-17498008D01*
X9762444Y-17498008D02*
X9771968Y-17507531D01*
X9771968Y-17507531D02*
X9781491Y-17526579D01*
X9781491Y-17526579D02*
X9791015Y-17564674D01*
X9791015Y-17564674D02*
X9791015Y-17612293D01*
X9791015Y-17612293D02*
X9781491Y-17650389D01*
X9781491Y-17650389D02*
X9771968Y-17669436D01*
X9771968Y-17669436D02*
X9762444Y-17678960D01*
X9762444Y-17678960D02*
X9743396Y-17688484D01*
X9743396Y-17688484D02*
X9724348Y-17688484D01*
X9724348Y-17688484D02*
X9705301Y-17678960D01*
X9705301Y-17678960D02*
X9695777Y-17669436D01*
X9695777Y-17669436D02*
X9686253Y-17650389D01*
X9686253Y-17650389D02*
X9676729Y-17612293D01*
X9676729Y-17612293D02*
X9676729Y-17564674D01*
X9676729Y-17564674D02*
X9686253Y-17526579D01*
X9686253Y-17526579D02*
X9695777Y-17507531D01*
X9695777Y-17507531D02*
X9705301Y-17498008D01*
X9705301Y-17498008D02*
X9724348Y-17488484D01*
X9962444Y-17555150D02*
X9962444Y-17688484D01*
X9914825Y-17478960D02*
X9867206Y-17621817D01*
X9867206Y-17621817D02*
X9991015Y-17621817D01*
X10105301Y-17488484D02*
X10124349Y-17488484D01*
X10124349Y-17488484D02*
X10143396Y-17498008D01*
X10143396Y-17498008D02*
X10152920Y-17507531D01*
X10152920Y-17507531D02*
X10162444Y-17526579D01*
X10162444Y-17526579D02*
X10171968Y-17564674D01*
X10171968Y-17564674D02*
X10171968Y-17612293D01*
X10171968Y-17612293D02*
X10162444Y-17650389D01*
X10162444Y-17650389D02*
X10152920Y-17669436D01*
X10152920Y-17669436D02*
X10143396Y-17678960D01*
X10143396Y-17678960D02*
X10124349Y-17688484D01*
X10124349Y-17688484D02*
X10105301Y-17688484D01*
X10105301Y-17688484D02*
X10086253Y-17678960D01*
X10086253Y-17678960D02*
X10076729Y-17669436D01*
X10076729Y-17669436D02*
X10067206Y-17650389D01*
X10067206Y-17650389D02*
X10057682Y-17612293D01*
X10057682Y-17612293D02*
X10057682Y-17564674D01*
X10057682Y-17564674D02*
X10067206Y-17526579D01*
X10067206Y-17526579D02*
X10076729Y-17507531D01*
X10076729Y-17507531D02*
X10086253Y-17498008D01*
X10086253Y-17498008D02*
X10105301Y-17488484D01*
X10295777Y-17488484D02*
X10314825Y-17488484D01*
X10314825Y-17488484D02*
X10333872Y-17498008D01*
X10333872Y-17498008D02*
X10343396Y-17507531D01*
X10343396Y-17507531D02*
X10352920Y-17526579D01*
X10352920Y-17526579D02*
X10362444Y-17564674D01*
X10362444Y-17564674D02*
X10362444Y-17612293D01*
X10362444Y-17612293D02*
X10352920Y-17650389D01*
X10352920Y-17650389D02*
X10343396Y-17669436D01*
X10343396Y-17669436D02*
X10333872Y-17678960D01*
X10333872Y-17678960D02*
X10314825Y-17688484D01*
X10314825Y-17688484D02*
X10295777Y-17688484D01*
X10295777Y-17688484D02*
X10276729Y-17678960D01*
X10276729Y-17678960D02*
X10267206Y-17669436D01*
X10267206Y-17669436D02*
X10257682Y-17650389D01*
X10257682Y-17650389D02*
X10248158Y-17612293D01*
X10248158Y-17612293D02*
X10248158Y-17564674D01*
X10248158Y-17564674D02*
X10257682Y-17526579D01*
X10257682Y-17526579D02*
X10267206Y-17507531D01*
X10267206Y-17507531D02*
X10276729Y-17498008D01*
X10276729Y-17498008D02*
X10295777Y-17488484D01*
X10438634Y-17488484D02*
X10438634Y-17526579D01*
X10514825Y-17488484D02*
X10514825Y-17526579D01*
X10810063Y-17764674D02*
X10800539Y-17755150D01*
X10800539Y-17755150D02*
X10781491Y-17726579D01*
X10781491Y-17726579D02*
X10771968Y-17707531D01*
X10771968Y-17707531D02*
X10762444Y-17678960D01*
X10762444Y-17678960D02*
X10752920Y-17631341D01*
X10752920Y-17631341D02*
X10752920Y-17593246D01*
X10752920Y-17593246D02*
X10762444Y-17545627D01*
X10762444Y-17545627D02*
X10771968Y-17517055D01*
X10771968Y-17517055D02*
X10781491Y-17498008D01*
X10781491Y-17498008D02*
X10800539Y-17469436D01*
X10800539Y-17469436D02*
X10810063Y-17459912D01*
X10876730Y-17507531D02*
X10886253Y-17498008D01*
X10886253Y-17498008D02*
X10905301Y-17488484D01*
X10905301Y-17488484D02*
X10952920Y-17488484D01*
X10952920Y-17488484D02*
X10971968Y-17498008D01*
X10971968Y-17498008D02*
X10981491Y-17507531D01*
X10981491Y-17507531D02*
X10991015Y-17526579D01*
X10991015Y-17526579D02*
X10991015Y-17545627D01*
X10991015Y-17545627D02*
X10981491Y-17574198D01*
X10981491Y-17574198D02*
X10867206Y-17688484D01*
X10867206Y-17688484D02*
X10991015Y-17688484D01*
X11105301Y-17574198D02*
X11086253Y-17564674D01*
X11086253Y-17564674D02*
X11076730Y-17555150D01*
X11076730Y-17555150D02*
X11067206Y-17536103D01*
X11067206Y-17536103D02*
X11067206Y-17526579D01*
X11067206Y-17526579D02*
X11076730Y-17507531D01*
X11076730Y-17507531D02*
X11086253Y-17498008D01*
X11086253Y-17498008D02*
X11105301Y-17488484D01*
X11105301Y-17488484D02*
X11143396Y-17488484D01*
X11143396Y-17488484D02*
X11162444Y-17498008D01*
X11162444Y-17498008D02*
X11171968Y-17507531D01*
X11171968Y-17507531D02*
X11181491Y-17526579D01*
X11181491Y-17526579D02*
X11181491Y-17536103D01*
X11181491Y-17536103D02*
X11171968Y-17555150D01*
X11171968Y-17555150D02*
X11162444Y-17564674D01*
X11162444Y-17564674D02*
X11143396Y-17574198D01*
X11143396Y-17574198D02*
X11105301Y-17574198D01*
X11105301Y-17574198D02*
X11086253Y-17583722D01*
X11086253Y-17583722D02*
X11076730Y-17593246D01*
X11076730Y-17593246D02*
X11067206Y-17612293D01*
X11067206Y-17612293D02*
X11067206Y-17650389D01*
X11067206Y-17650389D02*
X11076730Y-17669436D01*
X11076730Y-17669436D02*
X11086253Y-17678960D01*
X11086253Y-17678960D02*
X11105301Y-17688484D01*
X11105301Y-17688484D02*
X11143396Y-17688484D01*
X11143396Y-17688484D02*
X11162444Y-17678960D01*
X11162444Y-17678960D02*
X11171968Y-17669436D01*
X11171968Y-17669436D02*
X11181491Y-17650389D01*
X11181491Y-17650389D02*
X11181491Y-17612293D01*
X11181491Y-17612293D02*
X11171968Y-17593246D01*
X11171968Y-17593246D02*
X11162444Y-17583722D01*
X11162444Y-17583722D02*
X11143396Y-17574198D01*
X11419587Y-17688484D02*
X11419587Y-17488484D01*
X11505301Y-17688484D02*
X11505301Y-17583722D01*
X11505301Y-17583722D02*
X11495777Y-17564674D01*
X11495777Y-17564674D02*
X11476730Y-17555150D01*
X11476730Y-17555150D02*
X11448158Y-17555150D01*
X11448158Y-17555150D02*
X11429110Y-17564674D01*
X11429110Y-17564674D02*
X11419587Y-17574198D01*
X11629110Y-17688484D02*
X11610063Y-17678960D01*
X11610063Y-17678960D02*
X11600539Y-17669436D01*
X11600539Y-17669436D02*
X11591015Y-17650389D01*
X11591015Y-17650389D02*
X11591015Y-17593246D01*
X11591015Y-17593246D02*
X11600539Y-17574198D01*
X11600539Y-17574198D02*
X11610063Y-17564674D01*
X11610063Y-17564674D02*
X11629110Y-17555150D01*
X11629110Y-17555150D02*
X11657682Y-17555150D01*
X11657682Y-17555150D02*
X11676730Y-17564674D01*
X11676730Y-17564674D02*
X11686253Y-17574198D01*
X11686253Y-17574198D02*
X11695777Y-17593246D01*
X11695777Y-17593246D02*
X11695777Y-17650389D01*
X11695777Y-17650389D02*
X11686253Y-17669436D01*
X11686253Y-17669436D02*
X11676730Y-17678960D01*
X11676730Y-17678960D02*
X11657682Y-17688484D01*
X11657682Y-17688484D02*
X11629110Y-17688484D01*
X11810063Y-17688484D02*
X11791015Y-17678960D01*
X11791015Y-17678960D02*
X11781491Y-17659912D01*
X11781491Y-17659912D02*
X11781491Y-17488484D01*
X11962444Y-17678960D02*
X11943396Y-17688484D01*
X11943396Y-17688484D02*
X11905301Y-17688484D01*
X11905301Y-17688484D02*
X11886253Y-17678960D01*
X11886253Y-17678960D02*
X11876730Y-17659912D01*
X11876730Y-17659912D02*
X11876730Y-17583722D01*
X11876730Y-17583722D02*
X11886253Y-17564674D01*
X11886253Y-17564674D02*
X11905301Y-17555150D01*
X11905301Y-17555150D02*
X11943396Y-17555150D01*
X11943396Y-17555150D02*
X11962444Y-17564674D01*
X11962444Y-17564674D02*
X11971968Y-17583722D01*
X11971968Y-17583722D02*
X11971968Y-17602770D01*
X11971968Y-17602770D02*
X11876730Y-17621817D01*
X12048158Y-17678960D02*
X12067206Y-17688484D01*
X12067206Y-17688484D02*
X12105301Y-17688484D01*
X12105301Y-17688484D02*
X12124349Y-17678960D01*
X12124349Y-17678960D02*
X12133872Y-17659912D01*
X12133872Y-17659912D02*
X12133872Y-17650389D01*
X12133872Y-17650389D02*
X12124349Y-17631341D01*
X12124349Y-17631341D02*
X12105301Y-17621817D01*
X12105301Y-17621817D02*
X12076730Y-17621817D01*
X12076730Y-17621817D02*
X12057682Y-17612293D01*
X12057682Y-17612293D02*
X12048158Y-17593246D01*
X12048158Y-17593246D02*
X12048158Y-17583722D01*
X12048158Y-17583722D02*
X12057682Y-17564674D01*
X12057682Y-17564674D02*
X12076730Y-17555150D01*
X12076730Y-17555150D02*
X12105301Y-17555150D01*
X12105301Y-17555150D02*
X12124349Y-17564674D01*
X12200539Y-17764674D02*
X12210063Y-17755150D01*
X12210063Y-17755150D02*
X12229111Y-17726579D01*
X12229111Y-17726579D02*
X12238634Y-17707531D01*
X12238634Y-17707531D02*
X12248158Y-17678960D01*
X12248158Y-17678960D02*
X12257682Y-17631341D01*
X12257682Y-17631341D02*
X12257682Y-17593246D01*
X12257682Y-17593246D02*
X12248158Y-17545627D01*
X12248158Y-17545627D02*
X12238634Y-17517055D01*
X12238634Y-17517055D02*
X12229111Y-17498008D01*
X12229111Y-17498008D02*
X12210063Y-17469436D01*
X12210063Y-17469436D02*
X12200539Y-17459912D01*
D13*
X7175000Y-17921000D02*
X7235000Y-17861000D01*
X7175000Y-17801000D01*
X7115000Y-17861000D01*
X7175000Y-17921000D01*
D11*
X7600539Y-17952484D02*
X7486253Y-17952484D01*
X7543396Y-17952484D02*
X7543396Y-17752484D01*
X7543396Y-17752484D02*
X7524348Y-17781055D01*
X7524348Y-17781055D02*
X7505301Y-17800103D01*
X7505301Y-17800103D02*
X7486253Y-17809627D01*
X7686253Y-17933436D02*
X7695777Y-17942960D01*
X7695777Y-17942960D02*
X7686253Y-17952484D01*
X7686253Y-17952484D02*
X7676729Y-17942960D01*
X7676729Y-17942960D02*
X7686253Y-17933436D01*
X7686253Y-17933436D02*
X7686253Y-17952484D01*
X7771967Y-17771531D02*
X7781491Y-17762008D01*
X7781491Y-17762008D02*
X7800539Y-17752484D01*
X7800539Y-17752484D02*
X7848158Y-17752484D01*
X7848158Y-17752484D02*
X7867205Y-17762008D01*
X7867205Y-17762008D02*
X7876729Y-17771531D01*
X7876729Y-17771531D02*
X7886253Y-17790579D01*
X7886253Y-17790579D02*
X7886253Y-17809627D01*
X7886253Y-17809627D02*
X7876729Y-17838198D01*
X7876729Y-17838198D02*
X7762443Y-17952484D01*
X7762443Y-17952484D02*
X7886253Y-17952484D01*
X8010062Y-17752484D02*
X8029110Y-17752484D01*
X8029110Y-17752484D02*
X8048158Y-17762008D01*
X8048158Y-17762008D02*
X8057682Y-17771531D01*
X8057682Y-17771531D02*
X8067205Y-17790579D01*
X8067205Y-17790579D02*
X8076729Y-17828674D01*
X8076729Y-17828674D02*
X8076729Y-17876293D01*
X8076729Y-17876293D02*
X8067205Y-17914389D01*
X8067205Y-17914389D02*
X8057682Y-17933436D01*
X8057682Y-17933436D02*
X8048158Y-17942960D01*
X8048158Y-17942960D02*
X8029110Y-17952484D01*
X8029110Y-17952484D02*
X8010062Y-17952484D01*
X8010062Y-17952484D02*
X7991015Y-17942960D01*
X7991015Y-17942960D02*
X7981491Y-17933436D01*
X7981491Y-17933436D02*
X7971967Y-17914389D01*
X7971967Y-17914389D02*
X7962443Y-17876293D01*
X7962443Y-17876293D02*
X7962443Y-17828674D01*
X7962443Y-17828674D02*
X7971967Y-17790579D01*
X7971967Y-17790579D02*
X7981491Y-17771531D01*
X7981491Y-17771531D02*
X7991015Y-17762008D01*
X7991015Y-17762008D02*
X8010062Y-17752484D01*
X8200539Y-17752484D02*
X8219586Y-17752484D01*
X8219586Y-17752484D02*
X8238634Y-17762008D01*
X8238634Y-17762008D02*
X8248158Y-17771531D01*
X8248158Y-17771531D02*
X8257682Y-17790579D01*
X8257682Y-17790579D02*
X8267205Y-17828674D01*
X8267205Y-17828674D02*
X8267205Y-17876293D01*
X8267205Y-17876293D02*
X8257682Y-17914389D01*
X8257682Y-17914389D02*
X8248158Y-17933436D01*
X8248158Y-17933436D02*
X8238634Y-17942960D01*
X8238634Y-17942960D02*
X8219586Y-17952484D01*
X8219586Y-17952484D02*
X8200539Y-17952484D01*
X8200539Y-17952484D02*
X8181491Y-17942960D01*
X8181491Y-17942960D02*
X8171967Y-17933436D01*
X8171967Y-17933436D02*
X8162443Y-17914389D01*
X8162443Y-17914389D02*
X8152920Y-17876293D01*
X8152920Y-17876293D02*
X8152920Y-17828674D01*
X8152920Y-17828674D02*
X8162443Y-17790579D01*
X8162443Y-17790579D02*
X8171967Y-17771531D01*
X8171967Y-17771531D02*
X8181491Y-17762008D01*
X8181491Y-17762008D02*
X8200539Y-17752484D01*
X8352920Y-17952484D02*
X8352920Y-17819150D01*
X8352920Y-17838198D02*
X8362443Y-17828674D01*
X8362443Y-17828674D02*
X8381491Y-17819150D01*
X8381491Y-17819150D02*
X8410063Y-17819150D01*
X8410063Y-17819150D02*
X8429110Y-17828674D01*
X8429110Y-17828674D02*
X8438634Y-17847722D01*
X8438634Y-17847722D02*
X8438634Y-17952484D01*
X8438634Y-17847722D02*
X8448158Y-17828674D01*
X8448158Y-17828674D02*
X8467205Y-17819150D01*
X8467205Y-17819150D02*
X8495777Y-17819150D01*
X8495777Y-17819150D02*
X8514825Y-17828674D01*
X8514825Y-17828674D02*
X8524348Y-17847722D01*
X8524348Y-17847722D02*
X8524348Y-17952484D01*
X8619586Y-17952484D02*
X8619586Y-17819150D01*
X8619586Y-17838198D02*
X8629110Y-17828674D01*
X8629110Y-17828674D02*
X8648158Y-17819150D01*
X8648158Y-17819150D02*
X8676729Y-17819150D01*
X8676729Y-17819150D02*
X8695777Y-17828674D01*
X8695777Y-17828674D02*
X8705301Y-17847722D01*
X8705301Y-17847722D02*
X8705301Y-17952484D01*
X8705301Y-17847722D02*
X8714825Y-17828674D01*
X8714825Y-17828674D02*
X8733872Y-17819150D01*
X8733872Y-17819150D02*
X8762444Y-17819150D01*
X8762444Y-17819150D02*
X8781491Y-17828674D01*
X8781491Y-17828674D02*
X8791015Y-17847722D01*
X8791015Y-17847722D02*
X8791015Y-17952484D01*
X9181491Y-17742960D02*
X9010063Y-18000103D01*
X9438634Y-17752484D02*
X9457682Y-17752484D01*
X9457682Y-17752484D02*
X9476729Y-17762008D01*
X9476729Y-17762008D02*
X9486253Y-17771531D01*
X9486253Y-17771531D02*
X9495777Y-17790579D01*
X9495777Y-17790579D02*
X9505301Y-17828674D01*
X9505301Y-17828674D02*
X9505301Y-17876293D01*
X9505301Y-17876293D02*
X9495777Y-17914389D01*
X9495777Y-17914389D02*
X9486253Y-17933436D01*
X9486253Y-17933436D02*
X9476729Y-17942960D01*
X9476729Y-17942960D02*
X9457682Y-17952484D01*
X9457682Y-17952484D02*
X9438634Y-17952484D01*
X9438634Y-17952484D02*
X9419587Y-17942960D01*
X9419587Y-17942960D02*
X9410063Y-17933436D01*
X9410063Y-17933436D02*
X9400539Y-17914389D01*
X9400539Y-17914389D02*
X9391015Y-17876293D01*
X9391015Y-17876293D02*
X9391015Y-17828674D01*
X9391015Y-17828674D02*
X9400539Y-17790579D01*
X9400539Y-17790579D02*
X9410063Y-17771531D01*
X9410063Y-17771531D02*
X9419587Y-17762008D01*
X9419587Y-17762008D02*
X9438634Y-17752484D01*
X9591015Y-17933436D02*
X9600539Y-17942960D01*
X9600539Y-17942960D02*
X9591015Y-17952484D01*
X9591015Y-17952484D02*
X9581491Y-17942960D01*
X9581491Y-17942960D02*
X9591015Y-17933436D01*
X9591015Y-17933436D02*
X9591015Y-17952484D01*
X9724348Y-17752484D02*
X9743396Y-17752484D01*
X9743396Y-17752484D02*
X9762444Y-17762008D01*
X9762444Y-17762008D02*
X9771968Y-17771531D01*
X9771968Y-17771531D02*
X9781491Y-17790579D01*
X9781491Y-17790579D02*
X9791015Y-17828674D01*
X9791015Y-17828674D02*
X9791015Y-17876293D01*
X9791015Y-17876293D02*
X9781491Y-17914389D01*
X9781491Y-17914389D02*
X9771968Y-17933436D01*
X9771968Y-17933436D02*
X9762444Y-17942960D01*
X9762444Y-17942960D02*
X9743396Y-17952484D01*
X9743396Y-17952484D02*
X9724348Y-17952484D01*
X9724348Y-17952484D02*
X9705301Y-17942960D01*
X9705301Y-17942960D02*
X9695777Y-17933436D01*
X9695777Y-17933436D02*
X9686253Y-17914389D01*
X9686253Y-17914389D02*
X9676729Y-17876293D01*
X9676729Y-17876293D02*
X9676729Y-17828674D01*
X9676729Y-17828674D02*
X9686253Y-17790579D01*
X9686253Y-17790579D02*
X9695777Y-17771531D01*
X9695777Y-17771531D02*
X9705301Y-17762008D01*
X9705301Y-17762008D02*
X9724348Y-17752484D01*
X9962444Y-17819150D02*
X9962444Y-17952484D01*
X9914825Y-17742960D02*
X9867206Y-17885817D01*
X9867206Y-17885817D02*
X9991015Y-17885817D01*
X10048158Y-17752484D02*
X10181491Y-17752484D01*
X10181491Y-17752484D02*
X10095777Y-17952484D01*
X10248158Y-17771531D02*
X10257682Y-17762008D01*
X10257682Y-17762008D02*
X10276729Y-17752484D01*
X10276729Y-17752484D02*
X10324349Y-17752484D01*
X10324349Y-17752484D02*
X10343396Y-17762008D01*
X10343396Y-17762008D02*
X10352920Y-17771531D01*
X10352920Y-17771531D02*
X10362444Y-17790579D01*
X10362444Y-17790579D02*
X10362444Y-17809627D01*
X10362444Y-17809627D02*
X10352920Y-17838198D01*
X10352920Y-17838198D02*
X10238634Y-17952484D01*
X10238634Y-17952484D02*
X10362444Y-17952484D01*
X10438634Y-17752484D02*
X10438634Y-17790579D01*
X10514825Y-17752484D02*
X10514825Y-17790579D01*
X10810063Y-18028674D02*
X10800539Y-18019150D01*
X10800539Y-18019150D02*
X10781491Y-17990579D01*
X10781491Y-17990579D02*
X10771968Y-17971531D01*
X10771968Y-17971531D02*
X10762444Y-17942960D01*
X10762444Y-17942960D02*
X10752920Y-17895341D01*
X10752920Y-17895341D02*
X10752920Y-17857246D01*
X10752920Y-17857246D02*
X10762444Y-17809627D01*
X10762444Y-17809627D02*
X10771968Y-17781055D01*
X10771968Y-17781055D02*
X10781491Y-17762008D01*
X10781491Y-17762008D02*
X10800539Y-17733436D01*
X10800539Y-17733436D02*
X10810063Y-17723912D01*
X10991015Y-17952484D02*
X10876730Y-17952484D01*
X10933872Y-17952484D02*
X10933872Y-17752484D01*
X10933872Y-17752484D02*
X10914825Y-17781055D01*
X10914825Y-17781055D02*
X10895777Y-17800103D01*
X10895777Y-17800103D02*
X10876730Y-17809627D01*
X11105301Y-17838198D02*
X11086253Y-17828674D01*
X11086253Y-17828674D02*
X11076730Y-17819150D01*
X11076730Y-17819150D02*
X11067206Y-17800103D01*
X11067206Y-17800103D02*
X11067206Y-17790579D01*
X11067206Y-17790579D02*
X11076730Y-17771531D01*
X11076730Y-17771531D02*
X11086253Y-17762008D01*
X11086253Y-17762008D02*
X11105301Y-17752484D01*
X11105301Y-17752484D02*
X11143396Y-17752484D01*
X11143396Y-17752484D02*
X11162444Y-17762008D01*
X11162444Y-17762008D02*
X11171968Y-17771531D01*
X11171968Y-17771531D02*
X11181491Y-17790579D01*
X11181491Y-17790579D02*
X11181491Y-17800103D01*
X11181491Y-17800103D02*
X11171968Y-17819150D01*
X11171968Y-17819150D02*
X11162444Y-17828674D01*
X11162444Y-17828674D02*
X11143396Y-17838198D01*
X11143396Y-17838198D02*
X11105301Y-17838198D01*
X11105301Y-17838198D02*
X11086253Y-17847722D01*
X11086253Y-17847722D02*
X11076730Y-17857246D01*
X11076730Y-17857246D02*
X11067206Y-17876293D01*
X11067206Y-17876293D02*
X11067206Y-17914389D01*
X11067206Y-17914389D02*
X11076730Y-17933436D01*
X11076730Y-17933436D02*
X11086253Y-17942960D01*
X11086253Y-17942960D02*
X11105301Y-17952484D01*
X11105301Y-17952484D02*
X11143396Y-17952484D01*
X11143396Y-17952484D02*
X11162444Y-17942960D01*
X11162444Y-17942960D02*
X11171968Y-17933436D01*
X11171968Y-17933436D02*
X11181491Y-17914389D01*
X11181491Y-17914389D02*
X11181491Y-17876293D01*
X11181491Y-17876293D02*
X11171968Y-17857246D01*
X11171968Y-17857246D02*
X11162444Y-17847722D01*
X11162444Y-17847722D02*
X11143396Y-17838198D01*
X11419587Y-17952484D02*
X11419587Y-17752484D01*
X11505301Y-17952484D02*
X11505301Y-17847722D01*
X11505301Y-17847722D02*
X11495777Y-17828674D01*
X11495777Y-17828674D02*
X11476730Y-17819150D01*
X11476730Y-17819150D02*
X11448158Y-17819150D01*
X11448158Y-17819150D02*
X11429110Y-17828674D01*
X11429110Y-17828674D02*
X11419587Y-17838198D01*
X11629110Y-17952484D02*
X11610063Y-17942960D01*
X11610063Y-17942960D02*
X11600539Y-17933436D01*
X11600539Y-17933436D02*
X11591015Y-17914389D01*
X11591015Y-17914389D02*
X11591015Y-17857246D01*
X11591015Y-17857246D02*
X11600539Y-17838198D01*
X11600539Y-17838198D02*
X11610063Y-17828674D01*
X11610063Y-17828674D02*
X11629110Y-17819150D01*
X11629110Y-17819150D02*
X11657682Y-17819150D01*
X11657682Y-17819150D02*
X11676730Y-17828674D01*
X11676730Y-17828674D02*
X11686253Y-17838198D01*
X11686253Y-17838198D02*
X11695777Y-17857246D01*
X11695777Y-17857246D02*
X11695777Y-17914389D01*
X11695777Y-17914389D02*
X11686253Y-17933436D01*
X11686253Y-17933436D02*
X11676730Y-17942960D01*
X11676730Y-17942960D02*
X11657682Y-17952484D01*
X11657682Y-17952484D02*
X11629110Y-17952484D01*
X11810063Y-17952484D02*
X11791015Y-17942960D01*
X11791015Y-17942960D02*
X11781491Y-17923912D01*
X11781491Y-17923912D02*
X11781491Y-17752484D01*
X11962444Y-17942960D02*
X11943396Y-17952484D01*
X11943396Y-17952484D02*
X11905301Y-17952484D01*
X11905301Y-17952484D02*
X11886253Y-17942960D01*
X11886253Y-17942960D02*
X11876730Y-17923912D01*
X11876730Y-17923912D02*
X11876730Y-17847722D01*
X11876730Y-17847722D02*
X11886253Y-17828674D01*
X11886253Y-17828674D02*
X11905301Y-17819150D01*
X11905301Y-17819150D02*
X11943396Y-17819150D01*
X11943396Y-17819150D02*
X11962444Y-17828674D01*
X11962444Y-17828674D02*
X11971968Y-17847722D01*
X11971968Y-17847722D02*
X11971968Y-17866770D01*
X11971968Y-17866770D02*
X11876730Y-17885817D01*
X12048158Y-17942960D02*
X12067206Y-17952484D01*
X12067206Y-17952484D02*
X12105301Y-17952484D01*
X12105301Y-17952484D02*
X12124349Y-17942960D01*
X12124349Y-17942960D02*
X12133872Y-17923912D01*
X12133872Y-17923912D02*
X12133872Y-17914389D01*
X12133872Y-17914389D02*
X12124349Y-17895341D01*
X12124349Y-17895341D02*
X12105301Y-17885817D01*
X12105301Y-17885817D02*
X12076730Y-17885817D01*
X12076730Y-17885817D02*
X12057682Y-17876293D01*
X12057682Y-17876293D02*
X12048158Y-17857246D01*
X12048158Y-17857246D02*
X12048158Y-17847722D01*
X12048158Y-17847722D02*
X12057682Y-17828674D01*
X12057682Y-17828674D02*
X12076730Y-17819150D01*
X12076730Y-17819150D02*
X12105301Y-17819150D01*
X12105301Y-17819150D02*
X12124349Y-17828674D01*
X12200539Y-18028674D02*
X12210063Y-18019150D01*
X12210063Y-18019150D02*
X12229111Y-17990579D01*
X12229111Y-17990579D02*
X12238634Y-17971531D01*
X12238634Y-17971531D02*
X12248158Y-17942960D01*
X12248158Y-17942960D02*
X12257682Y-17895341D01*
X12257682Y-17895341D02*
X12257682Y-17857246D01*
X12257682Y-17857246D02*
X12248158Y-17809627D01*
X12248158Y-17809627D02*
X12238634Y-17781055D01*
X12238634Y-17781055D02*
X12229111Y-17762008D01*
X12229111Y-17762008D02*
X12210063Y-17733436D01*
X12210063Y-17733436D02*
X12200539Y-17723912D01*
D14*
X7085000Y-18050000D02*
X7235000Y-18200000D01*
X7235000Y-18050000D02*
X7085000Y-18200000D01*
X7235000Y-18125000D02*
G75*
G03*
X7085000Y-18125000I-75000J0D01*
G01*
X7085000Y-18125000D02*
G75*
G03*
X7235000Y-18125000I75000J0D01*
G01*
D11*
X7600539Y-18216484D02*
X7486253Y-18216484D01*
X7543396Y-18216484D02*
X7543396Y-18016484D01*
X7543396Y-18016484D02*
X7524348Y-18045055D01*
X7524348Y-18045055D02*
X7505301Y-18064103D01*
X7505301Y-18064103D02*
X7486253Y-18073627D01*
X7686253Y-18197436D02*
X7695777Y-18206960D01*
X7695777Y-18206960D02*
X7686253Y-18216484D01*
X7686253Y-18216484D02*
X7676729Y-18206960D01*
X7676729Y-18206960D02*
X7686253Y-18197436D01*
X7686253Y-18197436D02*
X7686253Y-18216484D01*
X7876729Y-18016484D02*
X7781491Y-18016484D01*
X7781491Y-18016484D02*
X7771967Y-18111722D01*
X7771967Y-18111722D02*
X7781491Y-18102198D01*
X7781491Y-18102198D02*
X7800539Y-18092674D01*
X7800539Y-18092674D02*
X7848158Y-18092674D01*
X7848158Y-18092674D02*
X7867205Y-18102198D01*
X7867205Y-18102198D02*
X7876729Y-18111722D01*
X7876729Y-18111722D02*
X7886253Y-18130770D01*
X7886253Y-18130770D02*
X7886253Y-18178389D01*
X7886253Y-18178389D02*
X7876729Y-18197436D01*
X7876729Y-18197436D02*
X7867205Y-18206960D01*
X7867205Y-18206960D02*
X7848158Y-18216484D01*
X7848158Y-18216484D02*
X7800539Y-18216484D01*
X7800539Y-18216484D02*
X7781491Y-18206960D01*
X7781491Y-18206960D02*
X7771967Y-18197436D01*
X8010062Y-18016484D02*
X8029110Y-18016484D01*
X8029110Y-18016484D02*
X8048158Y-18026008D01*
X8048158Y-18026008D02*
X8057682Y-18035531D01*
X8057682Y-18035531D02*
X8067205Y-18054579D01*
X8067205Y-18054579D02*
X8076729Y-18092674D01*
X8076729Y-18092674D02*
X8076729Y-18140293D01*
X8076729Y-18140293D02*
X8067205Y-18178389D01*
X8067205Y-18178389D02*
X8057682Y-18197436D01*
X8057682Y-18197436D02*
X8048158Y-18206960D01*
X8048158Y-18206960D02*
X8029110Y-18216484D01*
X8029110Y-18216484D02*
X8010062Y-18216484D01*
X8010062Y-18216484D02*
X7991015Y-18206960D01*
X7991015Y-18206960D02*
X7981491Y-18197436D01*
X7981491Y-18197436D02*
X7971967Y-18178389D01*
X7971967Y-18178389D02*
X7962443Y-18140293D01*
X7962443Y-18140293D02*
X7962443Y-18092674D01*
X7962443Y-18092674D02*
X7971967Y-18054579D01*
X7971967Y-18054579D02*
X7981491Y-18035531D01*
X7981491Y-18035531D02*
X7991015Y-18026008D01*
X7991015Y-18026008D02*
X8010062Y-18016484D01*
X8200539Y-18016484D02*
X8219586Y-18016484D01*
X8219586Y-18016484D02*
X8238634Y-18026008D01*
X8238634Y-18026008D02*
X8248158Y-18035531D01*
X8248158Y-18035531D02*
X8257682Y-18054579D01*
X8257682Y-18054579D02*
X8267205Y-18092674D01*
X8267205Y-18092674D02*
X8267205Y-18140293D01*
X8267205Y-18140293D02*
X8257682Y-18178389D01*
X8257682Y-18178389D02*
X8248158Y-18197436D01*
X8248158Y-18197436D02*
X8238634Y-18206960D01*
X8238634Y-18206960D02*
X8219586Y-18216484D01*
X8219586Y-18216484D02*
X8200539Y-18216484D01*
X8200539Y-18216484D02*
X8181491Y-18206960D01*
X8181491Y-18206960D02*
X8171967Y-18197436D01*
X8171967Y-18197436D02*
X8162443Y-18178389D01*
X8162443Y-18178389D02*
X8152920Y-18140293D01*
X8152920Y-18140293D02*
X8152920Y-18092674D01*
X8152920Y-18092674D02*
X8162443Y-18054579D01*
X8162443Y-18054579D02*
X8171967Y-18035531D01*
X8171967Y-18035531D02*
X8181491Y-18026008D01*
X8181491Y-18026008D02*
X8200539Y-18016484D01*
X8352920Y-18216484D02*
X8352920Y-18083150D01*
X8352920Y-18102198D02*
X8362443Y-18092674D01*
X8362443Y-18092674D02*
X8381491Y-18083150D01*
X8381491Y-18083150D02*
X8410063Y-18083150D01*
X8410063Y-18083150D02*
X8429110Y-18092674D01*
X8429110Y-18092674D02*
X8438634Y-18111722D01*
X8438634Y-18111722D02*
X8438634Y-18216484D01*
X8438634Y-18111722D02*
X8448158Y-18092674D01*
X8448158Y-18092674D02*
X8467205Y-18083150D01*
X8467205Y-18083150D02*
X8495777Y-18083150D01*
X8495777Y-18083150D02*
X8514825Y-18092674D01*
X8514825Y-18092674D02*
X8524348Y-18111722D01*
X8524348Y-18111722D02*
X8524348Y-18216484D01*
X8619586Y-18216484D02*
X8619586Y-18083150D01*
X8619586Y-18102198D02*
X8629110Y-18092674D01*
X8629110Y-18092674D02*
X8648158Y-18083150D01*
X8648158Y-18083150D02*
X8676729Y-18083150D01*
X8676729Y-18083150D02*
X8695777Y-18092674D01*
X8695777Y-18092674D02*
X8705301Y-18111722D01*
X8705301Y-18111722D02*
X8705301Y-18216484D01*
X8705301Y-18111722D02*
X8714825Y-18092674D01*
X8714825Y-18092674D02*
X8733872Y-18083150D01*
X8733872Y-18083150D02*
X8762444Y-18083150D01*
X8762444Y-18083150D02*
X8781491Y-18092674D01*
X8781491Y-18092674D02*
X8791015Y-18111722D01*
X8791015Y-18111722D02*
X8791015Y-18216484D01*
X9181491Y-18006960D02*
X9010063Y-18264103D01*
X9438634Y-18016484D02*
X9457682Y-18016484D01*
X9457682Y-18016484D02*
X9476729Y-18026008D01*
X9476729Y-18026008D02*
X9486253Y-18035531D01*
X9486253Y-18035531D02*
X9495777Y-18054579D01*
X9495777Y-18054579D02*
X9505301Y-18092674D01*
X9505301Y-18092674D02*
X9505301Y-18140293D01*
X9505301Y-18140293D02*
X9495777Y-18178389D01*
X9495777Y-18178389D02*
X9486253Y-18197436D01*
X9486253Y-18197436D02*
X9476729Y-18206960D01*
X9476729Y-18206960D02*
X9457682Y-18216484D01*
X9457682Y-18216484D02*
X9438634Y-18216484D01*
X9438634Y-18216484D02*
X9419587Y-18206960D01*
X9419587Y-18206960D02*
X9410063Y-18197436D01*
X9410063Y-18197436D02*
X9400539Y-18178389D01*
X9400539Y-18178389D02*
X9391015Y-18140293D01*
X9391015Y-18140293D02*
X9391015Y-18092674D01*
X9391015Y-18092674D02*
X9400539Y-18054579D01*
X9400539Y-18054579D02*
X9410063Y-18035531D01*
X9410063Y-18035531D02*
X9419587Y-18026008D01*
X9419587Y-18026008D02*
X9438634Y-18016484D01*
X9591015Y-18197436D02*
X9600539Y-18206960D01*
X9600539Y-18206960D02*
X9591015Y-18216484D01*
X9591015Y-18216484D02*
X9581491Y-18206960D01*
X9581491Y-18206960D02*
X9591015Y-18197436D01*
X9591015Y-18197436D02*
X9591015Y-18216484D01*
X9724348Y-18016484D02*
X9743396Y-18016484D01*
X9743396Y-18016484D02*
X9762444Y-18026008D01*
X9762444Y-18026008D02*
X9771968Y-18035531D01*
X9771968Y-18035531D02*
X9781491Y-18054579D01*
X9781491Y-18054579D02*
X9791015Y-18092674D01*
X9791015Y-18092674D02*
X9791015Y-18140293D01*
X9791015Y-18140293D02*
X9781491Y-18178389D01*
X9781491Y-18178389D02*
X9771968Y-18197436D01*
X9771968Y-18197436D02*
X9762444Y-18206960D01*
X9762444Y-18206960D02*
X9743396Y-18216484D01*
X9743396Y-18216484D02*
X9724348Y-18216484D01*
X9724348Y-18216484D02*
X9705301Y-18206960D01*
X9705301Y-18206960D02*
X9695777Y-18197436D01*
X9695777Y-18197436D02*
X9686253Y-18178389D01*
X9686253Y-18178389D02*
X9676729Y-18140293D01*
X9676729Y-18140293D02*
X9676729Y-18092674D01*
X9676729Y-18092674D02*
X9686253Y-18054579D01*
X9686253Y-18054579D02*
X9695777Y-18035531D01*
X9695777Y-18035531D02*
X9705301Y-18026008D01*
X9705301Y-18026008D02*
X9724348Y-18016484D01*
X9971968Y-18016484D02*
X9876729Y-18016484D01*
X9876729Y-18016484D02*
X9867206Y-18111722D01*
X9867206Y-18111722D02*
X9876729Y-18102198D01*
X9876729Y-18102198D02*
X9895777Y-18092674D01*
X9895777Y-18092674D02*
X9943396Y-18092674D01*
X9943396Y-18092674D02*
X9962444Y-18102198D01*
X9962444Y-18102198D02*
X9971968Y-18111722D01*
X9971968Y-18111722D02*
X9981491Y-18130770D01*
X9981491Y-18130770D02*
X9981491Y-18178389D01*
X9981491Y-18178389D02*
X9971968Y-18197436D01*
X9971968Y-18197436D02*
X9962444Y-18206960D01*
X9962444Y-18206960D02*
X9943396Y-18216484D01*
X9943396Y-18216484D02*
X9895777Y-18216484D01*
X9895777Y-18216484D02*
X9876729Y-18206960D01*
X9876729Y-18206960D02*
X9867206Y-18197436D01*
X10076729Y-18216484D02*
X10114825Y-18216484D01*
X10114825Y-18216484D02*
X10133872Y-18206960D01*
X10133872Y-18206960D02*
X10143396Y-18197436D01*
X10143396Y-18197436D02*
X10162444Y-18168865D01*
X10162444Y-18168865D02*
X10171968Y-18130770D01*
X10171968Y-18130770D02*
X10171968Y-18054579D01*
X10171968Y-18054579D02*
X10162444Y-18035531D01*
X10162444Y-18035531D02*
X10152920Y-18026008D01*
X10152920Y-18026008D02*
X10133872Y-18016484D01*
X10133872Y-18016484D02*
X10095777Y-18016484D01*
X10095777Y-18016484D02*
X10076729Y-18026008D01*
X10076729Y-18026008D02*
X10067206Y-18035531D01*
X10067206Y-18035531D02*
X10057682Y-18054579D01*
X10057682Y-18054579D02*
X10057682Y-18102198D01*
X10057682Y-18102198D02*
X10067206Y-18121246D01*
X10067206Y-18121246D02*
X10076729Y-18130770D01*
X10076729Y-18130770D02*
X10095777Y-18140293D01*
X10095777Y-18140293D02*
X10133872Y-18140293D01*
X10133872Y-18140293D02*
X10152920Y-18130770D01*
X10152920Y-18130770D02*
X10162444Y-18121246D01*
X10162444Y-18121246D02*
X10171968Y-18102198D01*
X10362444Y-18216484D02*
X10248158Y-18216484D01*
X10305301Y-18216484D02*
X10305301Y-18016484D01*
X10305301Y-18016484D02*
X10286253Y-18045055D01*
X10286253Y-18045055D02*
X10267206Y-18064103D01*
X10267206Y-18064103D02*
X10248158Y-18073627D01*
X10438634Y-18016484D02*
X10438634Y-18054579D01*
X10514825Y-18016484D02*
X10514825Y-18054579D01*
X10810063Y-18292674D02*
X10800539Y-18283150D01*
X10800539Y-18283150D02*
X10781491Y-18254579D01*
X10781491Y-18254579D02*
X10771968Y-18235531D01*
X10771968Y-18235531D02*
X10762444Y-18206960D01*
X10762444Y-18206960D02*
X10752920Y-18159341D01*
X10752920Y-18159341D02*
X10752920Y-18121246D01*
X10752920Y-18121246D02*
X10762444Y-18073627D01*
X10762444Y-18073627D02*
X10771968Y-18045055D01*
X10771968Y-18045055D02*
X10781491Y-18026008D01*
X10781491Y-18026008D02*
X10800539Y-17997436D01*
X10800539Y-17997436D02*
X10810063Y-17987912D01*
X10991015Y-18216484D02*
X10876730Y-18216484D01*
X10933872Y-18216484D02*
X10933872Y-18016484D01*
X10933872Y-18016484D02*
X10914825Y-18045055D01*
X10914825Y-18045055D02*
X10895777Y-18064103D01*
X10895777Y-18064103D02*
X10876730Y-18073627D01*
X11229110Y-18216484D02*
X11229110Y-18016484D01*
X11314825Y-18216484D02*
X11314825Y-18111722D01*
X11314825Y-18111722D02*
X11305301Y-18092674D01*
X11305301Y-18092674D02*
X11286253Y-18083150D01*
X11286253Y-18083150D02*
X11257682Y-18083150D01*
X11257682Y-18083150D02*
X11238634Y-18092674D01*
X11238634Y-18092674D02*
X11229110Y-18102198D01*
X11438634Y-18216484D02*
X11419587Y-18206960D01*
X11419587Y-18206960D02*
X11410063Y-18197436D01*
X11410063Y-18197436D02*
X11400539Y-18178389D01*
X11400539Y-18178389D02*
X11400539Y-18121246D01*
X11400539Y-18121246D02*
X11410063Y-18102198D01*
X11410063Y-18102198D02*
X11419587Y-18092674D01*
X11419587Y-18092674D02*
X11438634Y-18083150D01*
X11438634Y-18083150D02*
X11467206Y-18083150D01*
X11467206Y-18083150D02*
X11486253Y-18092674D01*
X11486253Y-18092674D02*
X11495777Y-18102198D01*
X11495777Y-18102198D02*
X11505301Y-18121246D01*
X11505301Y-18121246D02*
X11505301Y-18178389D01*
X11505301Y-18178389D02*
X11495777Y-18197436D01*
X11495777Y-18197436D02*
X11486253Y-18206960D01*
X11486253Y-18206960D02*
X11467206Y-18216484D01*
X11467206Y-18216484D02*
X11438634Y-18216484D01*
X11619587Y-18216484D02*
X11600539Y-18206960D01*
X11600539Y-18206960D02*
X11591015Y-18187912D01*
X11591015Y-18187912D02*
X11591015Y-18016484D01*
X11771968Y-18206960D02*
X11752920Y-18216484D01*
X11752920Y-18216484D02*
X11714825Y-18216484D01*
X11714825Y-18216484D02*
X11695777Y-18206960D01*
X11695777Y-18206960D02*
X11686253Y-18187912D01*
X11686253Y-18187912D02*
X11686253Y-18111722D01*
X11686253Y-18111722D02*
X11695777Y-18092674D01*
X11695777Y-18092674D02*
X11714825Y-18083150D01*
X11714825Y-18083150D02*
X11752920Y-18083150D01*
X11752920Y-18083150D02*
X11771968Y-18092674D01*
X11771968Y-18092674D02*
X11781491Y-18111722D01*
X11781491Y-18111722D02*
X11781491Y-18130770D01*
X11781491Y-18130770D02*
X11686253Y-18149817D01*
X11848158Y-18292674D02*
X11857682Y-18283150D01*
X11857682Y-18283150D02*
X11876730Y-18254579D01*
X11876730Y-18254579D02*
X11886253Y-18235531D01*
X11886253Y-18235531D02*
X11895777Y-18206960D01*
X11895777Y-18206960D02*
X11905301Y-18159341D01*
X11905301Y-18159341D02*
X11905301Y-18121246D01*
X11905301Y-18121246D02*
X11895777Y-18073627D01*
X11895777Y-18073627D02*
X11886253Y-18045055D01*
X11886253Y-18045055D02*
X11876730Y-18026008D01*
X11876730Y-18026008D02*
X11857682Y-17997436D01*
X11857682Y-17997436D02*
X11848158Y-17987912D01*
D15*
X7065000Y-18310000D02*
X7235000Y-18480000D01*
X7235000Y-18310000D02*
X7065000Y-18480000D01*
X7150000Y-18310000D02*
X7150000Y-18480000D01*
X7065000Y-18395000D02*
X7235000Y-18395000D01*
D11*
X7600539Y-18486484D02*
X7486253Y-18486484D01*
X7543396Y-18486484D02*
X7543396Y-18286484D01*
X7543396Y-18286484D02*
X7524348Y-18315055D01*
X7524348Y-18315055D02*
X7505301Y-18334103D01*
X7505301Y-18334103D02*
X7486253Y-18343627D01*
X7686253Y-18467436D02*
X7695777Y-18476960D01*
X7695777Y-18476960D02*
X7686253Y-18486484D01*
X7686253Y-18486484D02*
X7676729Y-18476960D01*
X7676729Y-18476960D02*
X7686253Y-18467436D01*
X7686253Y-18467436D02*
X7686253Y-18486484D01*
X7762443Y-18286484D02*
X7895777Y-18286484D01*
X7895777Y-18286484D02*
X7810062Y-18486484D01*
X8010062Y-18286484D02*
X8029110Y-18286484D01*
X8029110Y-18286484D02*
X8048158Y-18296008D01*
X8048158Y-18296008D02*
X8057682Y-18305531D01*
X8057682Y-18305531D02*
X8067205Y-18324579D01*
X8067205Y-18324579D02*
X8076729Y-18362674D01*
X8076729Y-18362674D02*
X8076729Y-18410293D01*
X8076729Y-18410293D02*
X8067205Y-18448389D01*
X8067205Y-18448389D02*
X8057682Y-18467436D01*
X8057682Y-18467436D02*
X8048158Y-18476960D01*
X8048158Y-18476960D02*
X8029110Y-18486484D01*
X8029110Y-18486484D02*
X8010062Y-18486484D01*
X8010062Y-18486484D02*
X7991015Y-18476960D01*
X7991015Y-18476960D02*
X7981491Y-18467436D01*
X7981491Y-18467436D02*
X7971967Y-18448389D01*
X7971967Y-18448389D02*
X7962443Y-18410293D01*
X7962443Y-18410293D02*
X7962443Y-18362674D01*
X7962443Y-18362674D02*
X7971967Y-18324579D01*
X7971967Y-18324579D02*
X7981491Y-18305531D01*
X7981491Y-18305531D02*
X7991015Y-18296008D01*
X7991015Y-18296008D02*
X8010062Y-18286484D01*
X8200539Y-18286484D02*
X8219586Y-18286484D01*
X8219586Y-18286484D02*
X8238634Y-18296008D01*
X8238634Y-18296008D02*
X8248158Y-18305531D01*
X8248158Y-18305531D02*
X8257682Y-18324579D01*
X8257682Y-18324579D02*
X8267205Y-18362674D01*
X8267205Y-18362674D02*
X8267205Y-18410293D01*
X8267205Y-18410293D02*
X8257682Y-18448389D01*
X8257682Y-18448389D02*
X8248158Y-18467436D01*
X8248158Y-18467436D02*
X8238634Y-18476960D01*
X8238634Y-18476960D02*
X8219586Y-18486484D01*
X8219586Y-18486484D02*
X8200539Y-18486484D01*
X8200539Y-18486484D02*
X8181491Y-18476960D01*
X8181491Y-18476960D02*
X8171967Y-18467436D01*
X8171967Y-18467436D02*
X8162443Y-18448389D01*
X8162443Y-18448389D02*
X8152920Y-18410293D01*
X8152920Y-18410293D02*
X8152920Y-18362674D01*
X8152920Y-18362674D02*
X8162443Y-18324579D01*
X8162443Y-18324579D02*
X8171967Y-18305531D01*
X8171967Y-18305531D02*
X8181491Y-18296008D01*
X8181491Y-18296008D02*
X8200539Y-18286484D01*
X8352920Y-18486484D02*
X8352920Y-18353150D01*
X8352920Y-18372198D02*
X8362443Y-18362674D01*
X8362443Y-18362674D02*
X8381491Y-18353150D01*
X8381491Y-18353150D02*
X8410063Y-18353150D01*
X8410063Y-18353150D02*
X8429110Y-18362674D01*
X8429110Y-18362674D02*
X8438634Y-18381722D01*
X8438634Y-18381722D02*
X8438634Y-18486484D01*
X8438634Y-18381722D02*
X8448158Y-18362674D01*
X8448158Y-18362674D02*
X8467205Y-18353150D01*
X8467205Y-18353150D02*
X8495777Y-18353150D01*
X8495777Y-18353150D02*
X8514825Y-18362674D01*
X8514825Y-18362674D02*
X8524348Y-18381722D01*
X8524348Y-18381722D02*
X8524348Y-18486484D01*
X8619586Y-18486484D02*
X8619586Y-18353150D01*
X8619586Y-18372198D02*
X8629110Y-18362674D01*
X8629110Y-18362674D02*
X8648158Y-18353150D01*
X8648158Y-18353150D02*
X8676729Y-18353150D01*
X8676729Y-18353150D02*
X8695777Y-18362674D01*
X8695777Y-18362674D02*
X8705301Y-18381722D01*
X8705301Y-18381722D02*
X8705301Y-18486484D01*
X8705301Y-18381722D02*
X8714825Y-18362674D01*
X8714825Y-18362674D02*
X8733872Y-18353150D01*
X8733872Y-18353150D02*
X8762444Y-18353150D01*
X8762444Y-18353150D02*
X8781491Y-18362674D01*
X8781491Y-18362674D02*
X8791015Y-18381722D01*
X8791015Y-18381722D02*
X8791015Y-18486484D01*
X9181491Y-18276960D02*
X9010063Y-18534103D01*
X9438634Y-18286484D02*
X9457682Y-18286484D01*
X9457682Y-18286484D02*
X9476729Y-18296008D01*
X9476729Y-18296008D02*
X9486253Y-18305531D01*
X9486253Y-18305531D02*
X9495777Y-18324579D01*
X9495777Y-18324579D02*
X9505301Y-18362674D01*
X9505301Y-18362674D02*
X9505301Y-18410293D01*
X9505301Y-18410293D02*
X9495777Y-18448389D01*
X9495777Y-18448389D02*
X9486253Y-18467436D01*
X9486253Y-18467436D02*
X9476729Y-18476960D01*
X9476729Y-18476960D02*
X9457682Y-18486484D01*
X9457682Y-18486484D02*
X9438634Y-18486484D01*
X9438634Y-18486484D02*
X9419587Y-18476960D01*
X9419587Y-18476960D02*
X9410063Y-18467436D01*
X9410063Y-18467436D02*
X9400539Y-18448389D01*
X9400539Y-18448389D02*
X9391015Y-18410293D01*
X9391015Y-18410293D02*
X9391015Y-18362674D01*
X9391015Y-18362674D02*
X9400539Y-18324579D01*
X9400539Y-18324579D02*
X9410063Y-18305531D01*
X9410063Y-18305531D02*
X9419587Y-18296008D01*
X9419587Y-18296008D02*
X9438634Y-18286484D01*
X9591015Y-18467436D02*
X9600539Y-18476960D01*
X9600539Y-18476960D02*
X9591015Y-18486484D01*
X9591015Y-18486484D02*
X9581491Y-18476960D01*
X9581491Y-18476960D02*
X9591015Y-18467436D01*
X9591015Y-18467436D02*
X9591015Y-18486484D01*
X9724348Y-18286484D02*
X9743396Y-18286484D01*
X9743396Y-18286484D02*
X9762444Y-18296008D01*
X9762444Y-18296008D02*
X9771968Y-18305531D01*
X9771968Y-18305531D02*
X9781491Y-18324579D01*
X9781491Y-18324579D02*
X9791015Y-18362674D01*
X9791015Y-18362674D02*
X9791015Y-18410293D01*
X9791015Y-18410293D02*
X9781491Y-18448389D01*
X9781491Y-18448389D02*
X9771968Y-18467436D01*
X9771968Y-18467436D02*
X9762444Y-18476960D01*
X9762444Y-18476960D02*
X9743396Y-18486484D01*
X9743396Y-18486484D02*
X9724348Y-18486484D01*
X9724348Y-18486484D02*
X9705301Y-18476960D01*
X9705301Y-18476960D02*
X9695777Y-18467436D01*
X9695777Y-18467436D02*
X9686253Y-18448389D01*
X9686253Y-18448389D02*
X9676729Y-18410293D01*
X9676729Y-18410293D02*
X9676729Y-18362674D01*
X9676729Y-18362674D02*
X9686253Y-18324579D01*
X9686253Y-18324579D02*
X9695777Y-18305531D01*
X9695777Y-18305531D02*
X9705301Y-18296008D01*
X9705301Y-18296008D02*
X9724348Y-18286484D01*
X9962444Y-18286484D02*
X9924348Y-18286484D01*
X9924348Y-18286484D02*
X9905301Y-18296008D01*
X9905301Y-18296008D02*
X9895777Y-18305531D01*
X9895777Y-18305531D02*
X9876729Y-18334103D01*
X9876729Y-18334103D02*
X9867206Y-18372198D01*
X9867206Y-18372198D02*
X9867206Y-18448389D01*
X9867206Y-18448389D02*
X9876729Y-18467436D01*
X9876729Y-18467436D02*
X9886253Y-18476960D01*
X9886253Y-18476960D02*
X9905301Y-18486484D01*
X9905301Y-18486484D02*
X9943396Y-18486484D01*
X9943396Y-18486484D02*
X9962444Y-18476960D01*
X9962444Y-18476960D02*
X9971968Y-18467436D01*
X9971968Y-18467436D02*
X9981491Y-18448389D01*
X9981491Y-18448389D02*
X9981491Y-18400770D01*
X9981491Y-18400770D02*
X9971968Y-18381722D01*
X9971968Y-18381722D02*
X9962444Y-18372198D01*
X9962444Y-18372198D02*
X9943396Y-18362674D01*
X9943396Y-18362674D02*
X9905301Y-18362674D01*
X9905301Y-18362674D02*
X9886253Y-18372198D01*
X9886253Y-18372198D02*
X9876729Y-18381722D01*
X9876729Y-18381722D02*
X9867206Y-18400770D01*
X10152920Y-18286484D02*
X10114825Y-18286484D01*
X10114825Y-18286484D02*
X10095777Y-18296008D01*
X10095777Y-18296008D02*
X10086253Y-18305531D01*
X10086253Y-18305531D02*
X10067206Y-18334103D01*
X10067206Y-18334103D02*
X10057682Y-18372198D01*
X10057682Y-18372198D02*
X10057682Y-18448389D01*
X10057682Y-18448389D02*
X10067206Y-18467436D01*
X10067206Y-18467436D02*
X10076729Y-18476960D01*
X10076729Y-18476960D02*
X10095777Y-18486484D01*
X10095777Y-18486484D02*
X10133872Y-18486484D01*
X10133872Y-18486484D02*
X10152920Y-18476960D01*
X10152920Y-18476960D02*
X10162444Y-18467436D01*
X10162444Y-18467436D02*
X10171968Y-18448389D01*
X10171968Y-18448389D02*
X10171968Y-18400770D01*
X10171968Y-18400770D02*
X10162444Y-18381722D01*
X10162444Y-18381722D02*
X10152920Y-18372198D01*
X10152920Y-18372198D02*
X10133872Y-18362674D01*
X10133872Y-18362674D02*
X10095777Y-18362674D01*
X10095777Y-18362674D02*
X10076729Y-18372198D01*
X10076729Y-18372198D02*
X10067206Y-18381722D01*
X10067206Y-18381722D02*
X10057682Y-18400770D01*
X10267206Y-18486484D02*
X10305301Y-18486484D01*
X10305301Y-18486484D02*
X10324349Y-18476960D01*
X10324349Y-18476960D02*
X10333872Y-18467436D01*
X10333872Y-18467436D02*
X10352920Y-18438865D01*
X10352920Y-18438865D02*
X10362444Y-18400770D01*
X10362444Y-18400770D02*
X10362444Y-18324579D01*
X10362444Y-18324579D02*
X10352920Y-18305531D01*
X10352920Y-18305531D02*
X10343396Y-18296008D01*
X10343396Y-18296008D02*
X10324349Y-18286484D01*
X10324349Y-18286484D02*
X10286253Y-18286484D01*
X10286253Y-18286484D02*
X10267206Y-18296008D01*
X10267206Y-18296008D02*
X10257682Y-18305531D01*
X10257682Y-18305531D02*
X10248158Y-18324579D01*
X10248158Y-18324579D02*
X10248158Y-18372198D01*
X10248158Y-18372198D02*
X10257682Y-18391246D01*
X10257682Y-18391246D02*
X10267206Y-18400770D01*
X10267206Y-18400770D02*
X10286253Y-18410293D01*
X10286253Y-18410293D02*
X10324349Y-18410293D01*
X10324349Y-18410293D02*
X10343396Y-18400770D01*
X10343396Y-18400770D02*
X10352920Y-18391246D01*
X10352920Y-18391246D02*
X10362444Y-18372198D01*
X10438634Y-18286484D02*
X10438634Y-18324579D01*
X10514825Y-18286484D02*
X10514825Y-18324579D01*
X10810063Y-18562674D02*
X10800539Y-18553150D01*
X10800539Y-18553150D02*
X10781491Y-18524579D01*
X10781491Y-18524579D02*
X10771968Y-18505531D01*
X10771968Y-18505531D02*
X10762444Y-18476960D01*
X10762444Y-18476960D02*
X10752920Y-18429341D01*
X10752920Y-18429341D02*
X10752920Y-18391246D01*
X10752920Y-18391246D02*
X10762444Y-18343627D01*
X10762444Y-18343627D02*
X10771968Y-18315055D01*
X10771968Y-18315055D02*
X10781491Y-18296008D01*
X10781491Y-18296008D02*
X10800539Y-18267436D01*
X10800539Y-18267436D02*
X10810063Y-18257912D01*
X10991015Y-18486484D02*
X10876730Y-18486484D01*
X10933872Y-18486484D02*
X10933872Y-18286484D01*
X10933872Y-18286484D02*
X10914825Y-18315055D01*
X10914825Y-18315055D02*
X10895777Y-18334103D01*
X10895777Y-18334103D02*
X10876730Y-18343627D01*
X11229110Y-18486484D02*
X11229110Y-18286484D01*
X11314825Y-18486484D02*
X11314825Y-18381722D01*
X11314825Y-18381722D02*
X11305301Y-18362674D01*
X11305301Y-18362674D02*
X11286253Y-18353150D01*
X11286253Y-18353150D02*
X11257682Y-18353150D01*
X11257682Y-18353150D02*
X11238634Y-18362674D01*
X11238634Y-18362674D02*
X11229110Y-18372198D01*
X11438634Y-18486484D02*
X11419587Y-18476960D01*
X11419587Y-18476960D02*
X11410063Y-18467436D01*
X11410063Y-18467436D02*
X11400539Y-18448389D01*
X11400539Y-18448389D02*
X11400539Y-18391246D01*
X11400539Y-18391246D02*
X11410063Y-18372198D01*
X11410063Y-18372198D02*
X11419587Y-18362674D01*
X11419587Y-18362674D02*
X11438634Y-18353150D01*
X11438634Y-18353150D02*
X11467206Y-18353150D01*
X11467206Y-18353150D02*
X11486253Y-18362674D01*
X11486253Y-18362674D02*
X11495777Y-18372198D01*
X11495777Y-18372198D02*
X11505301Y-18391246D01*
X11505301Y-18391246D02*
X11505301Y-18448389D01*
X11505301Y-18448389D02*
X11495777Y-18467436D01*
X11495777Y-18467436D02*
X11486253Y-18476960D01*
X11486253Y-18476960D02*
X11467206Y-18486484D01*
X11467206Y-18486484D02*
X11438634Y-18486484D01*
X11619587Y-18486484D02*
X11600539Y-18476960D01*
X11600539Y-18476960D02*
X11591015Y-18457912D01*
X11591015Y-18457912D02*
X11591015Y-18286484D01*
X11771968Y-18476960D02*
X11752920Y-18486484D01*
X11752920Y-18486484D02*
X11714825Y-18486484D01*
X11714825Y-18486484D02*
X11695777Y-18476960D01*
X11695777Y-18476960D02*
X11686253Y-18457912D01*
X11686253Y-18457912D02*
X11686253Y-18381722D01*
X11686253Y-18381722D02*
X11695777Y-18362674D01*
X11695777Y-18362674D02*
X11714825Y-18353150D01*
X11714825Y-18353150D02*
X11752920Y-18353150D01*
X11752920Y-18353150D02*
X11771968Y-18362674D01*
X11771968Y-18362674D02*
X11781491Y-18381722D01*
X11781491Y-18381722D02*
X11781491Y-18400770D01*
X11781491Y-18400770D02*
X11686253Y-18419817D01*
X11848158Y-18562674D02*
X11857682Y-18553150D01*
X11857682Y-18553150D02*
X11876730Y-18524579D01*
X11876730Y-18524579D02*
X11886253Y-18505531D01*
X11886253Y-18505531D02*
X11895777Y-18476960D01*
X11895777Y-18476960D02*
X11905301Y-18429341D01*
X11905301Y-18429341D02*
X11905301Y-18391246D01*
X11905301Y-18391246D02*
X11895777Y-18343627D01*
X11895777Y-18343627D02*
X11886253Y-18315055D01*
X11886253Y-18315055D02*
X11876730Y-18296008D01*
X11876730Y-18296008D02*
X11857682Y-18267436D01*
X11857682Y-18267436D02*
X11848158Y-18257912D01*
X7035000Y-18585000D02*
X7235000Y-18785000D01*
X7235000Y-18585000D02*
X7035000Y-18785000D01*
X7205711Y-18755711D02*
X7205711Y-18614289D01*
X7064289Y-18614289D01*
X7064289Y-18755711D01*
X7205711Y-18755711D01*
X7476729Y-18576484D02*
X7600539Y-18576484D01*
X7600539Y-18576484D02*
X7533872Y-18652674D01*
X7533872Y-18652674D02*
X7562443Y-18652674D01*
X7562443Y-18652674D02*
X7581491Y-18662198D01*
X7581491Y-18662198D02*
X7591015Y-18671722D01*
X7591015Y-18671722D02*
X7600539Y-18690770D01*
X7600539Y-18690770D02*
X7600539Y-18738389D01*
X7600539Y-18738389D02*
X7591015Y-18757436D01*
X7591015Y-18757436D02*
X7581491Y-18766960D01*
X7581491Y-18766960D02*
X7562443Y-18776484D01*
X7562443Y-18776484D02*
X7505301Y-18776484D01*
X7505301Y-18776484D02*
X7486253Y-18766960D01*
X7486253Y-18766960D02*
X7476729Y-18757436D01*
X7686253Y-18757436D02*
X7695777Y-18766960D01*
X7695777Y-18766960D02*
X7686253Y-18776484D01*
X7686253Y-18776484D02*
X7676729Y-18766960D01*
X7676729Y-18766960D02*
X7686253Y-18757436D01*
X7686253Y-18757436D02*
X7686253Y-18776484D01*
X7771967Y-18595531D02*
X7781491Y-18586008D01*
X7781491Y-18586008D02*
X7800539Y-18576484D01*
X7800539Y-18576484D02*
X7848158Y-18576484D01*
X7848158Y-18576484D02*
X7867205Y-18586008D01*
X7867205Y-18586008D02*
X7876729Y-18595531D01*
X7876729Y-18595531D02*
X7886253Y-18614579D01*
X7886253Y-18614579D02*
X7886253Y-18633627D01*
X7886253Y-18633627D02*
X7876729Y-18662198D01*
X7876729Y-18662198D02*
X7762443Y-18776484D01*
X7762443Y-18776484D02*
X7886253Y-18776484D01*
X8010062Y-18576484D02*
X8029110Y-18576484D01*
X8029110Y-18576484D02*
X8048158Y-18586008D01*
X8048158Y-18586008D02*
X8057682Y-18595531D01*
X8057682Y-18595531D02*
X8067205Y-18614579D01*
X8067205Y-18614579D02*
X8076729Y-18652674D01*
X8076729Y-18652674D02*
X8076729Y-18700293D01*
X8076729Y-18700293D02*
X8067205Y-18738389D01*
X8067205Y-18738389D02*
X8057682Y-18757436D01*
X8057682Y-18757436D02*
X8048158Y-18766960D01*
X8048158Y-18766960D02*
X8029110Y-18776484D01*
X8029110Y-18776484D02*
X8010062Y-18776484D01*
X8010062Y-18776484D02*
X7991015Y-18766960D01*
X7991015Y-18766960D02*
X7981491Y-18757436D01*
X7981491Y-18757436D02*
X7971967Y-18738389D01*
X7971967Y-18738389D02*
X7962443Y-18700293D01*
X7962443Y-18700293D02*
X7962443Y-18652674D01*
X7962443Y-18652674D02*
X7971967Y-18614579D01*
X7971967Y-18614579D02*
X7981491Y-18595531D01*
X7981491Y-18595531D02*
X7991015Y-18586008D01*
X7991015Y-18586008D02*
X8010062Y-18576484D01*
X8200539Y-18576484D02*
X8219586Y-18576484D01*
X8219586Y-18576484D02*
X8238634Y-18586008D01*
X8238634Y-18586008D02*
X8248158Y-18595531D01*
X8248158Y-18595531D02*
X8257682Y-18614579D01*
X8257682Y-18614579D02*
X8267205Y-18652674D01*
X8267205Y-18652674D02*
X8267205Y-18700293D01*
X8267205Y-18700293D02*
X8257682Y-18738389D01*
X8257682Y-18738389D02*
X8248158Y-18757436D01*
X8248158Y-18757436D02*
X8238634Y-18766960D01*
X8238634Y-18766960D02*
X8219586Y-18776484D01*
X8219586Y-18776484D02*
X8200539Y-18776484D01*
X8200539Y-18776484D02*
X8181491Y-18766960D01*
X8181491Y-18766960D02*
X8171967Y-18757436D01*
X8171967Y-18757436D02*
X8162443Y-18738389D01*
X8162443Y-18738389D02*
X8152920Y-18700293D01*
X8152920Y-18700293D02*
X8152920Y-18652674D01*
X8152920Y-18652674D02*
X8162443Y-18614579D01*
X8162443Y-18614579D02*
X8171967Y-18595531D01*
X8171967Y-18595531D02*
X8181491Y-18586008D01*
X8181491Y-18586008D02*
X8200539Y-18576484D01*
X8352920Y-18776484D02*
X8352920Y-18643150D01*
X8352920Y-18662198D02*
X8362443Y-18652674D01*
X8362443Y-18652674D02*
X8381491Y-18643150D01*
X8381491Y-18643150D02*
X8410063Y-18643150D01*
X8410063Y-18643150D02*
X8429110Y-18652674D01*
X8429110Y-18652674D02*
X8438634Y-18671722D01*
X8438634Y-18671722D02*
X8438634Y-18776484D01*
X8438634Y-18671722D02*
X8448158Y-18652674D01*
X8448158Y-18652674D02*
X8467205Y-18643150D01*
X8467205Y-18643150D02*
X8495777Y-18643150D01*
X8495777Y-18643150D02*
X8514825Y-18652674D01*
X8514825Y-18652674D02*
X8524348Y-18671722D01*
X8524348Y-18671722D02*
X8524348Y-18776484D01*
X8619586Y-18776484D02*
X8619586Y-18643150D01*
X8619586Y-18662198D02*
X8629110Y-18652674D01*
X8629110Y-18652674D02*
X8648158Y-18643150D01*
X8648158Y-18643150D02*
X8676729Y-18643150D01*
X8676729Y-18643150D02*
X8695777Y-18652674D01*
X8695777Y-18652674D02*
X8705301Y-18671722D01*
X8705301Y-18671722D02*
X8705301Y-18776484D01*
X8705301Y-18671722D02*
X8714825Y-18652674D01*
X8714825Y-18652674D02*
X8733872Y-18643150D01*
X8733872Y-18643150D02*
X8762444Y-18643150D01*
X8762444Y-18643150D02*
X8781491Y-18652674D01*
X8781491Y-18652674D02*
X8791015Y-18671722D01*
X8791015Y-18671722D02*
X8791015Y-18776484D01*
X9181491Y-18566960D02*
X9010063Y-18824103D01*
X9438634Y-18576484D02*
X9457682Y-18576484D01*
X9457682Y-18576484D02*
X9476729Y-18586008D01*
X9476729Y-18586008D02*
X9486253Y-18595531D01*
X9486253Y-18595531D02*
X9495777Y-18614579D01*
X9495777Y-18614579D02*
X9505301Y-18652674D01*
X9505301Y-18652674D02*
X9505301Y-18700293D01*
X9505301Y-18700293D02*
X9495777Y-18738389D01*
X9495777Y-18738389D02*
X9486253Y-18757436D01*
X9486253Y-18757436D02*
X9476729Y-18766960D01*
X9476729Y-18766960D02*
X9457682Y-18776484D01*
X9457682Y-18776484D02*
X9438634Y-18776484D01*
X9438634Y-18776484D02*
X9419587Y-18766960D01*
X9419587Y-18766960D02*
X9410063Y-18757436D01*
X9410063Y-18757436D02*
X9400539Y-18738389D01*
X9400539Y-18738389D02*
X9391015Y-18700293D01*
X9391015Y-18700293D02*
X9391015Y-18652674D01*
X9391015Y-18652674D02*
X9400539Y-18614579D01*
X9400539Y-18614579D02*
X9410063Y-18595531D01*
X9410063Y-18595531D02*
X9419587Y-18586008D01*
X9419587Y-18586008D02*
X9438634Y-18576484D01*
X9591015Y-18757436D02*
X9600539Y-18766960D01*
X9600539Y-18766960D02*
X9591015Y-18776484D01*
X9591015Y-18776484D02*
X9581491Y-18766960D01*
X9581491Y-18766960D02*
X9591015Y-18757436D01*
X9591015Y-18757436D02*
X9591015Y-18776484D01*
X9791015Y-18776484D02*
X9676729Y-18776484D01*
X9733872Y-18776484D02*
X9733872Y-18576484D01*
X9733872Y-18576484D02*
X9714825Y-18605055D01*
X9714825Y-18605055D02*
X9695777Y-18624103D01*
X9695777Y-18624103D02*
X9676729Y-18633627D01*
X9867206Y-18595531D02*
X9876729Y-18586008D01*
X9876729Y-18586008D02*
X9895777Y-18576484D01*
X9895777Y-18576484D02*
X9943396Y-18576484D01*
X9943396Y-18576484D02*
X9962444Y-18586008D01*
X9962444Y-18586008D02*
X9971968Y-18595531D01*
X9971968Y-18595531D02*
X9981491Y-18614579D01*
X9981491Y-18614579D02*
X9981491Y-18633627D01*
X9981491Y-18633627D02*
X9971968Y-18662198D01*
X9971968Y-18662198D02*
X9857682Y-18776484D01*
X9857682Y-18776484D02*
X9981491Y-18776484D01*
X10152920Y-18576484D02*
X10114825Y-18576484D01*
X10114825Y-18576484D02*
X10095777Y-18586008D01*
X10095777Y-18586008D02*
X10086253Y-18595531D01*
X10086253Y-18595531D02*
X10067206Y-18624103D01*
X10067206Y-18624103D02*
X10057682Y-18662198D01*
X10057682Y-18662198D02*
X10057682Y-18738389D01*
X10057682Y-18738389D02*
X10067206Y-18757436D01*
X10067206Y-18757436D02*
X10076729Y-18766960D01*
X10076729Y-18766960D02*
X10095777Y-18776484D01*
X10095777Y-18776484D02*
X10133872Y-18776484D01*
X10133872Y-18776484D02*
X10152920Y-18766960D01*
X10152920Y-18766960D02*
X10162444Y-18757436D01*
X10162444Y-18757436D02*
X10171968Y-18738389D01*
X10171968Y-18738389D02*
X10171968Y-18690770D01*
X10171968Y-18690770D02*
X10162444Y-18671722D01*
X10162444Y-18671722D02*
X10152920Y-18662198D01*
X10152920Y-18662198D02*
X10133872Y-18652674D01*
X10133872Y-18652674D02*
X10095777Y-18652674D01*
X10095777Y-18652674D02*
X10076729Y-18662198D01*
X10076729Y-18662198D02*
X10067206Y-18671722D01*
X10067206Y-18671722D02*
X10057682Y-18690770D01*
X10295777Y-18576484D02*
X10314825Y-18576484D01*
X10314825Y-18576484D02*
X10333872Y-18586008D01*
X10333872Y-18586008D02*
X10343396Y-18595531D01*
X10343396Y-18595531D02*
X10352920Y-18614579D01*
X10352920Y-18614579D02*
X10362444Y-18652674D01*
X10362444Y-18652674D02*
X10362444Y-18700293D01*
X10362444Y-18700293D02*
X10352920Y-18738389D01*
X10352920Y-18738389D02*
X10343396Y-18757436D01*
X10343396Y-18757436D02*
X10333872Y-18766960D01*
X10333872Y-18766960D02*
X10314825Y-18776484D01*
X10314825Y-18776484D02*
X10295777Y-18776484D01*
X10295777Y-18776484D02*
X10276729Y-18766960D01*
X10276729Y-18766960D02*
X10267206Y-18757436D01*
X10267206Y-18757436D02*
X10257682Y-18738389D01*
X10257682Y-18738389D02*
X10248158Y-18700293D01*
X10248158Y-18700293D02*
X10248158Y-18652674D01*
X10248158Y-18652674D02*
X10257682Y-18614579D01*
X10257682Y-18614579D02*
X10267206Y-18595531D01*
X10267206Y-18595531D02*
X10276729Y-18586008D01*
X10276729Y-18586008D02*
X10295777Y-18576484D01*
X10438634Y-18576484D02*
X10438634Y-18614579D01*
X10514825Y-18576484D02*
X10514825Y-18614579D01*
X10810063Y-18852674D02*
X10800539Y-18843150D01*
X10800539Y-18843150D02*
X10781491Y-18814579D01*
X10781491Y-18814579D02*
X10771968Y-18795531D01*
X10771968Y-18795531D02*
X10762444Y-18766960D01*
X10762444Y-18766960D02*
X10752920Y-18719341D01*
X10752920Y-18719341D02*
X10752920Y-18681246D01*
X10752920Y-18681246D02*
X10762444Y-18633627D01*
X10762444Y-18633627D02*
X10771968Y-18605055D01*
X10771968Y-18605055D02*
X10781491Y-18586008D01*
X10781491Y-18586008D02*
X10800539Y-18557436D01*
X10800539Y-18557436D02*
X10810063Y-18547912D01*
X10971968Y-18643150D02*
X10971968Y-18776484D01*
X10924349Y-18566960D02*
X10876730Y-18709817D01*
X10876730Y-18709817D02*
X11000539Y-18709817D01*
X11229110Y-18776484D02*
X11229110Y-18576484D01*
X11314825Y-18776484D02*
X11314825Y-18671722D01*
X11314825Y-18671722D02*
X11305301Y-18652674D01*
X11305301Y-18652674D02*
X11286253Y-18643150D01*
X11286253Y-18643150D02*
X11257682Y-18643150D01*
X11257682Y-18643150D02*
X11238634Y-18652674D01*
X11238634Y-18652674D02*
X11229110Y-18662198D01*
X11438634Y-18776484D02*
X11419587Y-18766960D01*
X11419587Y-18766960D02*
X11410063Y-18757436D01*
X11410063Y-18757436D02*
X11400539Y-18738389D01*
X11400539Y-18738389D02*
X11400539Y-18681246D01*
X11400539Y-18681246D02*
X11410063Y-18662198D01*
X11410063Y-18662198D02*
X11419587Y-18652674D01*
X11419587Y-18652674D02*
X11438634Y-18643150D01*
X11438634Y-18643150D02*
X11467206Y-18643150D01*
X11467206Y-18643150D02*
X11486253Y-18652674D01*
X11486253Y-18652674D02*
X11495777Y-18662198D01*
X11495777Y-18662198D02*
X11505301Y-18681246D01*
X11505301Y-18681246D02*
X11505301Y-18738389D01*
X11505301Y-18738389D02*
X11495777Y-18757436D01*
X11495777Y-18757436D02*
X11486253Y-18766960D01*
X11486253Y-18766960D02*
X11467206Y-18776484D01*
X11467206Y-18776484D02*
X11438634Y-18776484D01*
X11619587Y-18776484D02*
X11600539Y-18766960D01*
X11600539Y-18766960D02*
X11591015Y-18747912D01*
X11591015Y-18747912D02*
X11591015Y-18576484D01*
X11771968Y-18766960D02*
X11752920Y-18776484D01*
X11752920Y-18776484D02*
X11714825Y-18776484D01*
X11714825Y-18776484D02*
X11695777Y-18766960D01*
X11695777Y-18766960D02*
X11686253Y-18747912D01*
X11686253Y-18747912D02*
X11686253Y-18671722D01*
X11686253Y-18671722D02*
X11695777Y-18652674D01*
X11695777Y-18652674D02*
X11714825Y-18643150D01*
X11714825Y-18643150D02*
X11752920Y-18643150D01*
X11752920Y-18643150D02*
X11771968Y-18652674D01*
X11771968Y-18652674D02*
X11781491Y-18671722D01*
X11781491Y-18671722D02*
X11781491Y-18690770D01*
X11781491Y-18690770D02*
X11686253Y-18709817D01*
X11857682Y-18766960D02*
X11876730Y-18776484D01*
X11876730Y-18776484D02*
X11914825Y-18776484D01*
X11914825Y-18776484D02*
X11933872Y-18766960D01*
X11933872Y-18766960D02*
X11943396Y-18747912D01*
X11943396Y-18747912D02*
X11943396Y-18738389D01*
X11943396Y-18738389D02*
X11933872Y-18719341D01*
X11933872Y-18719341D02*
X11914825Y-18709817D01*
X11914825Y-18709817D02*
X11886253Y-18709817D01*
X11886253Y-18709817D02*
X11867206Y-18700293D01*
X11867206Y-18700293D02*
X11857682Y-18681246D01*
X11857682Y-18681246D02*
X11857682Y-18671722D01*
X11857682Y-18671722D02*
X11867206Y-18652674D01*
X11867206Y-18652674D02*
X11886253Y-18643150D01*
X11886253Y-18643150D02*
X11914825Y-18643150D01*
X11914825Y-18643150D02*
X11933872Y-18652674D01*
X12010063Y-18852674D02*
X12019587Y-18843150D01*
X12019587Y-18843150D02*
X12038634Y-18814579D01*
X12038634Y-18814579D02*
X12048158Y-18795531D01*
X12048158Y-18795531D02*
X12057682Y-18766960D01*
X12057682Y-18766960D02*
X12067206Y-18719341D01*
X12067206Y-18719341D02*
X12067206Y-18681246D01*
X12067206Y-18681246D02*
X12057682Y-18633627D01*
X12057682Y-18633627D02*
X12048158Y-18605055D01*
X12048158Y-18605055D02*
X12038634Y-18586008D01*
X12038634Y-18586008D02*
X12019587Y-18557436D01*
X12019587Y-18557436D02*
X12010063Y-18547912D01*
M02*
