G04 #@! TF.GenerationSoftware,KiCad,Pcbnew,7.0.11*
G04 #@! TF.CreationDate,2024-10-24T13:39:29-04:00*
G04 #@! TF.ProjectId,mouse-joystick-pcb,6d6f7573-652d-46a6-9f79-737469636b2d,1.0*
G04 #@! TF.SameCoordinates,Original*
G04 #@! TF.FileFunction,Paste,Top*
G04 #@! TF.FilePolarity,Positive*
%FSLAX46Y46*%
G04 Gerber Fmt 4.6, Leading zero omitted, Abs format (unit mm)*
G04 Created by KiCad (PCBNEW 7.0.11) date 2024-10-24 13:39:29*
%MOMM*%
%LPD*%
G01*
G04 APERTURE LIST*
G04 Aperture macros list*
%AMRoundRect*
0 Rectangle with rounded corners*
0 $1 Rounding radius*
0 $2 $3 $4 $5 $6 $7 $8 $9 X,Y pos of 4 corners*
0 Add a 4 corners polygon primitive as box body*
4,1,4,$2,$3,$4,$5,$6,$7,$8,$9,$2,$3,0*
0 Add four circle primitives for the rounded corners*
1,1,$1+$1,$2,$3*
1,1,$1+$1,$4,$5*
1,1,$1+$1,$6,$7*
1,1,$1+$1,$8,$9*
0 Add four rect primitives between the rounded corners*
20,1,$1+$1,$2,$3,$4,$5,0*
20,1,$1+$1,$4,$5,$6,$7,0*
20,1,$1+$1,$6,$7,$8,$9,0*
20,1,$1+$1,$8,$9,$2,$3,0*%
%AMFreePoly0*
4,1,57,0.310454,0.500914,0.314650,0.501215,0.316895,0.499988,0.322751,0.499147,0.347130,0.483479,0.372568,0.469589,0.469589,0.372568,0.482119,0.355828,0.485300,0.353073,0.486021,0.350617,0.489565,0.345883,0.495723,0.317573,0.503891,0.289756,0.503891,-0.289756,0.500914,-0.310455,0.501215,-0.314651,0.499988,-0.316896,0.499147,-0.322751,0.483480,-0.347128,0.469589,-0.372568,
0.372568,-0.469589,0.355826,-0.482121,0.353073,-0.485300,0.350618,-0.486020,0.345883,-0.489566,0.317566,-0.495725,0.289756,-0.503891,-0.289756,-0.503891,-0.310455,-0.500914,-0.314651,-0.501215,-0.316896,-0.499988,-0.322751,-0.499147,-0.347128,-0.483480,-0.372568,-0.469589,-0.469589,-0.372568,-0.482121,-0.355826,-0.485300,-0.353073,-0.486020,-0.350618,-0.489566,-0.345883,-0.495725,-0.317566,
-0.503891,-0.289756,-0.503891,0.289756,-0.500914,0.310454,-0.501215,0.314650,-0.499988,0.316895,-0.499147,0.322751,-0.483479,0.347130,-0.469589,0.372568,-0.372568,0.469589,-0.355828,0.482119,-0.353073,0.485300,-0.350617,0.486021,-0.345883,0.489565,-0.317573,0.495723,-0.289756,0.503891,0.289756,0.503891,0.310454,0.500914,0.310454,0.500914,$1*%
G04 Aperture macros list end*
%ADD10RoundRect,0.060000X0.060000X0.315000X-0.060000X0.315000X-0.060000X-0.315000X0.060000X-0.315000X0*%
%ADD11RoundRect,0.060000X0.315000X-0.060000X0.315000X0.060000X-0.315000X0.060000X-0.315000X-0.060000X0*%
%ADD12RoundRect,0.250000X-0.475000X0.250000X-0.475000X-0.250000X0.475000X-0.250000X0.475000X0.250000X0*%
%ADD13RoundRect,0.250000X-0.450000X0.262500X-0.450000X-0.262500X0.450000X-0.262500X0.450000X0.262500X0*%
%ADD14FreePoly0,270.000000*%
%ADD15RoundRect,0.075000X-0.075000X0.662500X-0.075000X-0.662500X0.075000X-0.662500X0.075000X0.662500X0*%
%ADD16RoundRect,0.075000X-0.662500X0.075000X-0.662500X-0.075000X0.662500X-0.075000X0.662500X0.075000X0*%
%ADD17R,2.800000X2.400000*%
%ADD18RoundRect,0.140000X-0.170000X0.140000X-0.170000X-0.140000X0.170000X-0.140000X0.170000X0.140000X0*%
%ADD19RoundRect,0.150000X0.650000X0.150000X-0.650000X0.150000X-0.650000X-0.150000X0.650000X-0.150000X0*%
%ADD20RoundRect,0.140000X0.140000X0.170000X-0.140000X0.170000X-0.140000X-0.170000X0.140000X-0.170000X0*%
%ADD21RoundRect,0.135000X0.135000X0.185000X-0.135000X0.185000X-0.135000X-0.185000X0.135000X-0.185000X0*%
%ADD22RoundRect,0.225000X0.250000X-0.225000X0.250000X0.225000X-0.250000X0.225000X-0.250000X-0.225000X0*%
%ADD23RoundRect,0.140000X-0.140000X-0.170000X0.140000X-0.170000X0.140000X0.170000X-0.140000X0.170000X0*%
%ADD24RoundRect,0.135000X-0.185000X0.135000X-0.185000X-0.135000X0.185000X-0.135000X0.185000X0.135000X0*%
%ADD25RoundRect,0.247500X-0.402500X-0.247500X0.402500X-0.247500X0.402500X0.247500X-0.402500X0.247500X0*%
%ADD26RoundRect,0.090000X-0.560000X-0.210000X0.560000X-0.210000X0.560000X0.210000X-0.560000X0.210000X0*%
%ADD27RoundRect,0.250000X-0.250000X-0.475000X0.250000X-0.475000X0.250000X0.475000X-0.250000X0.475000X0*%
%ADD28RoundRect,0.250000X0.625000X-0.312500X0.625000X0.312500X-0.625000X0.312500X-0.625000X-0.312500X0*%
%ADD29RoundRect,0.250000X0.475000X-0.250000X0.475000X0.250000X-0.475000X0.250000X-0.475000X-0.250000X0*%
%ADD30RoundRect,0.250000X0.312500X0.625000X-0.312500X0.625000X-0.312500X-0.625000X0.312500X-0.625000X0*%
%ADD31RoundRect,0.225000X0.225000X0.250000X-0.225000X0.250000X-0.225000X-0.250000X0.225000X-0.250000X0*%
%ADD32RoundRect,0.135000X-0.135000X-0.185000X0.135000X-0.185000X0.135000X0.185000X-0.135000X0.185000X0*%
%ADD33R,3.098800X5.207000*%
%ADD34R,0.990600X1.143000*%
%ADD35RoundRect,0.140000X0.170000X-0.140000X0.170000X0.140000X-0.170000X0.140000X-0.170000X-0.140000X0*%
%ADD36RoundRect,0.200000X-0.275000X0.200000X-0.275000X-0.200000X0.275000X-0.200000X0.275000X0.200000X0*%
%ADD37R,2.000000X4.000000*%
%ADD38R,0.500000X0.700000*%
%ADD39RoundRect,0.135000X0.185000X-0.135000X0.185000X0.135000X-0.185000X0.135000X-0.185000X-0.135000X0*%
%ADD40R,4.000000X2.000000*%
%ADD41RoundRect,0.037500X-0.387500X-0.112500X0.387500X-0.112500X0.387500X0.112500X-0.387500X0.112500X0*%
%ADD42R,2.000000X3.200000*%
%ADD43RoundRect,0.250000X-1.100000X0.325000X-1.100000X-0.325000X1.100000X-0.325000X1.100000X0.325000X0*%
%ADD44R,0.800000X0.900000*%
%ADD45R,0.310000X0.600000*%
%ADD46R,0.825000X0.230000*%
%ADD47RoundRect,0.247500X0.402500X0.247500X-0.402500X0.247500X-0.402500X-0.247500X0.402500X-0.247500X0*%
%ADD48RoundRect,0.090000X0.560000X0.210000X-0.560000X0.210000X-0.560000X-0.210000X0.560000X-0.210000X0*%
%ADD49FreePoly0,0.000000*%
%ADD50RoundRect,0.075000X-0.662500X-0.075000X0.662500X-0.075000X0.662500X0.075000X-0.662500X0.075000X0*%
%ADD51RoundRect,0.075000X-0.075000X-0.662500X0.075000X-0.662500X0.075000X0.662500X-0.075000X0.662500X0*%
%ADD52R,3.000000X2.100000*%
%ADD53R,1.600000X0.800000*%
G04 APERTURE END LIST*
G36*
X111585000Y-125600000D02*
G01*
X110400000Y-125600000D01*
X110400000Y-124415000D01*
X111585000Y-124415000D01*
X111585000Y-125600000D01*
G37*
G36*
X113015000Y-125645000D02*
G01*
X111785000Y-125645000D01*
X111785000Y-124415000D01*
X113015000Y-124415000D01*
X113015000Y-125645000D01*
G37*
G36*
X114445000Y-125645000D02*
G01*
X113215000Y-125645000D01*
X113215000Y-124415000D01*
X114445000Y-124415000D01*
X114445000Y-125645000D01*
G37*
G36*
X111585000Y-124215000D02*
G01*
X110355000Y-124215000D01*
X110355000Y-122985000D01*
X111585000Y-122985000D01*
X111585000Y-124215000D01*
G37*
G36*
X113015000Y-124215000D02*
G01*
X111785000Y-124215000D01*
X111785000Y-122985000D01*
X113015000Y-122985000D01*
X113015000Y-124215000D01*
G37*
G36*
X114445000Y-124215000D02*
G01*
X113215000Y-124215000D01*
X113215000Y-122985000D01*
X114445000Y-122985000D01*
X114445000Y-124215000D01*
G37*
G36*
X111585000Y-122785000D02*
G01*
X110355000Y-122785000D01*
X110355000Y-121555000D01*
X111585000Y-121555000D01*
X111585000Y-122785000D01*
G37*
G36*
X113015000Y-122785000D02*
G01*
X111785000Y-122785000D01*
X111785000Y-121555000D01*
X113015000Y-121555000D01*
X113015000Y-122785000D01*
G37*
G36*
X114445000Y-122785000D02*
G01*
X113215000Y-122785000D01*
X113215000Y-121555000D01*
X114445000Y-121555000D01*
X114445000Y-122785000D01*
G37*
G36*
X79549500Y-60700001D02*
G01*
X79549500Y-61699999D01*
X79499500Y-61749999D01*
X79224500Y-61749999D01*
X79174500Y-61699999D01*
X79174500Y-60700001D01*
X79224500Y-60649999D01*
X79499500Y-60649999D01*
X79549500Y-60700001D01*
G37*
G36*
X78675001Y-60700001D02*
G01*
X78675001Y-61699999D01*
X78624999Y-61749999D01*
X78474999Y-61749999D01*
X78424999Y-61699999D01*
X78424999Y-60700001D01*
X78474999Y-60649999D01*
X78624999Y-60649999D01*
X78675001Y-60700001D01*
G37*
G36*
X77224999Y-60700499D02*
G01*
X77224999Y-60975500D01*
X77174999Y-61025500D01*
X77024999Y-61025500D01*
X76975000Y-60975500D01*
X76975000Y-60700499D01*
X77024999Y-60650499D01*
X77174999Y-60650499D01*
X77224999Y-60700499D01*
G37*
G36*
X76725000Y-60700499D02*
G01*
X76725000Y-60975500D01*
X76675000Y-61025500D01*
X76525000Y-61025500D01*
X76475001Y-60975500D01*
X76475001Y-60700499D01*
X76525000Y-60650499D01*
X76675000Y-60650499D01*
X76725000Y-60700499D01*
G37*
G36*
X76225001Y-60700499D02*
G01*
X76225001Y-60975500D01*
X76175001Y-61025500D01*
X76024999Y-61025500D01*
X75974999Y-60975500D01*
X75974999Y-60700499D01*
X76024999Y-60650499D01*
X76175001Y-60650499D01*
X76225001Y-60700499D01*
G37*
G36*
X75725000Y-60700499D02*
G01*
X75725000Y-60975500D01*
X75675000Y-61025500D01*
X75525000Y-61025500D01*
X75475000Y-60975500D01*
X75475000Y-60700499D01*
X75525000Y-60650499D01*
X75675000Y-60650499D01*
X75725000Y-60700499D01*
G37*
G36*
X77422499Y-61270000D02*
G01*
X77422499Y-62100001D01*
X77372499Y-62150001D01*
X76957499Y-62150001D01*
X76907499Y-62100001D01*
X76907499Y-61270000D01*
X76957499Y-61220000D01*
X77372499Y-61220000D01*
X77422499Y-61270000D01*
G37*
G36*
X76709999Y-61270000D02*
G01*
X76709999Y-62100001D01*
X76659999Y-62150001D01*
X76140000Y-62150001D01*
X76090000Y-62100001D01*
X76090000Y-61270000D01*
X76140000Y-61220000D01*
X76659999Y-61220000D01*
X76709999Y-61270000D01*
G37*
G36*
X75887501Y-61270000D02*
G01*
X75887501Y-62100001D01*
X75837501Y-62150001D01*
X75422501Y-62150001D01*
X75372501Y-62100001D01*
X75372501Y-61270000D01*
X75422501Y-61220000D01*
X75837501Y-61220000D01*
X75887501Y-61270000D01*
G37*
G36*
X78175000Y-60700001D02*
G01*
X78175000Y-61699999D01*
X78125000Y-61749999D01*
X77975000Y-61749999D01*
X77925000Y-61699999D01*
X77925000Y-60700001D01*
X77975000Y-60650001D01*
X78125000Y-60650001D01*
X78175000Y-60700001D01*
G37*
G36*
X79850000Y-62025000D02*
G01*
X79850000Y-62175000D01*
X79799998Y-62224999D01*
X79099999Y-62224999D01*
X79049999Y-62175000D01*
X79049999Y-62025000D01*
X79099999Y-61975000D01*
X79799998Y-61975000D01*
X79850000Y-62025000D01*
G37*
G36*
X79849500Y-62500000D02*
G01*
X79849500Y-62700000D01*
X79799500Y-62750000D01*
X78374499Y-62750000D01*
X78324499Y-62700000D01*
X78324499Y-62500000D01*
X78374499Y-62450000D01*
X79799500Y-62450000D01*
X79849500Y-62500000D01*
G37*
G36*
X76709999Y-63099999D02*
G01*
X76709999Y-63930000D01*
X76659999Y-63980000D01*
X76140000Y-63980000D01*
X76090000Y-63930000D01*
X76090000Y-63099999D01*
X76140000Y-63049999D01*
X76659999Y-63049999D01*
X76709999Y-63099999D01*
G37*
G36*
X79849998Y-63025000D02*
G01*
X79849998Y-63175000D01*
X79799998Y-63225000D01*
X79099999Y-63225000D01*
X79049999Y-63175000D01*
X79049999Y-63025000D01*
X79099999Y-62975001D01*
X79799998Y-62975001D01*
X79849998Y-63025000D01*
G37*
G36*
X78675001Y-63500001D02*
G01*
X78675001Y-64499999D01*
X78624999Y-64550001D01*
X78474999Y-64550001D01*
X78424999Y-64499999D01*
X78424999Y-63500001D01*
X78474999Y-63450001D01*
X78624999Y-63450001D01*
X78675001Y-63500001D01*
G37*
G36*
X78175000Y-63500001D02*
G01*
X78175000Y-64499999D01*
X78125000Y-64549999D01*
X77975000Y-64549999D01*
X77925000Y-64499999D01*
X77925000Y-63500001D01*
X77975000Y-63450001D01*
X78125000Y-63450001D01*
X78175000Y-63500001D01*
G37*
G36*
X77422499Y-63099999D02*
G01*
X77422499Y-63930000D01*
X77372499Y-63980000D01*
X76957499Y-63980000D01*
X76907499Y-63930000D01*
X76907499Y-63099999D01*
X76957499Y-63049999D01*
X77372499Y-63049999D01*
X77422499Y-63099999D01*
G37*
G36*
X75887501Y-63099999D02*
G01*
X75887501Y-63930000D01*
X75837501Y-63980000D01*
X75422501Y-63980000D01*
X75372501Y-63930000D01*
X75372501Y-63099999D01*
X75422501Y-63049999D01*
X75837501Y-63049999D01*
X75887501Y-63099999D01*
G37*
G36*
X77224999Y-64224500D02*
G01*
X77224999Y-64499501D01*
X77174999Y-64549501D01*
X77024999Y-64549501D01*
X76975000Y-64499501D01*
X76975000Y-64224500D01*
X77024999Y-64174500D01*
X77174999Y-64174500D01*
X77224999Y-64224500D01*
G37*
G36*
X76725000Y-64224500D02*
G01*
X76725000Y-64499501D01*
X76675000Y-64549501D01*
X76525000Y-64549501D01*
X76475001Y-64499501D01*
X76475001Y-64224500D01*
X76525000Y-64174500D01*
X76675000Y-64174500D01*
X76725000Y-64224500D01*
G37*
G36*
X76225001Y-64224500D02*
G01*
X76225001Y-64499501D01*
X76175001Y-64549501D01*
X76024999Y-64549501D01*
X75974999Y-64499501D01*
X75974999Y-64224500D01*
X76024999Y-64174500D01*
X76175001Y-64174500D01*
X76225001Y-64224500D01*
G37*
G36*
X75725000Y-64224500D02*
G01*
X75725000Y-64499501D01*
X75675000Y-64549501D01*
X75525000Y-64549501D01*
X75475000Y-64499501D01*
X75475000Y-64224500D01*
X75525000Y-64174500D01*
X75675000Y-64174500D01*
X75725000Y-64224500D01*
G37*
G36*
X79549500Y-63500001D02*
G01*
X79549500Y-64499999D01*
X79499500Y-64550001D01*
X79224500Y-64550001D01*
X79174500Y-64499999D01*
X79174500Y-63500001D01*
X79224500Y-63450001D01*
X79499500Y-63450001D01*
X79549500Y-63500001D01*
G37*
G36*
X82200070Y-87500000D02*
G01*
X82035121Y-87500000D01*
X81893700Y-87358579D01*
X81893700Y-86924930D01*
X82200070Y-86924930D01*
X82200070Y-87500000D01*
G37*
G36*
X80906300Y-87358579D02*
G01*
X80764879Y-87500000D01*
X80599930Y-87500000D01*
X80599930Y-86924930D01*
X80906300Y-86924930D01*
X80906300Y-87358579D01*
G37*
G36*
X82200070Y-88275070D02*
G01*
X81893700Y-88275070D01*
X81893700Y-87841421D01*
X82035121Y-87700000D01*
X82200070Y-87700000D01*
X82200070Y-88275070D01*
G37*
G36*
X80906300Y-87841421D02*
G01*
X80906300Y-88275070D01*
X80599930Y-88275070D01*
X80599930Y-87700000D01*
X80764879Y-87700000D01*
X80906300Y-87841421D01*
G37*
G36*
X81693700Y-87358579D02*
G01*
X81552279Y-87500000D01*
X81247721Y-87500000D01*
X81106300Y-87358579D01*
X81106300Y-86924930D01*
X81693700Y-86924930D01*
X81693700Y-87358579D01*
G37*
G36*
X81693700Y-87841421D02*
G01*
X81693700Y-88275070D01*
X81106300Y-88275070D01*
X81106300Y-87841421D01*
X81247721Y-87700000D01*
X81552279Y-87700000D01*
X81693700Y-87841421D01*
G37*
D10*
X110400000Y-126425000D03*
X110900000Y-126425000D03*
X111400000Y-126425000D03*
X111900000Y-126425000D03*
X112400000Y-126425000D03*
X112900000Y-126425000D03*
X113400000Y-126425000D03*
X113900000Y-126425000D03*
X114400000Y-126425000D03*
D11*
X115225000Y-125600000D03*
X115225000Y-125100000D03*
X115225000Y-124600000D03*
X115225000Y-124100000D03*
X115225000Y-123600000D03*
X115225000Y-123100000D03*
X115225000Y-122600000D03*
X115225000Y-122100000D03*
X115225000Y-121600000D03*
D10*
X114400000Y-120775000D03*
X113900000Y-120775000D03*
X113400000Y-120775000D03*
X112900000Y-120775000D03*
X112400000Y-120775000D03*
X111900000Y-120775000D03*
X111400000Y-120775000D03*
X110900000Y-120775000D03*
X110400000Y-120775000D03*
D11*
X109575000Y-121600000D03*
X109575000Y-122100000D03*
X109575000Y-122600000D03*
X109575000Y-123100000D03*
X109575000Y-123600000D03*
X109575000Y-124100000D03*
X109575000Y-124600000D03*
X109575000Y-125100000D03*
X109575000Y-125600000D03*
D12*
X103400000Y-145900000D03*
X103400000Y-147800000D03*
D13*
X102900000Y-45187500D03*
X102900000Y-47012500D03*
D14*
X104087500Y-137912500D03*
X102962500Y-137912500D03*
X101837500Y-137912500D03*
X100712500Y-137912500D03*
X104087500Y-139037500D03*
X102962500Y-139037500D03*
X101837500Y-139037500D03*
X100712500Y-139037500D03*
X104087500Y-140162500D03*
X102962500Y-140162500D03*
X101837500Y-140162500D03*
X100712500Y-140162500D03*
X104087500Y-141287500D03*
X102962500Y-141287500D03*
X101837500Y-141287500D03*
X100712500Y-141287500D03*
D15*
X105150000Y-135437500D03*
X104650000Y-135437500D03*
X104150000Y-135437500D03*
X103650000Y-135437500D03*
X103150000Y-135437500D03*
X102650000Y-135437500D03*
X102150000Y-135437500D03*
X101650000Y-135437500D03*
X101150000Y-135437500D03*
X100650000Y-135437500D03*
X100150000Y-135437500D03*
X99650000Y-135437500D03*
D16*
X98237500Y-136850000D03*
X98237500Y-137350000D03*
X98237500Y-137850000D03*
X98237500Y-138350000D03*
X98237500Y-138850000D03*
X98237500Y-139350000D03*
X98237500Y-139850000D03*
X98237500Y-140350000D03*
X98237500Y-140850000D03*
X98237500Y-141350000D03*
X98237500Y-141850000D03*
X98237500Y-142350000D03*
D15*
X99650000Y-143762500D03*
X100150000Y-143762500D03*
X100650000Y-143762500D03*
X101150000Y-143762500D03*
X101650000Y-143762500D03*
X102150000Y-143762500D03*
X102650000Y-143762500D03*
X103150000Y-143762500D03*
X103650000Y-143762500D03*
X104150000Y-143762500D03*
X104650000Y-143762500D03*
X105150000Y-143762500D03*
D16*
X106562500Y-142350000D03*
X106562500Y-141850000D03*
X106562500Y-141350000D03*
X106562500Y-140850000D03*
X106562500Y-140350000D03*
X106562500Y-139850000D03*
X106562500Y-139350000D03*
X106562500Y-138850000D03*
X106562500Y-138350000D03*
X106562500Y-137850000D03*
X106562500Y-137350000D03*
X106562500Y-136850000D03*
D17*
X116900000Y-46550000D03*
X116900000Y-52650000D03*
X105900000Y-46550000D03*
X105900000Y-52650000D03*
D18*
X112400000Y-128120000D03*
X112400000Y-129080000D03*
D19*
X117550000Y-106300000D03*
X117550000Y-105350000D03*
X117550000Y-104400000D03*
X115250000Y-104400000D03*
X115250000Y-105350000D03*
X115250000Y-106300000D03*
D18*
X109400000Y-141120000D03*
X109400000Y-142080000D03*
D20*
X104130000Y-68350000D03*
X103170000Y-68350000D03*
D21*
X106160000Y-146850000D03*
X105140000Y-146850000D03*
D18*
X108400000Y-141120000D03*
X108400000Y-142080000D03*
X117650000Y-71870000D03*
X117650000Y-72830000D03*
D22*
X107900000Y-145375000D03*
X107900000Y-143825000D03*
D23*
X116420000Y-60100000D03*
X117380000Y-60100000D03*
D24*
X103900000Y-55090000D03*
X103900000Y-56110000D03*
D25*
X121375000Y-147835000D03*
D26*
X121375000Y-149560000D03*
X123425000Y-149560000D03*
X123425000Y-147640000D03*
D27*
X115700000Y-74600000D03*
X117600000Y-74600000D03*
X110450000Y-67100000D03*
X112350000Y-67100000D03*
D28*
X94650000Y-139062500D03*
X94650000Y-136137500D03*
D29*
X119900000Y-82550000D03*
X119900000Y-80650000D03*
D20*
X83880000Y-83600000D03*
X82920000Y-83600000D03*
D18*
X95400000Y-141120000D03*
X95400000Y-142080000D03*
D30*
X108862500Y-83100000D03*
X105937500Y-83100000D03*
D31*
X115175000Y-70100000D03*
X113625000Y-70100000D03*
D20*
X106130000Y-147850000D03*
X105170000Y-147850000D03*
D32*
X115390000Y-84350000D03*
X116410000Y-84350000D03*
D33*
X121400000Y-45545900D03*
D34*
X120479999Y-49533700D03*
X122320001Y-49533700D03*
D35*
X80900000Y-64580000D03*
X80900000Y-63620000D03*
D27*
X110450000Y-84100000D03*
X112350000Y-84100000D03*
D36*
X79400000Y-82775000D03*
X79400000Y-84425000D03*
D18*
X82400000Y-80120000D03*
X82400000Y-81080000D03*
D37*
X108400000Y-101050000D03*
X108400000Y-108150000D03*
D38*
X102900000Y-50050000D03*
X102900000Y-49150000D03*
D37*
X116400000Y-138050000D03*
X116400000Y-145150000D03*
D23*
X110920000Y-69600000D03*
X111880000Y-69600000D03*
D18*
X105150000Y-79870000D03*
X105150000Y-80830000D03*
X116150000Y-89370000D03*
X116150000Y-90330000D03*
D39*
X113400000Y-105860000D03*
X113400000Y-104840000D03*
D37*
X88400000Y-138050000D03*
X88400000Y-145150000D03*
D24*
X102650000Y-55090000D03*
X102650000Y-56110000D03*
D40*
X112200000Y-61600000D03*
X105100000Y-61600000D03*
D41*
X115350000Y-85850000D03*
X115350000Y-86350000D03*
X115350000Y-86850000D03*
X115350000Y-87350000D03*
X118450000Y-87350000D03*
X118450000Y-86850000D03*
X118450000Y-86350000D03*
X118450000Y-85850000D03*
D24*
X116650000Y-71840000D03*
X116650000Y-72860000D03*
D20*
X122880000Y-145600000D03*
X121920000Y-145600000D03*
D42*
X75700000Y-102950000D03*
X87100000Y-102950000D03*
X87100000Y-94250000D03*
X75700000Y-94250000D03*
D43*
X79400000Y-54125000D03*
X79400000Y-57075000D03*
D12*
X110900000Y-140650000D03*
X110900000Y-142550000D03*
D40*
X112200000Y-89600000D03*
X105100000Y-89600000D03*
D18*
X80400000Y-80120000D03*
X80400000Y-81080000D03*
D44*
X108375000Y-134025000D03*
X108375000Y-132175000D03*
X106925000Y-132175000D03*
X106925000Y-134025000D03*
D23*
X76920000Y-65600000D03*
X77880000Y-65600000D03*
D28*
X109900000Y-139062500D03*
X109900000Y-136137500D03*
D18*
X76400000Y-55120000D03*
X76400000Y-56080000D03*
X111400000Y-128120000D03*
X111400000Y-129080000D03*
D23*
X117420000Y-84350000D03*
X118380000Y-84350000D03*
D44*
X102675000Y-69675000D03*
X102675000Y-71525000D03*
X104125000Y-71525000D03*
X104125000Y-69675000D03*
D30*
X108862500Y-68100000D03*
X105937500Y-68100000D03*
D39*
X100150000Y-132110000D03*
X100150000Y-131090000D03*
D18*
X117650000Y-89370000D03*
X117650000Y-90330000D03*
D12*
X93900000Y-140650000D03*
X93900000Y-142550000D03*
D23*
X80920000Y-90600000D03*
X81880000Y-90600000D03*
X110920000Y-82600000D03*
X111880000Y-82600000D03*
X107170000Y-135600000D03*
X108130000Y-135600000D03*
D45*
X82375000Y-86200000D03*
X81725000Y-86200000D03*
X81075000Y-86200000D03*
X80425000Y-86200000D03*
X80425000Y-89000000D03*
X81075000Y-89000000D03*
X81725000Y-89000000D03*
X82375000Y-89000000D03*
D46*
X82687500Y-87275000D03*
X80112500Y-87275000D03*
X82687500Y-87925000D03*
X80112500Y-87925000D03*
D27*
X76450000Y-67350000D03*
X78350000Y-67350000D03*
D47*
X117925000Y-58365000D03*
D48*
X117925000Y-56640000D03*
X115875000Y-56640000D03*
X115875000Y-58560000D03*
D20*
X98130000Y-135350000D03*
X97170000Y-135350000D03*
D36*
X81400000Y-82775000D03*
X81400000Y-84425000D03*
D18*
X114400000Y-128120000D03*
X114400000Y-129080000D03*
D23*
X110920000Y-68600000D03*
X111880000Y-68600000D03*
D21*
X104160000Y-67350000D03*
X103140000Y-67350000D03*
D23*
X116920000Y-122600000D03*
X117880000Y-122600000D03*
D49*
X107712500Y-73912500D03*
X107712500Y-75037500D03*
X107712500Y-76162500D03*
X107712500Y-77287500D03*
X108837500Y-73912500D03*
X108837500Y-75037500D03*
X108837500Y-76162500D03*
X108837500Y-77287500D03*
X109962500Y-73912500D03*
X109962500Y-75037500D03*
X109962500Y-76162500D03*
X109962500Y-77287500D03*
X111087500Y-73912500D03*
X111087500Y-75037500D03*
X111087500Y-76162500D03*
X111087500Y-77287500D03*
D50*
X105237500Y-72850000D03*
X105237500Y-73350000D03*
X105237500Y-73850000D03*
X105237500Y-74350000D03*
X105237500Y-74850000D03*
X105237500Y-75350000D03*
X105237500Y-75850000D03*
X105237500Y-76350000D03*
X105237500Y-76850000D03*
X105237500Y-77350000D03*
X105237500Y-77850000D03*
X105237500Y-78350000D03*
D51*
X106650000Y-79762500D03*
X107150000Y-79762500D03*
X107650000Y-79762500D03*
X108150000Y-79762500D03*
X108650000Y-79762500D03*
X109150000Y-79762500D03*
X109650000Y-79762500D03*
X110150000Y-79762500D03*
X110650000Y-79762500D03*
X111150000Y-79762500D03*
X111650000Y-79762500D03*
X112150000Y-79762500D03*
D50*
X113562500Y-78350000D03*
X113562500Y-77850000D03*
X113562500Y-77350000D03*
X113562500Y-76850000D03*
X113562500Y-76350000D03*
X113562500Y-75850000D03*
X113562500Y-75350000D03*
X113562500Y-74850000D03*
X113562500Y-74350000D03*
X113562500Y-73850000D03*
X113562500Y-73350000D03*
X113562500Y-72850000D03*
D51*
X112150000Y-71437500D03*
X111650000Y-71437500D03*
X111150000Y-71437500D03*
X110650000Y-71437500D03*
X110150000Y-71437500D03*
X109650000Y-71437500D03*
X109150000Y-71437500D03*
X108650000Y-71437500D03*
X108150000Y-71437500D03*
X107650000Y-71437500D03*
X107150000Y-71437500D03*
X106650000Y-71437500D03*
D52*
X129500000Y-90650000D03*
X129500000Y-80550000D03*
D53*
X126600000Y-88100000D03*
X126600000Y-86850000D03*
X126600000Y-85600000D03*
X126600000Y-84350000D03*
X126600000Y-83100000D03*
M02*
