M48
; DRILL file {KiCad 7.0.11} date Thu 24 Oct 2024 01:35:04 PM EDT
; FORMAT={-:-/ absolute / metric / decimal}
; #@! TF.CreationDate,2024-10-24T13:35:04-04:00
; #@! TF.GenerationSoftware,Kicad,Pcbnew,7.0.11
; #@! TF.FileFunction,Plated,1,4,PTH
FMAT,2
METRIC
; #@! TA.AperFunction,Plated,PTH,ComponentDrill
T1C0.200
; #@! TA.AperFunction,Plated,PTH,ViaDrill
T2C0.250
; #@! TA.AperFunction,Plated,PTH,ComponentDrill
T3C0.250
; #@! TA.AperFunction,Plated,PTH,ComponentDrill
T4C1.016
; #@! TA.AperFunction,Plated,PTH,ComponentDrill
T5C1.200
; #@! TA.AperFunction,Plated,PTH,ComponentDrill
T6C1.500
; #@! TA.AperFunction,Plated,PTH,ComponentDrill
T7C1.700
; #@! TA.AperFunction,Plated,PTH,ComponentDrill
T8C3.200
%
G90
G05
T1
X81.006Y-87.6
X81.794Y-87.6
T2
X76.4Y-68.97
X78.4Y-68.97
X80.9Y-62.6
X80.9Y-91.6
X83.4Y-86.35
X96.65Y-137.85
X96.65Y-139.85
X100.15Y-130.1
X100.15Y-133.35
X100.65Y-145.35
X101.15Y-133.85
X101.9Y-132.6
X102.9Y-132.6
X103.433Y-77.383
X103.9Y-132.6
X104.15Y-66.1
X104.15Y-79.85
X105.15Y-55.1
X107.15Y-146.85
X107.65Y-69.85
X107.65Y-81.35
X108.15Y-46.6
X108.15Y-137.85
X108.15Y-139.85
X108.4Y-124.1
X108.4Y-125.6
X109.4Y-134.6
X109.65Y-69.85
X109.65Y-81.35
X112.4Y-130.1
X113.65Y-71.85
X114.15Y-58.6
X114.4Y-130.1
X115.15Y-77.85
X115.15Y-89.35
X115.25Y-103.5
X115.9Y-57.6
X117.9Y-107.6
X118.65Y-71.85
X118.65Y-90.35
X118.9Y-122.6
X121.4Y-82.6
X122.9Y-144.6
X124.9Y-149.6
X127.9Y-88.1
T3
X100.4Y-137.6
X100.4Y-138.6
X100.4Y-139.6
X100.4Y-140.6
X100.4Y-141.6
X101.4Y-137.6
X101.4Y-138.6
X101.4Y-139.6
X101.4Y-140.6
X101.4Y-141.6
X102.4Y-137.6
X102.4Y-138.6
X102.4Y-139.6
X102.4Y-140.6
X102.4Y-141.6
X103.4Y-137.6
X103.4Y-138.6
X103.4Y-139.6
X103.4Y-140.6
X103.4Y-141.6
X104.4Y-137.6
X104.4Y-138.6
X104.4Y-139.6
X104.4Y-140.6
X104.4Y-141.6
X107.4Y-73.6
X107.4Y-74.6
X107.4Y-75.6
X107.4Y-76.6
X107.4Y-77.6
X108.4Y-73.6
X108.4Y-74.6
X108.4Y-75.6
X108.4Y-76.6
X108.4Y-77.6
X109.4Y-73.6
X109.4Y-74.6
X109.4Y-75.6
X109.4Y-76.6
X109.4Y-77.6
X110.4Y-73.6
X110.4Y-74.6
X110.4Y-75.6
X110.4Y-76.6
X110.4Y-77.6
X110.9Y-123.1
X110.9Y-124.1
X111.4Y-73.6
X111.4Y-74.6
X111.4Y-75.6
X111.4Y-76.6
X111.4Y-77.6
X111.9Y-121.85
X111.9Y-123.1
X111.9Y-124.1
X111.9Y-125.1
X112.9Y-121.85
X112.9Y-123.1
X112.9Y-124.1
X112.9Y-125.1
X113.9Y-123.1
X113.9Y-124.1
T4
X84.78Y-43.09
X84.78Y-45.63
X84.78Y-48.17
X84.78Y-50.71
X84.78Y-53.25
X84.78Y-55.79
X84.78Y-58.33
X84.78Y-60.87
X84.78Y-63.41
X84.78Y-65.95
X84.78Y-68.49
X84.78Y-71.03
X84.78Y-73.57
X84.78Y-76.11
X100.02Y-43.09
X100.02Y-45.63
X100.02Y-48.17
X100.02Y-50.71
X100.02Y-53.25
X100.02Y-55.79
X100.02Y-58.33
X100.02Y-60.87
X100.02Y-63.41
X100.02Y-65.95
X100.02Y-68.49
X100.02Y-71.03
X100.02Y-73.57
X100.02Y-76.11
T5
X97.15Y-153.6
X100.65Y-153.6
X104.15Y-153.6
X107.65Y-153.6
X113.65Y-153.6
X117.15Y-153.6
X124.4Y-55.85
X124.4Y-59.35
X124.4Y-65.35
X124.4Y-68.85
X124.4Y-72.35
X124.4Y-75.85
X124.4Y-101.85
X124.4Y-105.35
X124.4Y-118.35
X124.4Y-121.85
X124.4Y-125.35
X124.4Y-128.85
T6
X111.4Y-46.55
T7
X111.4Y-51.05
T8
X77.4Y-46.6
X77.4Y-156.6
X127.4Y-46.6
X127.4Y-156.6
M30
