G04 #@! TF.GenerationSoftware,KiCad,Pcbnew,7.0.11*
G04 #@! TF.CreationDate,2024-10-24T10:14:13-04:00*
G04 #@! TF.ProjectId,mouse-joystick-pcb,6d6f7573-652d-46a6-9f79-737469636b2d,1.0*
G04 #@! TF.SameCoordinates,Original*
G04 #@! TF.FileFunction,OtherDrawing,Comment*
%FSLAX46Y46*%
G04 Gerber Fmt 4.6, Leading zero omitted, Abs format (unit mm)*
G04 Created by KiCad (PCBNEW 7.0.11) date 2024-10-24 10:14:13*
%MOMM*%
%LPD*%
G01*
G04 APERTURE LIST*
%ADD10C,0.400000*%
%ADD11C,0.500000*%
G04 APERTURE END LIST*
D10*
X82400000Y-21600000D02*
X102400000Y-21600000D01*
X102400000Y-96600000D01*
X82400000Y-96600000D01*
X82400000Y-21600000D01*
X132400000Y-26600000D02*
X132400000Y-176600000D01*
X77400000Y-21600000D02*
G75*
G03*
X72400000Y-26600000I0J-5000000D01*
G01*
X77400000Y-21600000D02*
X127400000Y-21600000D01*
X94900000Y-101600000D02*
X109900000Y-101600000D01*
X72400000Y-176600000D02*
X72400000Y-26600000D01*
X127400000Y-181600000D02*
G75*
G03*
X132400000Y-176600000I0J5000000D01*
G01*
X102400000Y-109100000D02*
X102400000Y-94100000D01*
X92400000Y-94100000D02*
X92400000Y-24100000D01*
X132400000Y-26600000D02*
G75*
G03*
X127400000Y-21600000I-5000000J0D01*
G01*
X127400000Y-181600000D02*
X77400000Y-181600000D01*
X72400000Y-176600000D02*
G75*
G03*
X77400000Y-181600000I5000000J0D01*
G01*
D11*
X81876190Y-170499238D02*
X83114285Y-170499238D01*
X83114285Y-170499238D02*
X82447618Y-171261142D01*
X82447618Y-171261142D02*
X82733333Y-171261142D01*
X82733333Y-171261142D02*
X82923809Y-171356380D01*
X82923809Y-171356380D02*
X83019047Y-171451619D01*
X83019047Y-171451619D02*
X83114285Y-171642095D01*
X83114285Y-171642095D02*
X83114285Y-172118285D01*
X83114285Y-172118285D02*
X83019047Y-172308761D01*
X83019047Y-172308761D02*
X82923809Y-172404000D01*
X82923809Y-172404000D02*
X82733333Y-172499238D01*
X82733333Y-172499238D02*
X82161904Y-172499238D01*
X82161904Y-172499238D02*
X81971428Y-172404000D01*
X81971428Y-172404000D02*
X81876190Y-172308761D01*
X83971428Y-172308761D02*
X84066666Y-172404000D01*
X84066666Y-172404000D02*
X83971428Y-172499238D01*
X83971428Y-172499238D02*
X83876190Y-172404000D01*
X83876190Y-172404000D02*
X83971428Y-172308761D01*
X83971428Y-172308761D02*
X83971428Y-172499238D01*
X84828571Y-170689714D02*
X84923809Y-170594476D01*
X84923809Y-170594476D02*
X85114285Y-170499238D01*
X85114285Y-170499238D02*
X85590476Y-170499238D01*
X85590476Y-170499238D02*
X85780952Y-170594476D01*
X85780952Y-170594476D02*
X85876190Y-170689714D01*
X85876190Y-170689714D02*
X85971428Y-170880190D01*
X85971428Y-170880190D02*
X85971428Y-171070666D01*
X85971428Y-171070666D02*
X85876190Y-171356380D01*
X85876190Y-171356380D02*
X84733333Y-172499238D01*
X84733333Y-172499238D02*
X85971428Y-172499238D01*
X88352381Y-172499238D02*
X88352381Y-171165904D01*
X88352381Y-171356380D02*
X88447619Y-171261142D01*
X88447619Y-171261142D02*
X88638095Y-171165904D01*
X88638095Y-171165904D02*
X88923810Y-171165904D01*
X88923810Y-171165904D02*
X89114286Y-171261142D01*
X89114286Y-171261142D02*
X89209524Y-171451619D01*
X89209524Y-171451619D02*
X89209524Y-172499238D01*
X89209524Y-171451619D02*
X89304762Y-171261142D01*
X89304762Y-171261142D02*
X89495238Y-171165904D01*
X89495238Y-171165904D02*
X89780952Y-171165904D01*
X89780952Y-171165904D02*
X89971429Y-171261142D01*
X89971429Y-171261142D02*
X90066667Y-171451619D01*
X90066667Y-171451619D02*
X90066667Y-172499238D01*
X91019048Y-172499238D02*
X91019048Y-171165904D01*
X91019048Y-171356380D02*
X91114286Y-171261142D01*
X91114286Y-171261142D02*
X91304762Y-171165904D01*
X91304762Y-171165904D02*
X91590477Y-171165904D01*
X91590477Y-171165904D02*
X91780953Y-171261142D01*
X91780953Y-171261142D02*
X91876191Y-171451619D01*
X91876191Y-171451619D02*
X91876191Y-172499238D01*
X91876191Y-171451619D02*
X91971429Y-171261142D01*
X91971429Y-171261142D02*
X92161905Y-171165904D01*
X92161905Y-171165904D02*
X92447619Y-171165904D01*
X92447619Y-171165904D02*
X92638096Y-171261142D01*
X92638096Y-171261142D02*
X92733334Y-171451619D01*
X92733334Y-171451619D02*
X92733334Y-172499238D01*
D10*
X75800000Y-176100000D02*
X75800000Y-171013580D01*
X79000000Y-171013580D02*
X79000000Y-176100000D01*
X75800000Y-171600000D02*
X79000000Y-171600000D01*
X75800000Y-171600000D02*
X79000000Y-171600000D01*
X75800000Y-171600000D02*
X76926504Y-171013579D01*
X75800000Y-171600000D02*
X76926504Y-172186421D01*
X79000000Y-171600000D02*
X77873496Y-172186421D01*
X79000000Y-171600000D02*
X77873496Y-171013579D01*
D11*
X93590475Y-119999238D02*
X92447618Y-119999238D01*
X93019046Y-119999238D02*
X93019046Y-117999238D01*
X93019046Y-117999238D02*
X92828570Y-118284952D01*
X92828570Y-118284952D02*
X92638094Y-118475428D01*
X92638094Y-118475428D02*
X92447618Y-118570666D01*
X94828570Y-117999238D02*
X95019047Y-117999238D01*
X95019047Y-117999238D02*
X95209523Y-118094476D01*
X95209523Y-118094476D02*
X95304761Y-118189714D01*
X95304761Y-118189714D02*
X95399999Y-118380190D01*
X95399999Y-118380190D02*
X95495237Y-118761142D01*
X95495237Y-118761142D02*
X95495237Y-119237333D01*
X95495237Y-119237333D02*
X95399999Y-119618285D01*
X95399999Y-119618285D02*
X95304761Y-119808761D01*
X95304761Y-119808761D02*
X95209523Y-119904000D01*
X95209523Y-119904000D02*
X95019047Y-119999238D01*
X95019047Y-119999238D02*
X94828570Y-119999238D01*
X94828570Y-119999238D02*
X94638094Y-119904000D01*
X94638094Y-119904000D02*
X94542856Y-119808761D01*
X94542856Y-119808761D02*
X94447618Y-119618285D01*
X94447618Y-119618285D02*
X94352380Y-119237333D01*
X94352380Y-119237333D02*
X94352380Y-118761142D01*
X94352380Y-118761142D02*
X94447618Y-118380190D01*
X94447618Y-118380190D02*
X94542856Y-118189714D01*
X94542856Y-118189714D02*
X94638094Y-118094476D01*
X94638094Y-118094476D02*
X94828570Y-117999238D01*
X97876190Y-119999238D02*
X97876190Y-118665904D01*
X97876190Y-118856380D02*
X97971428Y-118761142D01*
X97971428Y-118761142D02*
X98161904Y-118665904D01*
X98161904Y-118665904D02*
X98447619Y-118665904D01*
X98447619Y-118665904D02*
X98638095Y-118761142D01*
X98638095Y-118761142D02*
X98733333Y-118951619D01*
X98733333Y-118951619D02*
X98733333Y-119999238D01*
X98733333Y-118951619D02*
X98828571Y-118761142D01*
X98828571Y-118761142D02*
X99019047Y-118665904D01*
X99019047Y-118665904D02*
X99304761Y-118665904D01*
X99304761Y-118665904D02*
X99495238Y-118761142D01*
X99495238Y-118761142D02*
X99590476Y-118951619D01*
X99590476Y-118951619D02*
X99590476Y-119999238D01*
X100542857Y-119999238D02*
X100542857Y-118665904D01*
X100542857Y-118856380D02*
X100638095Y-118761142D01*
X100638095Y-118761142D02*
X100828571Y-118665904D01*
X100828571Y-118665904D02*
X101114286Y-118665904D01*
X101114286Y-118665904D02*
X101304762Y-118761142D01*
X101304762Y-118761142D02*
X101400000Y-118951619D01*
X101400000Y-118951619D02*
X101400000Y-119999238D01*
X101400000Y-118951619D02*
X101495238Y-118761142D01*
X101495238Y-118761142D02*
X101685714Y-118665904D01*
X101685714Y-118665904D02*
X101971428Y-118665904D01*
X101971428Y-118665904D02*
X102161905Y-118761142D01*
X102161905Y-118761142D02*
X102257143Y-118951619D01*
X102257143Y-118951619D02*
X102257143Y-119999238D01*
D10*
X92400000Y-102100000D02*
X92400000Y-117186420D01*
X102400000Y-117186420D02*
X102400000Y-102100000D01*
X92400000Y-116600000D02*
X93526504Y-116013579D01*
X92400000Y-116600000D02*
X93526504Y-117186421D01*
X102400000Y-116600000D02*
X101273496Y-117186421D01*
X102400000Y-116600000D02*
X101273496Y-116013579D01*
D11*
X98399999Y-182999238D02*
X98019046Y-182999238D01*
X98019046Y-182999238D02*
X97828570Y-183094476D01*
X97828570Y-183094476D02*
X97733332Y-183189714D01*
X97733332Y-183189714D02*
X97542856Y-183475428D01*
X97542856Y-183475428D02*
X97447618Y-183856380D01*
X97447618Y-183856380D02*
X97447618Y-184618285D01*
X97447618Y-184618285D02*
X97542856Y-184808761D01*
X97542856Y-184808761D02*
X97638094Y-184904000D01*
X97638094Y-184904000D02*
X97828570Y-184999238D01*
X97828570Y-184999238D02*
X98209523Y-184999238D01*
X98209523Y-184999238D02*
X98399999Y-184904000D01*
X98399999Y-184904000D02*
X98495237Y-184808761D01*
X98495237Y-184808761D02*
X98590475Y-184618285D01*
X98590475Y-184618285D02*
X98590475Y-184142095D01*
X98590475Y-184142095D02*
X98495237Y-183951619D01*
X98495237Y-183951619D02*
X98399999Y-183856380D01*
X98399999Y-183856380D02*
X98209523Y-183761142D01*
X98209523Y-183761142D02*
X97828570Y-183761142D01*
X97828570Y-183761142D02*
X97638094Y-183856380D01*
X97638094Y-183856380D02*
X97542856Y-183951619D01*
X97542856Y-183951619D02*
X97447618Y-184142095D01*
X99828570Y-182999238D02*
X100019047Y-182999238D01*
X100019047Y-182999238D02*
X100209523Y-183094476D01*
X100209523Y-183094476D02*
X100304761Y-183189714D01*
X100304761Y-183189714D02*
X100399999Y-183380190D01*
X100399999Y-183380190D02*
X100495237Y-183761142D01*
X100495237Y-183761142D02*
X100495237Y-184237333D01*
X100495237Y-184237333D02*
X100399999Y-184618285D01*
X100399999Y-184618285D02*
X100304761Y-184808761D01*
X100304761Y-184808761D02*
X100209523Y-184904000D01*
X100209523Y-184904000D02*
X100019047Y-184999238D01*
X100019047Y-184999238D02*
X99828570Y-184999238D01*
X99828570Y-184999238D02*
X99638094Y-184904000D01*
X99638094Y-184904000D02*
X99542856Y-184808761D01*
X99542856Y-184808761D02*
X99447618Y-184618285D01*
X99447618Y-184618285D02*
X99352380Y-184237333D01*
X99352380Y-184237333D02*
X99352380Y-183761142D01*
X99352380Y-183761142D02*
X99447618Y-183380190D01*
X99447618Y-183380190D02*
X99542856Y-183189714D01*
X99542856Y-183189714D02*
X99638094Y-183094476D01*
X99638094Y-183094476D02*
X99828570Y-182999238D01*
X102876190Y-184999238D02*
X102876190Y-183665904D01*
X102876190Y-183856380D02*
X102971428Y-183761142D01*
X102971428Y-183761142D02*
X103161904Y-183665904D01*
X103161904Y-183665904D02*
X103447619Y-183665904D01*
X103447619Y-183665904D02*
X103638095Y-183761142D01*
X103638095Y-183761142D02*
X103733333Y-183951619D01*
X103733333Y-183951619D02*
X103733333Y-184999238D01*
X103733333Y-183951619D02*
X103828571Y-183761142D01*
X103828571Y-183761142D02*
X104019047Y-183665904D01*
X104019047Y-183665904D02*
X104304761Y-183665904D01*
X104304761Y-183665904D02*
X104495238Y-183761142D01*
X104495238Y-183761142D02*
X104590476Y-183951619D01*
X104590476Y-183951619D02*
X104590476Y-184999238D01*
X105542857Y-184999238D02*
X105542857Y-183665904D01*
X105542857Y-183856380D02*
X105638095Y-183761142D01*
X105638095Y-183761142D02*
X105828571Y-183665904D01*
X105828571Y-183665904D02*
X106114286Y-183665904D01*
X106114286Y-183665904D02*
X106304762Y-183761142D01*
X106304762Y-183761142D02*
X106400000Y-183951619D01*
X106400000Y-183951619D02*
X106400000Y-184999238D01*
X106400000Y-183951619D02*
X106495238Y-183761142D01*
X106495238Y-183761142D02*
X106685714Y-183665904D01*
X106685714Y-183665904D02*
X106971428Y-183665904D01*
X106971428Y-183665904D02*
X107161905Y-183761142D01*
X107161905Y-183761142D02*
X107257143Y-183951619D01*
X107257143Y-183951619D02*
X107257143Y-184999238D01*
D10*
X132400000Y-177100000D02*
X132400000Y-184686420D01*
X72400000Y-184686420D02*
X72400000Y-177600000D01*
X132400000Y-184100000D02*
X109283334Y-184100000D01*
X95516666Y-184100000D02*
X72400000Y-184100000D01*
X132400000Y-184100000D02*
X131273496Y-184686421D01*
X132400000Y-184100000D02*
X131273496Y-183513579D01*
X72400000Y-184100000D02*
X73526504Y-183513579D01*
X72400000Y-184100000D02*
X73526504Y-184686421D01*
D11*
X70799238Y-106361905D02*
X70799238Y-107504762D01*
X70799238Y-106933334D02*
X68799238Y-106933334D01*
X68799238Y-106933334D02*
X69084952Y-107123810D01*
X69084952Y-107123810D02*
X69275428Y-107314286D01*
X69275428Y-107314286D02*
X69370666Y-107504762D01*
X68799238Y-104647619D02*
X68799238Y-105028572D01*
X68799238Y-105028572D02*
X68894476Y-105219048D01*
X68894476Y-105219048D02*
X68989714Y-105314286D01*
X68989714Y-105314286D02*
X69275428Y-105504762D01*
X69275428Y-105504762D02*
X69656380Y-105600000D01*
X69656380Y-105600000D02*
X70418285Y-105600000D01*
X70418285Y-105600000D02*
X70608761Y-105504762D01*
X70608761Y-105504762D02*
X70704000Y-105409524D01*
X70704000Y-105409524D02*
X70799238Y-105219048D01*
X70799238Y-105219048D02*
X70799238Y-104838095D01*
X70799238Y-104838095D02*
X70704000Y-104647619D01*
X70704000Y-104647619D02*
X70608761Y-104552381D01*
X70608761Y-104552381D02*
X70418285Y-104457143D01*
X70418285Y-104457143D02*
X69942095Y-104457143D01*
X69942095Y-104457143D02*
X69751619Y-104552381D01*
X69751619Y-104552381D02*
X69656380Y-104647619D01*
X69656380Y-104647619D02*
X69561142Y-104838095D01*
X69561142Y-104838095D02*
X69561142Y-105219048D01*
X69561142Y-105219048D02*
X69656380Y-105409524D01*
X69656380Y-105409524D02*
X69751619Y-105504762D01*
X69751619Y-105504762D02*
X69942095Y-105600000D01*
X68799238Y-103219048D02*
X68799238Y-103028571D01*
X68799238Y-103028571D02*
X68894476Y-102838095D01*
X68894476Y-102838095D02*
X68989714Y-102742857D01*
X68989714Y-102742857D02*
X69180190Y-102647619D01*
X69180190Y-102647619D02*
X69561142Y-102552381D01*
X69561142Y-102552381D02*
X70037333Y-102552381D01*
X70037333Y-102552381D02*
X70418285Y-102647619D01*
X70418285Y-102647619D02*
X70608761Y-102742857D01*
X70608761Y-102742857D02*
X70704000Y-102838095D01*
X70704000Y-102838095D02*
X70799238Y-103028571D01*
X70799238Y-103028571D02*
X70799238Y-103219048D01*
X70799238Y-103219048D02*
X70704000Y-103409524D01*
X70704000Y-103409524D02*
X70608761Y-103504762D01*
X70608761Y-103504762D02*
X70418285Y-103600000D01*
X70418285Y-103600000D02*
X70037333Y-103695238D01*
X70037333Y-103695238D02*
X69561142Y-103695238D01*
X69561142Y-103695238D02*
X69180190Y-103600000D01*
X69180190Y-103600000D02*
X68989714Y-103504762D01*
X68989714Y-103504762D02*
X68894476Y-103409524D01*
X68894476Y-103409524D02*
X68799238Y-103219048D01*
X70799238Y-100171428D02*
X69465904Y-100171428D01*
X69656380Y-100171428D02*
X69561142Y-100076190D01*
X69561142Y-100076190D02*
X69465904Y-99885714D01*
X69465904Y-99885714D02*
X69465904Y-99599999D01*
X69465904Y-99599999D02*
X69561142Y-99409523D01*
X69561142Y-99409523D02*
X69751619Y-99314285D01*
X69751619Y-99314285D02*
X70799238Y-99314285D01*
X69751619Y-99314285D02*
X69561142Y-99219047D01*
X69561142Y-99219047D02*
X69465904Y-99028571D01*
X69465904Y-99028571D02*
X69465904Y-98742857D01*
X69465904Y-98742857D02*
X69561142Y-98552380D01*
X69561142Y-98552380D02*
X69751619Y-98457142D01*
X69751619Y-98457142D02*
X70799238Y-98457142D01*
X70799238Y-97504761D02*
X69465904Y-97504761D01*
X69656380Y-97504761D02*
X69561142Y-97409523D01*
X69561142Y-97409523D02*
X69465904Y-97219047D01*
X69465904Y-97219047D02*
X69465904Y-96933332D01*
X69465904Y-96933332D02*
X69561142Y-96742856D01*
X69561142Y-96742856D02*
X69751619Y-96647618D01*
X69751619Y-96647618D02*
X70799238Y-96647618D01*
X69751619Y-96647618D02*
X69561142Y-96552380D01*
X69561142Y-96552380D02*
X69465904Y-96361904D01*
X69465904Y-96361904D02*
X69465904Y-96076190D01*
X69465904Y-96076190D02*
X69561142Y-95885713D01*
X69561142Y-95885713D02*
X69751619Y-95790475D01*
X69751619Y-95790475D02*
X70799238Y-95790475D01*
D10*
X76900000Y-21600000D02*
X69313580Y-21600000D01*
X69313580Y-181600000D02*
X76900000Y-181600000D01*
X69900000Y-21600000D02*
X69900000Y-93764285D01*
X69900000Y-109435715D02*
X69900000Y-181600000D01*
X69900000Y-21600000D02*
X70486421Y-22726504D01*
X69900000Y-21600000D02*
X69313579Y-22726504D01*
X69900000Y-181600000D02*
X69313579Y-180473496D01*
X69900000Y-181600000D02*
X70486421Y-180473496D01*
D11*
X128299238Y-106361905D02*
X128299238Y-107504762D01*
X128299238Y-106933334D02*
X126299238Y-106933334D01*
X126299238Y-106933334D02*
X126584952Y-107123810D01*
X126584952Y-107123810D02*
X126775428Y-107314286D01*
X126775428Y-107314286D02*
X126870666Y-107504762D01*
X126299238Y-104552381D02*
X126299238Y-105504762D01*
X126299238Y-105504762D02*
X127251619Y-105600000D01*
X127251619Y-105600000D02*
X127156380Y-105504762D01*
X127156380Y-105504762D02*
X127061142Y-105314286D01*
X127061142Y-105314286D02*
X127061142Y-104838095D01*
X127061142Y-104838095D02*
X127156380Y-104647619D01*
X127156380Y-104647619D02*
X127251619Y-104552381D01*
X127251619Y-104552381D02*
X127442095Y-104457143D01*
X127442095Y-104457143D02*
X127918285Y-104457143D01*
X127918285Y-104457143D02*
X128108761Y-104552381D01*
X128108761Y-104552381D02*
X128204000Y-104647619D01*
X128204000Y-104647619D02*
X128299238Y-104838095D01*
X128299238Y-104838095D02*
X128299238Y-105314286D01*
X128299238Y-105314286D02*
X128204000Y-105504762D01*
X128204000Y-105504762D02*
X128108761Y-105600000D01*
X126299238Y-103219048D02*
X126299238Y-103028571D01*
X126299238Y-103028571D02*
X126394476Y-102838095D01*
X126394476Y-102838095D02*
X126489714Y-102742857D01*
X126489714Y-102742857D02*
X126680190Y-102647619D01*
X126680190Y-102647619D02*
X127061142Y-102552381D01*
X127061142Y-102552381D02*
X127537333Y-102552381D01*
X127537333Y-102552381D02*
X127918285Y-102647619D01*
X127918285Y-102647619D02*
X128108761Y-102742857D01*
X128108761Y-102742857D02*
X128204000Y-102838095D01*
X128204000Y-102838095D02*
X128299238Y-103028571D01*
X128299238Y-103028571D02*
X128299238Y-103219048D01*
X128299238Y-103219048D02*
X128204000Y-103409524D01*
X128204000Y-103409524D02*
X128108761Y-103504762D01*
X128108761Y-103504762D02*
X127918285Y-103600000D01*
X127918285Y-103600000D02*
X127537333Y-103695238D01*
X127537333Y-103695238D02*
X127061142Y-103695238D01*
X127061142Y-103695238D02*
X126680190Y-103600000D01*
X126680190Y-103600000D02*
X126489714Y-103504762D01*
X126489714Y-103504762D02*
X126394476Y-103409524D01*
X126394476Y-103409524D02*
X126299238Y-103219048D01*
X128299238Y-100171428D02*
X126965904Y-100171428D01*
X127156380Y-100171428D02*
X127061142Y-100076190D01*
X127061142Y-100076190D02*
X126965904Y-99885714D01*
X126965904Y-99885714D02*
X126965904Y-99599999D01*
X126965904Y-99599999D02*
X127061142Y-99409523D01*
X127061142Y-99409523D02*
X127251619Y-99314285D01*
X127251619Y-99314285D02*
X128299238Y-99314285D01*
X127251619Y-99314285D02*
X127061142Y-99219047D01*
X127061142Y-99219047D02*
X126965904Y-99028571D01*
X126965904Y-99028571D02*
X126965904Y-98742857D01*
X126965904Y-98742857D02*
X127061142Y-98552380D01*
X127061142Y-98552380D02*
X127251619Y-98457142D01*
X127251619Y-98457142D02*
X128299238Y-98457142D01*
X128299238Y-97504761D02*
X126965904Y-97504761D01*
X127156380Y-97504761D02*
X127061142Y-97409523D01*
X127061142Y-97409523D02*
X126965904Y-97219047D01*
X126965904Y-97219047D02*
X126965904Y-96933332D01*
X126965904Y-96933332D02*
X127061142Y-96742856D01*
X127061142Y-96742856D02*
X127251619Y-96647618D01*
X127251619Y-96647618D02*
X128299238Y-96647618D01*
X127251619Y-96647618D02*
X127061142Y-96552380D01*
X127061142Y-96552380D02*
X126965904Y-96361904D01*
X126965904Y-96361904D02*
X126965904Y-96076190D01*
X126965904Y-96076190D02*
X127061142Y-95885713D01*
X127061142Y-95885713D02*
X127251619Y-95790475D01*
X127251619Y-95790475D02*
X128299238Y-95790475D01*
D10*
X127400000Y-26600000D02*
X127400000Y-26600000D01*
X127400000Y-176600000D02*
X127400000Y-176600000D01*
X127400000Y-26600000D02*
X127400000Y-93764285D01*
X127400000Y-109435715D02*
X127400000Y-176600000D01*
X127400000Y-26600000D02*
X127986421Y-27726504D01*
X127400000Y-26600000D02*
X126813579Y-27726504D01*
X127400000Y-176600000D02*
X126813579Y-175473496D01*
X127400000Y-176600000D02*
X127986421Y-175473496D01*
D11*
X98495237Y-175499238D02*
X97542856Y-175499238D01*
X97542856Y-175499238D02*
X97447618Y-176451619D01*
X97447618Y-176451619D02*
X97542856Y-176356380D01*
X97542856Y-176356380D02*
X97733332Y-176261142D01*
X97733332Y-176261142D02*
X98209523Y-176261142D01*
X98209523Y-176261142D02*
X98399999Y-176356380D01*
X98399999Y-176356380D02*
X98495237Y-176451619D01*
X98495237Y-176451619D02*
X98590475Y-176642095D01*
X98590475Y-176642095D02*
X98590475Y-177118285D01*
X98590475Y-177118285D02*
X98495237Y-177308761D01*
X98495237Y-177308761D02*
X98399999Y-177404000D01*
X98399999Y-177404000D02*
X98209523Y-177499238D01*
X98209523Y-177499238D02*
X97733332Y-177499238D01*
X97733332Y-177499238D02*
X97542856Y-177404000D01*
X97542856Y-177404000D02*
X97447618Y-177308761D01*
X99828570Y-175499238D02*
X100019047Y-175499238D01*
X100019047Y-175499238D02*
X100209523Y-175594476D01*
X100209523Y-175594476D02*
X100304761Y-175689714D01*
X100304761Y-175689714D02*
X100399999Y-175880190D01*
X100399999Y-175880190D02*
X100495237Y-176261142D01*
X100495237Y-176261142D02*
X100495237Y-176737333D01*
X100495237Y-176737333D02*
X100399999Y-177118285D01*
X100399999Y-177118285D02*
X100304761Y-177308761D01*
X100304761Y-177308761D02*
X100209523Y-177404000D01*
X100209523Y-177404000D02*
X100019047Y-177499238D01*
X100019047Y-177499238D02*
X99828570Y-177499238D01*
X99828570Y-177499238D02*
X99638094Y-177404000D01*
X99638094Y-177404000D02*
X99542856Y-177308761D01*
X99542856Y-177308761D02*
X99447618Y-177118285D01*
X99447618Y-177118285D02*
X99352380Y-176737333D01*
X99352380Y-176737333D02*
X99352380Y-176261142D01*
X99352380Y-176261142D02*
X99447618Y-175880190D01*
X99447618Y-175880190D02*
X99542856Y-175689714D01*
X99542856Y-175689714D02*
X99638094Y-175594476D01*
X99638094Y-175594476D02*
X99828570Y-175499238D01*
X102876190Y-177499238D02*
X102876190Y-176165904D01*
X102876190Y-176356380D02*
X102971428Y-176261142D01*
X102971428Y-176261142D02*
X103161904Y-176165904D01*
X103161904Y-176165904D02*
X103447619Y-176165904D01*
X103447619Y-176165904D02*
X103638095Y-176261142D01*
X103638095Y-176261142D02*
X103733333Y-176451619D01*
X103733333Y-176451619D02*
X103733333Y-177499238D01*
X103733333Y-176451619D02*
X103828571Y-176261142D01*
X103828571Y-176261142D02*
X104019047Y-176165904D01*
X104019047Y-176165904D02*
X104304761Y-176165904D01*
X104304761Y-176165904D02*
X104495238Y-176261142D01*
X104495238Y-176261142D02*
X104590476Y-176451619D01*
X104590476Y-176451619D02*
X104590476Y-177499238D01*
X105542857Y-177499238D02*
X105542857Y-176165904D01*
X105542857Y-176356380D02*
X105638095Y-176261142D01*
X105638095Y-176261142D02*
X105828571Y-176165904D01*
X105828571Y-176165904D02*
X106114286Y-176165904D01*
X106114286Y-176165904D02*
X106304762Y-176261142D01*
X106304762Y-176261142D02*
X106400000Y-176451619D01*
X106400000Y-176451619D02*
X106400000Y-177499238D01*
X106400000Y-176451619D02*
X106495238Y-176261142D01*
X106495238Y-176261142D02*
X106685714Y-176165904D01*
X106685714Y-176165904D02*
X106971428Y-176165904D01*
X106971428Y-176165904D02*
X107161905Y-176261142D01*
X107161905Y-176261142D02*
X107257143Y-176451619D01*
X107257143Y-176451619D02*
X107257143Y-177499238D01*
D10*
X77400000Y-176600000D02*
X77400000Y-176600000D01*
X127400000Y-176600000D02*
X127400000Y-176600000D01*
X77400000Y-176600000D02*
X95516666Y-176600000D01*
X109283334Y-176600000D02*
X127400000Y-176600000D01*
X77400000Y-176600000D02*
X78526504Y-176013579D01*
X77400000Y-176600000D02*
X78526504Y-177186421D01*
X127400000Y-176600000D02*
X126273496Y-177186421D01*
X127400000Y-176600000D02*
X126273496Y-176013579D01*
X79000000Y-46465000D02*
G75*
G03*
X75800000Y-46465000I-1600000J0D01*
G01*
X75800000Y-46465000D02*
G75*
G03*
X79000000Y-46465000I1600000J0D01*
G01*
X79000000Y-156600000D02*
G75*
G03*
X75800000Y-156600000I-1600000J0D01*
G01*
X75800000Y-156600000D02*
G75*
G03*
X79000000Y-156600000I1600000J0D01*
G01*
X129000000Y-46465000D02*
G75*
G03*
X125800000Y-46465000I-1600000J0D01*
G01*
X125800000Y-46465000D02*
G75*
G03*
X129000000Y-46465000I1600000J0D01*
G01*
X129000000Y-156600000D02*
G75*
G03*
X125800000Y-156600000I-1600000J0D01*
G01*
X125800000Y-156600000D02*
G75*
G03*
X129000000Y-156600000I1600000J0D01*
G01*
M02*
